<?xml version="1.0" standalone="no"?>
<!DOCTYPE svg PUBLIC "-//W3C//DTD SVG 20010904//EN"
 "http://www.w3.org/TR/2001/REC-SVG-20010904/DTD/svg10.dtd">
<svg version="1.0" xmlns="http://www.w3.org/2000/svg"
 width="512.000000pt" height="512.000000pt" viewBox="0 0 512.000000 512.000000"
 preserveAspectRatio="xMidYMid meet">
<metadata>
Created by potrace 1.11, written by Peter Selinger 2001-2013
</metadata>
<g transform="translate(0.000000,512.000000) scale(0.100000,-0.100000)"
fill="#000000" stroke="none">
<path d="M0 2560 l0 -2560 2560 0 2560 0 0 2560 0 2560 -2560 0 -2560 0 0
-2560z m2646 2198 c-17 -24 -22 -118 -6 -118 5 0 14 8 19 18 8 13 10 4 10 -38
-1 -37 -3 -47 -8 -31 -4 14 -12 26 -19 29 -15 5 -17 -125 -2 -148 6 -10 3 -21
-12 -37 l-20 -22 -29 22 c-20 14 -26 24 -19 31 5 5 10 43 10 83 0 58 -3 73
-15 73 -8 0 -15 5 -15 10 0 6 7 10 15 10 18 0 21 50 3 68 -6 6 -10 13 -7 14
14 9 105 57 107 58 2 0 -4 -10 -12 -22z m-147 -145 c2 -1 -4 -9 -13 -18 -9 -9
-16 -21 -16 -27 0 -6 -12 2 -26 17 -30 33 -50 23 -35 -18 8 -21 17 -27 40 -27
16 0 33 5 36 10 12 20 23 9 27 -27 3 -21 8 -46 12 -55 6 -14 3 -18 -12 -18
-10 0 -36 -11 -56 -25 -31 -21 -40 -23 -62 -13 -22 11 -28 9 -40 -7 -14 -18
-14 -18 -14 2 0 12 14 33 32 47 29 22 34 23 49 11 26 -25 41 -18 37 18 -3 28
-7 32 -36 35 -18 2 -39 -2 -47 -8 -11 -9 -15 -5 -21 24 -3 20 -10 39 -15 42
-14 8 0 24 21 24 11 0 34 13 52 29 l33 30 25 -22 c14 -12 27 -23 29 -24z m291
-3 c6 0 19 9 30 20 20 20 20 20 34 -8 12 -24 12 -31 -5 -62 l-19 -34 -11 32
c-21 60 -49 32 -49 -48 0 -40 14 -60 42 -60 26 0 22 -13 -10 -31 -27 -15 -30
-15 -58 7 -16 13 -34 24 -41 24 -9 0 -8 9 3 35 16 39 18 83 5 104 -7 10 -1 23
17 43 l27 28 13 -25 c7 -14 17 -25 22 -25z m-540 11 c0 -5 8 -12 18 -15 13 -5
17 -18 18 -66 1 -34 8 -69 16 -82 13 -21 13 -26 -2 -51 -15 -24 -19 -26 -30
-12 -20 24 -59 19 -72 -9 l-11 -25 -28 21 c-20 15 -26 25 -19 34 7 8 7 20 0
38 -7 20 -6 26 4 26 7 0 21 9 32 21 10 11 26 18 36 16 19 -5 22 1 12 27 -9 24
-42 19 -56 -8 l-13 -24 -27 23 c-23 20 -25 25 -13 35 8 7 15 19 15 27 0 10 8
8 30 -8 29 -22 30 -22 50 -4 11 10 20 24 20 32 0 7 5 13 10 13 6 0 10 -4 10
-9z m795 -26 c31 -30 35 -38 24 -51 -7 -9 -13 -42 -13 -75 -1 -59 -1 -59 -31
-59 -17 0 -41 -7 -53 -16 -22 -15 -24 -14 -43 10 -11 13 -28 28 -39 31 -19 6
-19 7 -3 32 10 16 17 47 17 79 1 53 1 54 32 54 16 0 39 7 50 15 10 8 19 15 20
15 1 0 18 -16 39 -35z m1225 -585 c0 -5 -5 -10 -11 -10 -5 0 -7 5 -4 10 3 6 8
10 11 10 2 0 4 -4 4 -10z m-1285 -20 c-10 -11 -26 -20 -37 -20 -15 0 -18 -8
-18 -42 0 -32 -8 -53 -32 -83 l-31 -40 7 35 c21 111 21 113 -2 101 -11 -6 -22
-8 -25 -3 -2 4 -3 2 -1 -4 1 -7 -14 -27 -33 -45 -37 -35 -94 -119 -106 -154
-8 -23 -13 -29 67 73 27 34 51 60 54 58 2 -3 -3 -23 -12 -46 -9 -22 -14 -40
-11 -40 17 0 -110 -113 -146 -129 -56 -26 -99 -27 -99 -3 0 14 -2 15 -10 2 -7
-12 -13 -11 -34 9 -14 13 -28 32 -32 43 -4 15 -16 18 -61 18 -39 0 -53 4 -51
13 3 6 18 14 33 17 l29 5 -32 27 c-44 37 -95 51 -162 45 -56 -5 -57 -4 -70 27
l-13 31 -4 -30 c-4 -24 -130 -334 -150 -368 -3 -4 12 1 33 12 21 12 47 21 58
21 18 0 17 -3 -9 -30 -15 -16 -43 -36 -61 -45 -21 -10 -34 -23 -34 -35 0 -10
-3 -26 -6 -35 -4 -9 -95 -83 -203 -165 -258 -193 -288 -229 -279 -337 9 -104
72 -136 216 -109 138 25 197 22 270 -14 85 -43 146 -117 166 -205 l7 -30 -43
43 -44 43 -20 -22 c-28 -31 -94 -64 -79 -39 7 12 -6 13 -31 3 -16 -6 -16 -7 2
-15 11 -5 -3 -6 -36 -3 -67 7 -75 7 -122 -1 -31 -5 -41 -2 -62 19 -26 26 -26
25 0 136 5 21 3 23 -23 17 -82 -20 -250 -153 -225 -178 7 -7 12 -17 12 -22 0
-6 -7 -2 -15 9 -15 19 -16 19 -37 -3 l-22 -21 26 -20 c15 -12 30 -39 37 -64 6
-24 18 -50 27 -58 16 -13 17 -9 11 46 -4 33 -3 76 1 95 l8 35 9 -50 c5 -27 7
-73 6 -101 -2 -33 2 -55 10 -59 9 -6 11 3 6 41 l-6 49 14 -36 c7 -20 21 -51
31 -70 l18 -34 6 30 7 30 12 -30 c21 -55 35 -76 99 -153 67 -79 122 -159 122
-175 0 -5 -11 -2 -25 7 -14 9 -25 15 -25 14 0 -2 7 -25 15 -52 14 -46 21 -111
8 -76 -9 25 -45 81 -49 77 -2 -2 14 -145 36 -318 22 -173 40 -317 40 -321 0
-10 57 8 98 32 l37 21 -35 -33 c-19 -19 -45 -41 -58 -49 l-23 -16 51 -94 c28
-52 55 -98 60 -103 4 -4 16 4 25 18 10 15 32 36 49 49 l31 22 -32 -41 c-18
-23 -39 -47 -48 -54 -8 -7 -15 -21 -15 -32 0 -26 44 -68 72 -68 l22 0 -22 -16
c-28 -19 -35 -14 -69 44 l-28 47 -3 -42 c-5 -69 41 -139 115 -177 41 -20 53
-20 69 1 11 15 16 16 33 5 19 -11 24 -8 50 29 53 73 51 87 -24 176 -40 47 -84
114 -110 168 -50 103 -80 205 -61 205 18 0 52 27 44 35 -10 10 -94 -30 -140
-66 l-40 -32 40 79 c22 43 48 105 57 136 10 31 21 55 25 53 4 -2 13 21 20 53
28 127 109 258 190 306 l32 18 -13 -23 c-6 -13 -25 -43 -40 -66 -16 -23 -29
-44 -29 -46 0 -3 17 1 38 9 85 30 110 13 44 -31 -108 -73 -203 -207 -236 -333
l-14 -52 22 17 c60 48 284 268 280 275 -3 4 5 12 18 17 13 5 30 16 37 25 12
14 9 16 -23 16 -21 0 -47 -5 -59 -11 l-22 -12 20 23 c21 23 54 42 94 55 23 7
24 6 19 -48 -3 -40 -12 -65 -32 -91 l-27 -36 25 0 c35 0 164 26 211 43 26 9
40 20 41 33 2 54 6 65 30 93 14 17 29 29 34 26 4 -3 22 -30 39 -60 17 -30 39
-59 50 -65 28 -15 77 -12 91 5 10 12 15 12 34 0 27 -18 36 -11 36 27 0 15 5
28 10 28 6 0 10 5 10 11 0 6 -6 9 -13 6 -7 -3 -19 4 -25 14 -7 11 -23 19 -37
19 -24 0 -25 2 -13 23 29 52 -19 420 -92 696 -17 63 -28 116 -26 118 2 3 13
-20 25 -49 l20 -53 2 105 c1 88 14 195 18 153 0 -7 10 -22 21 -33 19 -19 19
-22 5 -50 -16 -32 -20 -60 -7 -60 14 0 43 72 49 121 4 35 9 46 19 42 21 -8 44
16 44 45 l0 26 15 -21 c24 -34 29 -103 12 -143 l-15 -35 5 58 c4 36 2 57 -5
57 -12 0 -32 -107 -32 -176 l-1 -49 -26 30 -26 30 7 -114 c7 -119 41 -404 53
-450 6 -21 9 -13 14 36 4 45 14 75 39 113 18 28 44 79 57 113 l24 62 -5 -45
c-3 -25 -8 -54 -12 -65 -5 -13 -4 -16 4 -11 7 4 17 4 22 1 6 -4 -9 -28 -34
-56 -53 -59 -79 -130 -80 -215 0 -72 29 -158 50 -150 8 3 21 9 30 12 12 5 11
0 -5 -27 -12 -19 -21 -37 -21 -40 0 -4 18 -3 40 1 22 4 40 5 40 3 0 -2 -9 -22
-21 -45 -22 -44 -24 -43 27 -21 8 3 10 -9 7 -40 -8 -66 19 -145 68 -200 22
-26 45 -47 50 -47 6 0 -14 47 -44 104 -29 58 -50 103 -46 101 4 -3 28 -36 55
-75 26 -38 51 -70 56 -70 4 0 8 30 8 68 0 100 20 297 31 300 5 2 9 11 9 20 0
14 -2 15 -9 3 -6 -10 -8 1 -4 30 3 24 7 45 8 47 2 2 9 -15 17 -38 l13 -41 38
39 c21 21 56 72 78 113 38 70 40 72 36 36 -2 -30 -1 -35 9 -25 7 7 15 45 18
85 l5 72 -27 -12 c-55 -25 -118 -61 -174 -99 -32 -21 -58 -34 -58 -27 0 30 70
136 155 235 109 125 156 207 154 268 l-1 41 -13 -55 -12 -55 -7 35 c-3 19 -10
66 -14 104 l-7 69 -38 -56 c-103 -149 -263 -188 -376 -90 -34 29 -41 31 -41
16 -1 -10 -11 -38 -24 -63 l-24 -45 -16 35 c-8 19 -21 43 -28 52 -29 40 89
151 195 184 29 8 99 18 156 21 l104 6 -23 -23 c-29 -29 -11 -39 24 -13 79 58
97 200 33 270 l-20 22 27 31 c29 35 35 94 15 133 -12 21 -11 21 8 5 29 -27 33
-23 33 32 0 27 9 73 20 102 l20 53 -86 -87 -85 -87 2 -67 2 -68 -54 -19 c-36
-13 -92 -21 -168 -24 l-115 -6 22 38 c13 20 31 63 42 96 23 66 26 112 5 65
-12 -28 -13 -28 -19 -9 -8 25 8 166 23 207 15 38 15 38 -19 31 -28 -6 -30 -5
-30 23 0 16 9 37 20 47 17 15 20 16 20 3 0 -27 33 -31 52 -8 25 31 22 43 -6
36 -23 -6 -24 -5 -13 23 5 15 7 37 3 47 -7 17 -11 16 -37 -16 -16 -19 -40 -57
-54 -83 -18 -36 -25 -43 -29 -30 -18 61 -46 169 -46 179 0 9 48 34 65 34 1 0
14 -18 28 -39 l26 -39 51 51 c37 37 47 53 38 59 -18 11 -46 10 -69 -2 -22 -13
-23 -10 -7 44 l13 41 6 -30 6 -30 11 28 c13 30 16 87 6 87 -4 0 -12 -7 -19
-17 -7 -10 -17 -13 -25 -8 -10 6 -9 11 6 23 17 13 14 14 -32 10 -45 -4 -51 -3
-47 13 3 9 0 26 -6 38 -17 30 -1 27 83 -16 46 -24 99 -65 151 -115 44 -43 83
-78 88 -78 4 0 21 -7 36 -15 28 -14 28 -14 66 41 43 62 119 129 135 119 5 -3
10 -17 10 -31 0 -14 6 -24 15 -24 28 0 401 80 508 109 59 16 107 25 107 20 0
-5 -17 -20 -38 -34 -27 -18 -76 -32 -173 -51 -143 -27 -196 -49 -95 -39 75 7
228 40 258 56 13 6 31 18 41 27 16 14 17 13 17 -8 0 -13 -7 -31 -15 -41 -15
-15 -14 -17 12 -24 42 -10 90 -43 114 -76 l21 -30 -26 -28 c-34 -35 -33 -42 7
-34 l32 6 -29 -32 c-34 -36 -26 -40 23 -10 25 15 31 23 22 32 -14 14 -14 54 0
63 14 8 29 -14 29 -43 0 -12 4 -23 8 -25 5 -1 33 -50 63 -108 49 -97 198 -332
218 -344 5 -3 16 12 25 34 20 50 20 50 -4 50 -36 0 -53 43 -48 121 5 69 5 70
-15 52 -20 -18 -20 -18 -14 40 6 61 -2 67 -23 17 -15 -36 -34 -34 -38 3 -2 19
1 27 10 25 8 -2 14 8 16 25 4 31 1 32 -38 12 l-30 -16 0 37 c0 33 -8 45 -63
98 -34 34 -86 81 -116 105 -59 49 -91 94 -91 129 l0 24 34 -29 c18 -15 31 -31
29 -35 -7 -12 9 -32 16 -20 3 5 96 -71 206 -169 161 -144 207 -180 237 -185
24 -4 38 -13 41 -26 3 -11 15 -22 26 -25 19 -5 19 -7 6 -26 -8 -12 -15 -30
-15 -40 0 -15 3 -16 20 -7 25 13 51 6 75 -20 18 -19 17 -20 -8 -20 -14 0 -29
5 -33 11 -23 39 -49 -119 -34 -218 5 -38 10 -71 10 -75 0 -9 84 -8 100 2 19
12 6 25 -40 40 -23 7 -43 17 -46 22 -3 5 -3 31 1 59 l7 50 24 -26 c12 -14 25
-25 28 -25 2 0 -5 23 -15 51 -11 28 -19 52 -17 53 2 0 13 6 25 13 19 11 23 9
42 -23 33 -55 54 -130 47 -166 -7 -39 -41 -98 -56 -98 -6 0 -8 5 -4 12 4 7 3
8 -5 4 -6 -4 -9 -11 -6 -16 10 -16 -43 -22 -71 -8 -16 7 -35 26 -44 43 -8 16
-23 36 -34 45 -18 15 -18 22 -7 121 7 57 15 112 18 123 3 12 1 17 -8 14 -8 -3
-21 -2 -30 3 -14 7 -17 -1 -23 -53 -10 -100 -7 -130 19 -187 l25 -53 -22 5
c-13 3 -45 9 -72 13 -46 6 -48 6 -37 -14 6 -11 34 -40 62 -66 59 -53 51 -62
-12 -13 -62 47 -107 111 -125 176 l-16 57 -56 -59 c-59 -62 -155 -130 -235
-167 -48 -22 -87 -61 -87 -86 0 -7 -10 -23 -22 -35 -13 -12 -16 -18 -8 -14 8
4 -3 -11 -25 -34 -22 -24 -53 -50 -70 -58 -16 -9 -33 -20 -36 -25 -3 -5 -40
-10 -82 -11 -56 -1 -78 -6 -82 -16 -3 -8 0 -18 7 -23 10 -7 10 -8 -2 -6 -8 1
-32 -4 -53 -11 -28 -9 -45 -10 -69 -2 l-30 11 6 -33 c30 -140 11 -275 -59
-427 -30 -66 -45 -113 -45 -140 0 -43 21 -94 42 -104 7 -3 -1 -3 -18 0 -25 4
-32 1 -42 -20 -7 -16 -8 -35 -3 -48 7 -20 9 -20 21 13 l14 34 4 -33 c2 -18 -2
-39 -8 -47 -8 -10 -3 -26 23 -67 l35 -53 -88 -92 c-205 -214 -361 -540 -294
-614 15 -16 11 -25 -48 -116 -34 -54 -96 -140 -136 -192 -53 -68 -70 -96 -61
-102 10 -6 10 -15 0 -47 -8 -22 -11 -44 -7 -50 4 -6 -2 -8 -14 -5 -27 7 -56
-20 -86 -79 -13 -26 -32 -52 -42 -57 -10 -5 -110 -17 -223 -27 -112 -9 -208
-21 -213 -25 -6 -5 58 -10 145 -10 113 -1 141 -4 104 -9 -117 -19 -360 -8
-495 22 -52 11 -53 12 -25 19 21 5 24 7 9 8 -11 0 -48 15 -82 32 -84 41 -161
129 -231 260 -38 71 -63 105 -76 107 -31 6 -72 50 -95 104 -20 48 -30 107 -49
299 -14 148 -62 251 -193 414 -37 45 -96 113 -131 150 l-64 66 24 46 c30 60
29 108 -2 169 -49 96 -69 195 -69 354 -1 121 3 160 23 234 12 48 19 91 14 95
-4 4 -51 38 -105 74 -77 53 -95 71 -91 86 4 15 -5 26 -36 45 -44 28 -53 46
-22 46 24 0 36 32 21 59 -10 19 -11 19 -36 -6 -25 -25 -26 -27 -10 -65 12 -31
12 -37 1 -28 -7 6 -22 31 -32 56 -17 41 -20 44 -46 38 -43 -9 -117 4 -117 21
0 8 -9 19 -19 25 -27 14 -34 13 -27 -6 6 -14 3 -14 -21 2 -50 32 -77 44 -103
44 -50 -1 -111 -40 -197 -128 -78 -80 -95 -92 -147 -107 -96 -28 -202 -5 -270
60 l-29 27 49 41 c27 22 103 94 170 161 168 169 219 255 278 468 34 121 176
226 339 249 109 16 228 1 522 -66 211 -48 242 -58 258 -80 25 -33 85 -49 136
-35 40 10 114 63 160 114 39 41 110 82 182 104 104 32 203 36 419 17 202 -18
306 -15 395 9 28 8 52 15 54 15 2 1 -4 -8 -14 -19z m22 -49 c7 7 13 7 13 2 0
-5 -9 -17 -21 -27 -14 -11 -20 -26 -17 -41 4 -17 1 -22 -9 -18 -8 3 -12 12 -9
20 3 8 6 29 6 46 0 24 3 28 12 19 8 -8 15 -9 25 -1z m53 -67 c0 -17 4 -22 15
-18 9 4 15 0 15 -8 0 -17 -59 -88 -60 -71 0 6 5 15 10 18 12 7 9 95 -2 95 -5
0 -8 4 -8 10 0 5 7 7 15 4 8 -4 15 -17 15 -30z m-53 4 c-3 -8 -6 -5 -6 6 -1
11 2 17 5 13 3 -3 4 -12 1 -19z m-37 -86 c32 -5 36 -10 22 -24 -32 -32 -71 -7
-71 47 l0 30 12 -25 c7 -15 22 -26 37 -28z m180 -47 c0 -9 -9 -15 -25 -15 -18
0 -23 4 -19 15 4 8 15 15 25 15 10 0 19 -7 19 -15z m1670 -140 c0 -8 -2 -15
-4 -15 -2 0 -6 7 -10 15 -3 8 -1 15 4 15 6 0 10 -7 10 -15z m-2164 -10 c-19
-15 -161 -65 -184 -65 -6 0 -12 4 -12 10 0 9 170 68 200 69 11 0 10 -3 -4 -14z
m1985 -166 c10 -21 19 -42 19 -46 0 -10 -35 40 -57 82 -15 28 -15 29 1 16 10
-8 26 -32 37 -52z m-1571 2 c0 -12 -20 -25 -27 -18 -7 7 6 27 18 27 5 0 9 -4
9 -9z m1748 -83 c-2 -6 -10 -14 -16 -16 -7 -2 -10 2 -6 12 7 18 28 22 22 4z
m-1378 -117 c0 -5 3 -18 7 -28 6 -16 5 -16 -10 -4 -19 15 -23 41 -7 41 6 0 10
-4 10 -9z m1490 -231 c12 -8 9 -10 -12 -10 -16 0 -28 5 -28 10 0 13 20 13 40
0z m100 0 c0 -5 -17 -10 -37 -9 -34 1 -35 2 -13 9 36 11 50 11 50 0z m-2210
-34 c0 -2 -8 -10 -17 -17 -16 -13 -17 -12 -4 4 13 16 21 21 21 13z m37 -28
c-3 -8 -6 -5 -6 6 -1 11 2 17 5 13 3 -3 4 -12 1 -19z m-512 -135 c-5 -41 -4
-45 6 -25 9 16 18 21 33 16 34 -10 39 -20 27 -54 -6 -18 -8 -43 -5 -57 6 -23
7 -22 24 15 20 45 59 76 87 69 14 -3 9 -8 -18 -20 -41 -18 -49 -32 -49 -87 0
-21 -16 -79 -35 -129 -41 -105 -42 -111 -15 -111 25 0 25 2 -3 -51 -205 -381
-252 -461 -258 -438 -6 23 -7 23 -13 4 -12 -34 -22 -49 -34 -53 -6 -2 1 25 17
60 48 105 84 236 78 285 -4 38 1 52 45 124 32 51 63 88 84 101 19 11 34 24 34
29 0 10 -22 0 -83 -38 -22 -14 -41 -23 -43 -20 -6 6 20 77 28 74 3 -1 16 10
28 26 12 15 27 27 33 27 8 0 7 -4 -1 -12 -7 -7 -12 -19 -12 -28 0 -9 10 -3 26
18 14 17 33 32 42 33 13 0 12 3 -5 11 -37 18 -113 -26 -140 -82 -22 -43 -23
-44 -23 -14 0 17 11 53 25 80 14 28 25 66 25 89 0 61 18 113 41 120 11 4 27
24 35 46 9 21 18 39 20 39 2 0 1 -21 -1 -47z m1675 -47 c0 -2 -7 -7 -16 -10
-8 -3 -12 -2 -9 4 6 10 25 14 25 6z m-40 -21 c0 -7 -101 -57 -107 -52 -2 3 20
16 49 31 59 28 58 28 58 21z m-1455 -54 c-8 -17 -21 -31 -27 -31 -8 0 -8 -4 1
-12 11 -10 14 -10 18 0 5 14 33 17 33 3 0 -5 -7 -14 -15 -21 -8 -7 -15 -26
-15 -42 0 -16 -5 -39 -12 -51 -7 -12 -14 -39 -17 -60 -4 -21 -10 -36 -16 -35
-5 2 -9 12 -7 23 2 11 5 63 7 115 2 52 4 98 5 101 0 4 12 19 27 33 32 32 41
20 18 -23z m611 -131 c21 0 33 -4 29 -10 -15 -25 -95 -3 -95 26 0 14 2 14 16
0 8 -9 31 -16 50 -16z m-195 -33 c-8 -8 -11 -7 -11 4 0 20 13 34 18 19 3 -7
-1 -17 -7 -23z m16 -57 c-6 -29 7 -43 16 -17 2 6 8 8 13 4 4 -4 -4 -19 -18
-32 l-26 -24 -6 24 c-6 24 8 75 20 75 4 0 4 -13 1 -30z m83 9 c0 -5 -4 -9 -10
-9 -5 0 -10 7 -10 16 0 8 5 12 10 9 6 -3 10 -10 10 -16z m425 1 c-3 -5 -11
-10 -16 -10 -6 0 -7 5 -4 10 3 6 11 10 16 10 6 0 7 -4 4 -10z m-479 -85 c-7
-27 3 -32 22 -13 7 7 12 9 12 5 0 -11 -79 -85 -85 -79 -9 9 -6 18 15 42 11 13
20 31 20 40 0 16 8 30 18 30 2 0 1 -11 -2 -25z m-766 -9 c0 -17 -27 -52 -34
-45 -3 3 -3 20 0 37 4 20 11 29 20 25 8 -3 14 -11 14 -17z m-438 -28 c-7 -7
-12 -8 -12 -2 0 6 3 14 7 17 3 4 9 5 12 2 2 -3 -1 -11 -7 -17z m98 5 c0 -5 -4
-15 -10 -23 -11 -18 -25 -7 -17 15 6 15 27 21 27 8z m-110 -58 c-12 -13 -27
-22 -32 -19 -12 8 21 44 40 44 12 0 10 -6 -8 -25z m35 -15 c-16 -16 -31 -27
-34 -24 -5 5 48 54 58 54 3 0 -8 -13 -24 -30z m1175 -10 c0 -16 -4 -30 -10
-30 -11 0 -14 43 -3 53 11 12 13 8 13 -23z m-1170 -45 c-13 -14 -26 -22 -29
-19 -3 3 5 14 18 25 33 27 39 24 11 -6z m69 -1 c-13 -14 -25 -20 -27 -14 -2 6
4 18 14 25 31 24 39 17 13 -11z m-172 10 c-3 -3 -12 -4 -19 -1 -8 3 -5 6 6 6
11 1 17 -2 13 -5z m464 -54 c-9 -23 -10 -23 -10 11 -1 20 2 39 7 43 11 12 14
-27 3 -54z m919 50 c0 -9 -23 -30 -32 -30 -4 0 -8 9 -8 19 0 14 6 19 20 18 11
-1 20 -4 20 -7z m170 -25 c0 -3 -12 -29 -26 -57 -14 -27 -32 -80 -39 -115 -15
-70 -25 -91 -25 -51 0 50 63 228 81 228 5 0 9 -2 9 -5z m-147 -61 c10 15 21
25 24 22 8 -8 -50 -95 -59 -90 -10 6 -10 51 -1 84 7 24 8 23 13 -10 l5 -34 18
28z m57 -15 c-5 -17 -16 -42 -25 -55 -8 -12 -12 -29 -9 -37 9 -24 -14 -29 -26
-6 -10 17 -8 25 8 42 11 12 27 37 36 55 21 41 27 41 16 1z m-1230 -34 c0 -8
-4 -15 -10 -15 -5 0 -10 7 -10 15 0 8 5 15 10 15 6 0 10 -7 10 -15z m1761 -18
c12 -22 12 -22 -10 -3 -11 11 -21 23 -21 28 0 14 19 -1 31 -25z m-464 -27 c-8
-40 8 -39 22 2 16 45 25 28 16 -29 -5 -26 -10 -40 -12 -30 -5 21 -23 23 -23 2
0 -8 -6 -15 -14 -15 -10 0 -12 9 -5 43 4 23 8 45 9 50 0 4 3 7 6 7 4 0 4 -13
1 -30z m-617 -280 c0 -5 -5 -10 -11 -10 -6 0 -25 -11 -41 -25 -17 -14 -33 -23
-36 -20 -6 6 -8 5 43 38 45 31 45 31 45 17z m-367 -75 c5 -27 -23 -52 -43 -40
-8 5 26 65 36 65 1 0 4 -11 7 -25z m197 -15 c-36 -11 -50 -11 -50 0 0 6 17 10
38 9 33 -1 34 -2 12 -9z m-355 -180 c-16 -16 -31 -28 -34 -25 -2 3 8 19 24 35
16 16 31 28 34 25 2 -3 -8 -19 -24 -35z m-124 13 c-17 -32 -40 -58 -41 -47 0
11 38 64 46 64 3 0 0 -8 -5 -17z m39 -210 c-1 -14 -40 -56 -47 -49 -4 3 4 17
17 31 25 26 30 30 30 18z m1381 -76 c-16 -16 -20 -5 -8 23 9 22 11 23 14 6 3
-10 0 -23 -6 -29z m-1399 -30 c-23 -23 -45 -38 -49 -34 -4 4 13 28 38 53 24
24 46 39 48 33 2 -6 -15 -30 -37 -52z m-54 13 c-14 -22 -24 -19 -15 5 4 8 11
15 17 15 6 0 6 -7 -2 -20z m132 -29 c0 -12 -72 -72 -79 -66 -6 6 60 75 71 75
4 0 8 -4 8 -9z m70 -118 c-1 -18 -89 -103 -95 -92 -4 6 12 30 36 55 41 42 59
53 59 37z m-13 -140 c-39 -59 -43 -68 -27 -71 10 -2 25 -11 33 -20 14 -16 12
-17 -29 -14 -36 3 -44 8 -44 24 0 28 96 165 108 153 2 -2 -16 -35 -41 -72z
m-217 -191 c0 -15 -2 -15 -10 -2 -13 20 -13 33 0 25 6 -3 10 -14 10 -23z m40
-63 c0 -11 -4 -17 -10 -14 -5 3 -10 15 -10 26 0 11 5 17 10 14 6 -3 10 -15 10
-26z m705 -309 c-3 -5 -18 -9 -33 -9 l-27 1 30 8 c17 4 31 8 33 9 2 0 0 -3 -3
-9z"/>
<path d="M2197 4496 c-9 -22 8 -71 24 -71 18 0 24 51 8 71 -15 18 -25 18 -32
0z"/>
<path d="M2961 4529 c-7 -42 -7 -67 0 -80 16 -32 27 -22 39 37 10 47 9 59 -4
80 -9 13 -18 24 -20 24 -2 0 -9 -28 -15 -61z"/>
<path d="M2190 3963 c1 -19 16 -32 29 -24 11 7 9 11 -8 20 -11 7 -21 8 -21 4z"/>
<path d="M2499 3943 c-13 -16 -12 -17 4 -4 9 7 17 15 17 17 0 8 -8 3 -21 -13z"/>
<path d="M2622 3953 c14 -2 32 -10 38 -18 14 -17 9 -77 -7 -82 -7 -3 -9 4 -6
18 5 16 3 20 -7 14 -16 -10 -7 -130 11 -152 11 -12 14 -12 28 2 15 15 14 18
-6 35 -13 10 -23 23 -23 28 0 15 53 116 64 124 6 4 7 10 3 14 -3 4 -13 2 -21
-5 -11 -9 -15 -7 -19 9 -4 16 -13 20 -44 19 -28 -2 -31 -3 -11 -6z"/>
<path d="M2905 3950 c-3 -5 -1 -10 4 -10 6 0 11 5 11 10 0 6 -2 10 -4 10 -3 0
-8 -4 -11 -10z"/>
<path d="M2420 3940 c-8 -5 -11 -12 -7 -16 4 -4 13 -2 19 4 15 15 7 24 -12 12z"/>
<path d="M2760 3943 c0 -4 5 -15 10 -23 8 -13 10 -13 10 2 0 9 -4 20 -10 23
-5 3 -10 3 -10 -2z"/>
<path d="M2125 3930 c-4 -6 -15 -8 -26 -5 -22 7 -25 -7 -6 -24 11 -8 18 -6 32
9 10 11 16 23 13 26 -3 3 -9 0 -13 -6z"/>
<path d="M2217 3914 c-13 -13 -7 -24 14 -24 11 0 19 5 17 12 -5 14 -22 21 -31
12z"/>
<path d="M2308 3914 c-15 -14 5 -24 50 -24 32 0 43 3 36 10 -14 14 -77 24 -86
14z"/>
<path d="M2459 3908 c-1 -7 -2 -26 -3 -42 -1 -37 -26 -48 -26 -12 0 13 -4 28
-10 31 -5 3 -10 -2 -10 -12 0 -11 -6 -25 -12 -32 -11 -10 -9 -15 6 -27 11 -8
26 -14 33 -14 7 0 13 -7 13 -15 0 -8 5 -15 10 -15 7 0 7 6 0 19 -13 25 -13 41
0 41 6 0 10 -11 10 -25 0 -14 7 -28 15 -31 10 -4 13 -14 9 -33 -4 -19 -3 -22
4 -12 9 12 19 13 56 4 31 -7 48 -7 56 1 17 17 12 26 -15 26 -38 0 -68 35 -60
70 7 32 -1 70 -15 70 -5 0 -10 -10 -12 -22 -5 -35 -28 -34 -28 1 0 29 -19 55
-21 29z"/>
<path d="M2170 3901 c0 -5 5 -13 10 -16 6 -3 10 -2 10 4 0 5 -4 13 -10 16 -5
3 -10 2 -10 -4z"/>
<path d="M2597 3903 c-4 -3 -7 -22 -7 -41 0 -20 -7 -43 -16 -53 -10 -11 -12
-19 -5 -24 6 -3 13 0 16 7 20 56 35 102 35 109 0 11 -14 12 -23 2z"/>
<path d="M2043 3883 c-16 -6 -17 -25 -1 -41 17 -17 53 15 37 35 -12 14 -16 15
-36 6z"/>
<path d="M2712 3870 c-15 -25 -15 -33 0 -24 11 7 9 -7 -7 -51 -7 -19 -7 -19 9
-4 19 17 35 99 20 99 -5 0 -15 -9 -22 -20z"/>
<path d="M1130 3871 c0 -5 5 -13 10 -16 6 -3 10 -2 10 4 0 5 -4 13 -10 16 -5
3 -10 2 -10 -4z"/>
<path d="M1986 3865 c-4 -10 1 -15 14 -15 13 0 18 5 14 15 -4 8 -10 15 -14 15
-4 0 -10 -7 -14 -15z"/>
<path d="M2290 3870 c0 -5 5 -10 11 -10 5 0 7 5 4 10 -3 6 -8 10 -11 10 -2 0
-4 -4 -4 -10z"/>
<path d="M3180 3847 c0 -31 10 -40 28 -25 11 10 16 9 23 -5 6 -9 19 -21 29
-27 33 -17 25 17 -11 51 -39 36 -69 38 -69 6z"/>
<path d="M4064 3845 c-18 -15 -18 -15 10 -13 16 2 31 9 34 16 5 17 -20 15 -44
-3z"/>
<path d="M946 3825 c-15 -14 -26 -35 -26 -51 l0 -26 35 31 c42 36 67 39 95 11
16 -16 28 -19 55 -14 48 9 75 -2 75 -32 0 -13 5 -24 10 -24 6 0 10 5 10 10 0
18 56 11 75 -10 20 -22 60 -27 71 -9 4 7 -1 16 -10 21 -9 5 -14 14 -10 19 4 6
16 1 30 -12 20 -18 34 -22 88 -20 35 1 67 -3 71 -9 3 -5 -1 -10 -9 -10 -9 0
-16 -5 -16 -12 0 -6 -7 -20 -17 -30 -9 -10 -13 -21 -10 -24 4 -4 16 4 27 17
l21 24 -6 -35 c-3 -19 -8 -57 -10 -85 -3 -31 -11 -55 -21 -62 -16 -11 -16 -13
-1 -19 9 -3 20 -3 26 0 16 10 18 -28 3 -46 -18 -21 -4 -24 23 -4 16 12 17 16
6 30 -14 17 -7 84 14 125 18 35 27 9 11 -31 -10 -22 -11 -39 -5 -49 5 -8 9 -9
9 -2 0 6 7 19 16 28 12 12 19 13 30 4 11 -9 9 -17 -12 -44 -14 -18 -27 -50
-30 -72 l-6 -38 24 39 c26 45 48 57 48 27 0 -11 5 -23 10 -26 6 -3 10 -2 10 3
0 6 13 24 29 41 17 18 34 52 41 81 14 57 35 81 28 32 -6 -39 6 -32 32 18 24
47 24 51 6 44 -20 -8 -68 26 -62 42 4 10 -3 14 -23 14 -25 0 -30 -5 -35 -35
-4 -19 -2 -43 4 -54 13 -25 13 -61 0 -61 -5 0 -12 16 -16 35 -3 20 -12 41 -18
48 -12 13 -37 97 -28 97 3 0 14 -7 24 -17 18 -16 23 -8 12 21 -3 9 -16 16 -28
16 -12 0 -37 13 -56 30 -42 35 -54 37 -44 8 6 -21 4 -20 -25 7 -31 28 -37 30
-204 47 -95 9 -204 17 -243 17 -62 1 -74 -2 -98 -24z m647 -165 c-5 -21 -33
-49 -33 -33 0 9 29 53 35 53 2 0 1 -9 -2 -20z m98 -47 c-9 -15 -10 -13 -11 13
0 17 3 34 8 38 11 12 14 -32 3 -51z m-147 12 c-4 -8 -8 -15 -10 -15 -2 0 -4 7
-4 15 0 8 4 15 10 15 5 0 7 -7 4 -15z m170 -32 c-7 -16 -14 -37 -14 -48 0 -25
-20 -59 -20 -34 0 25 31 109 40 109 5 0 2 -12 -6 -27z m-54 -83 c0 -5 -5 -10
-11 -10 -5 0 -7 5 -4 10 3 6 8 10 11 10 2 0 4 -4 4 -10z"/>
<path d="M810 3831 c0 -5 7 -11 15 -15 9 -3 15 0 15 9 0 8 -7 15 -15 15 -8 0
-15 -4 -15 -9z"/>
<path d="M1950 3830 c0 -5 5 -10 11 -10 5 0 7 5 4 10 -3 6 -8 10 -11 10 -2 0
-4 -4 -4 -10z"/>
<path d="M3561 3815 c-14 -8 -26 -24 -27 -37 -1 -13 -6 -36 -10 -52 -5 -21 -4
-27 5 -22 6 4 11 13 11 20 0 7 11 34 24 59 13 26 23 47 22 46 0 -1 -12 -7 -25
-14z"/>
<path d="M3946 3803 c-25 -34 -8 -52 31 -34 24 11 26 14 12 24 -9 7 -18 17
-20 24 -2 6 -12 1 -23 -14z"/>
<path d="M1912 3808 c-14 -14 -16 -28 -3 -28 9 0 24 30 18 36 -2 2 -9 -2 -15
-8z"/>
<path d="M1973 3785 c-27 -30 -28 -35 -13 -35 11 0 24 -8 29 -17 9 -16 10 -16
11 -2 0 9 9 28 20 42 22 27 27 48 8 29 -17 -17 -31 -15 -24 3 8 22 3 19 -31
-20z"/>
<path d="M3870 3805 c0 -8 4 -15 10 -15 5 0 7 7 4 15 -4 8 -8 15 -10 15 -2 0
-4 -7 -4 -15z"/>
<path d="M2066 3794 c-4 -10 -1 -14 6 -12 15 5 23 28 10 28 -5 0 -13 -7 -16
-16z"/>
<path d="M3675 3800 c-3 -5 -1 -10 4 -10 6 0 11 5 11 10 0 6 -2 10 -4 10 -3 0
-8 -4 -11 -10z"/>
<path d="M852 3788 c-7 -7 -12 -19 -12 -27 0 -11 4 -10 20 4 21 19 26 35 12
35 -4 0 -13 -5 -20 -12z"/>
<path d="M3770 3781 c0 -10 -12 -27 -26 -36 -26 -17 -27 -17 -21 4 3 14 0 21
-8 21 -18 0 -28 -17 -15 -25 5 -3 10 -21 10 -38 l1 -32 27 31 c16 16 33 29 39
27 6 -2 13 12 15 32 3 24 0 35 -9 35 -7 0 -13 -8 -13 -19z"/>
<path d="M3611 3784 c-1 -5 -10 -20 -21 -32 -16 -17 -17 -22 -6 -22 18 0 39
36 32 53 -2 7 -5 7 -5 1z"/>
<path d="M3467 3773 c-4 -3 -7 -13 -7 -22 1 -13 3 -13 11 2 11 19 8 33 -4 20z"/>
<path d="M4027 3773 c-11 -10 -8 -43 3 -43 6 0 10 11 10 25 0 26 -2 29 -13 18z"/>
<path d="M2040 3758 c0 -7 -12 -35 -25 -63 -14 -27 -25 -55 -25 -61 0 -6 -9
-19 -20 -29 -11 -10 -20 -25 -20 -34 0 -9 -16 -36 -35 -60 -38 -47 -49 -85
-18 -60 15 12 16 12 9 -6 -5 -11 -11 -31 -13 -45 -4 -24 -4 -24 12 -5 8 11 18
37 22 58 3 20 19 54 34 74 16 20 29 41 29 48 0 6 11 21 25 33 14 12 25 28 25
35 0 7 9 29 20 50 11 20 20 41 20 47 0 5 -9 14 -20 20 -15 8 -20 8 -20 -2z"/>
<path d="M1921 3750 c0 -8 4 -22 9 -30 12 -18 12 -2 0 25 -6 13 -9 15 -9 5z"/>
<path d="M4085 3750 c-3 -5 -2 -10 4 -10 5 0 13 5 16 10 3 6 2 10 -4 10 -5 0
-13 -4 -16 -10z"/>
<path d="M4268 3753 c-30 -8 -20 -24 10 -17 34 8 53 24 27 23 -11 -1 -28 -3
-37 -6z"/>
<path d="M1018 3738 c7 -7 12 -22 12 -35 0 -27 1 -27 35 -11 32 14 33 38 1 38
-14 0 -28 5 -31 10 -3 6 -11 10 -18 10 -8 0 -8 -3 1 -12z"/>
<path d="M1150 3728 c0 -15 5 -30 10 -33 13 -8 13 25 0 45 -8 12 -10 9 -10
-12z"/>
<path d="M974 3726 c-8 -21 2 -46 19 -46 10 0 13 8 9 25 -6 31 -20 42 -28 21z"/>
<path d="M1893 3718 c4 -15 -3 -32 -25 -56 -28 -33 -30 -40 -25 -92 5 -57 -8
-104 -23 -81 -3 7 -7 -4 -8 -24 -1 -19 -6 -44 -12 -55 -15 -28 -113 -137 -124
-138 -13 -1 -26 -24 -26 -46 0 -15 3 -16 15 -6 8 7 15 9 15 4 0 -5 19 20 41
55 27 41 52 67 70 73 21 7 29 17 29 34 0 14 9 43 21 65 15 30 19 55 17 99 -3
57 -1 61 36 99 37 38 38 39 21 65 -21 32 -29 33 -22 4z"/>
<path d="M3350 3705 c0 -25 4 -35 13 -33 19 7 20 36 3 54 -15 14 -16 12 -16
-21z"/>
<path d="M3481 3722 c-14 -26 -14 -42 -1 -42 11 0 25 48 17 56 -3 3 -10 -3
-16 -14z"/>
<path d="M3857 3733 c-4 -3 -7 -11 -7 -17 0 -6 5 -5 12 2 6 6 9 14 7 17 -3 3
-9 2 -12 -2z"/>
<path d="M4186 3724 c-17 -17 -22 -59 -6 -49 6 3 10 13 10 21 0 8 6 14 14 14
8 0 16 7 20 15 7 20 -18 19 -38 -1z"/>
<path d="M755 3711 c-3 -11 -12 -22 -20 -25 -8 -3 -15 -10 -15 -15 0 -7 9 -6
25 1 14 6 25 15 25 19 0 4 3 14 6 23 3 9 1 16 -4 16 -6 0 -13 -9 -17 -19z"/>
<path d="M1825 3701 c-9 -18 -11 -31 -5 -31 11 0 34 50 26 57 -2 3 -12 -9 -21
-26z"/>
<path d="M3177 3723 c-10 -9 -8 -51 2 -57 5 -3 9 10 9 29 0 37 -1 39 -11 28z"/>
<path d="M4286 3721 c-4 -7 -5 -15 -2 -18 9 -9 19 4 14 18 -4 11 -6 11 -12 0z"/>
<path d="M3207 3714 c-4 -4 -7 -14 -7 -23 0 -11 3 -12 11 -4 6 6 10 16 7 23
-2 6 -7 8 -11 4z"/>
<path d="M3895 3705 c-16 -8 -56 -25 -87 -39 -38 -16 -62 -34 -69 -50 -7 -14
-16 -23 -20 -20 -5 3 -9 -12 -9 -33 -1 -21 -7 -56 -15 -78 -19 -53 -12 -55 19
-7 14 22 30 43 36 47 6 4 7 12 1 24 -12 21 -2 37 24 42 11 2 28 20 37 39 14
27 18 30 18 14 0 -34 59 -42 82 -12 21 29 8 35 -26 12 -20 -13 -26 -13 -26 -3
0 8 23 27 50 42 28 16 50 24 50 18 0 -5 -6 -11 -12 -14 -7 -2 -10 -7 -7 -11 7
-8 59 14 59 24 0 8 -37 20 -60 19 -8 0 -28 -6 -45 -14z"/>
<path d="M1965 3694 c-16 -7 -26 -13 -21 -14 5 0 3 -7 -4 -15 -20 -24 6 -18
37 9 34 29 29 38 -12 20z"/>
<path d="M4245 3700 c4 -6 11 -8 16 -5 14 9 11 15 -7 15 -8 0 -12 -5 -9 -10z"/>
<path d="M890 3685 c-7 -8 -21 -15 -31 -15 -13 0 -20 -10 -25 -37 -7 -38 9
-120 27 -137 13 -14 12 30 -2 55 -8 15 -5 29 13 62 29 52 49 54 61 4 11 -45
-6 -76 -30 -55 -13 10 -12 13 7 20 19 7 20 11 10 23 -11 14 -15 13 -27 -5 -11
-16 -12 -28 -5 -49 8 -24 5 -35 -20 -72 -18 -28 -25 -45 -17 -48 6 -2 14 2 18
8 4 6 38 43 76 82 52 55 72 69 89 65 15 -4 30 5 58 36 39 44 55 85 18 48 -23
-23 -50 -26 -68 -8 -10 10 -14 10 -21 0 -10 -16 -56 -1 -64 22 -8 20 -51 21
-67 1z m67 -57 c-3 -8 -6 -5 -6 6 -1 11 2 17 5 13 3 -3 4 -12 1 -19z m33 12
c0 -5 -5 -10 -11 -10 -5 0 -7 5 -4 10 3 6 8 10 11 10 2 0 4 -4 4 -10z"/>
<path d="M1195 3665 c-30 -27 -39 -43 -37 -62 2 -16 0 -23 -7 -19 -6 4 -19
-10 -30 -31 -10 -21 -42 -64 -70 -96 -44 -51 -63 -87 -45 -87 8 0 86 82 109
114 26 38 95 111 95 101 0 -5 9 0 20 10 20 18 25 54 11 89 -6 17 -11 15 -46
-19z m26 -48 c-17 -17 -24 -1 -9 22 11 18 14 19 16 5 2 -9 -1 -21 -7 -27z"/>
<path d="M3040 3684 c0 -8 5 -12 10 -9 6 3 10 10 10 16 0 5 -4 9 -10 9 -5 0
-10 -7 -10 -16z"/>
<path d="M4118 3665 c-38 -35 -71 -45 -84 -24 -4 7 -1 10 7 7 20 -7 49 10 49
28 0 20 -16 15 -89 -29 -29 -18 -79 -59 -110 -92 -52 -56 -221 -294 -221 -311
0 -18 84 75 111 121 16 28 42 64 59 80 20 19 30 39 30 57 0 17 4 27 10 23 6
-3 10 -15 10 -26 0 -12 5 -19 13 -16 6 2 11 18 11 35 -2 29 1 31 40 37 22 3
55 9 72 12 26 4 32 1 37 -17 4 -16 2 -20 -9 -16 -17 7 -44 -3 -44 -16 0 -5 19
-8 43 -6 29 2 42 8 42 18 0 28 54 24 85 -5 18 -17 30 -23 34 -16 11 17 43 13
89 -10 45 -23 97 -67 97 -82 0 -18 55 -72 74 -72 13 0 27 -15 41 -44 13 -25
25 -39 29 -32 4 6 4 16 0 22 -5 8 -1 8 14 0 30 -16 32 -15 32 27 0 40 -12 67
-30 67 -7 0 -19 23 -29 50 -20 57 -78 155 -92 155 -4 0 -18 -13 -31 -30 -27
-37 -42 -39 -34 -5 10 38 -2 49 -30 30 -23 -15 -24 -15 -24 9 0 18 -4 23 -18
19 -10 -2 -31 3 -47 11 -17 9 -47 16 -69 16 -37 0 -38 1 -32 30 3 17 4 30 3
30 -1 0 -19 -16 -39 -35z m302 -154 c0 -5 2 -24 6 -42 l5 -34 -15 34 c-19 39
-20 51 -6 51 6 0 10 -4 10 -9z"/>
<path d="M3264 3675 c-17 -13 -17 -14 -2 -15 9 0 20 5 23 11 11 17 0 20 -21 4z"/>
<path d="M3625 3670 c-3 -11 -16 -28 -28 -38 -47 -38 -58 -58 -48 -83 9 -22
10 -22 10 -3 1 11 17 36 37 55 46 44 71 89 50 89 -8 0 -17 -9 -21 -20z"/>
<path d="M4284 3675 c-9 -22 1 -29 15 -11 8 10 9 16 1 21 -5 3 -13 -1 -16 -10z"/>
<path d="M4408 3665 c-20 -26 -23 -45 -8 -45 12 0 32 38 28 55 -2 9 -9 6 -20
-10z"/>
<path d="M787 3673 c-18 -17 5 -133 26 -133 5 0 6 8 1 18 -4 9 -8 38 -9 64 0
47 -6 64 -18 51z"/>
<path d="M2610 3670 c0 -5 5 -10 10 -10 6 0 10 5 10 10 0 6 -4 10 -10 10 -5 0
-10 -4 -10 -10z"/>
<path d="M1318 3635 c5 -42 14 -44 42 -8 16 20 18 28 8 34 -7 4 -16 3 -19 -3
-6 -9 -11 -9 -21 0 -11 9 -13 5 -10 -23z"/>
<path d="M1402 3650 c7 -11 16 -20 19 -20 4 0 5 9 2 20 -3 11 -12 20 -19 20
-12 0 -12 -4 -2 -20z"/>
<path d="M614 3646 c-10 -8 -16 -17 -12 -21 8 -8 48 13 48 25 0 14 -13 12 -36
-4z"/>
<path d="M3454 3649 c-3 -6 -1 -16 5 -22 8 -8 11 -5 11 11 0 24 -5 28 -16 11z"/>
<path d="M3660 3645 c-7 -9 -8 -15 -2 -15 5 0 12 7 16 15 3 8 4 15 2 15 -2 0
-9 -7 -16 -15z"/>
<path d="M1272 3625 c-7 -14 -12 -34 -12 -44 0 -20 -25 -35 -42 -25 -9 6 -2
-33 8 -45 11 -12 74 98 74 130 0 18 -17 8 -28 -16z"/>
<path d="M3046 3634 c-5 -14 -4 -15 9 -4 17 14 19 20 6 20 -5 0 -12 -7 -15
-16z"/>
<path d="M3206 3634 c-4 -10 -1 -14 6 -12 15 5 23 28 10 28 -5 0 -13 -7 -16
-16z"/>
<path d="M3393 3643 c-18 -7 -16 -23 2 -23 8 0 15 7 15 15 0 8 -1 15 -2 14 -2
0 -9 -3 -15 -6z"/>
<path d="M1911 3624 c0 -11 3 -14 6 -6 3 7 2 16 -1 19 -3 4 -6 -2 -5 -13z"/>
<path d="M1099 3593 c-33 -54 -35 -62 -8 -32 31 34 52 69 40 69 -5 0 -20 -17
-32 -37z"/>
<path d="M3492 3614 c-21 -14 -22 -34 -2 -34 11 0 40 29 40 41 0 13 -13 11
-38 -7z"/>
<path d="M1361 3580 c-15 -17 -35 -30 -42 -29 -16 4 -75 -53 -84 -80 -3 -11
-12 -25 -20 -31 -13 -11 -14 -6 -9 32 4 29 2 48 -5 52 -7 4 -9 1 -5 -8 9 -24
-16 -85 -42 -102 -25 -17 -24 -37 1 -27 18 6 19 -1 4 -30 l-12 -21 -10 24 c-9
23 -11 23 -15 6 -2 -11 -10 -26 -18 -34 -8 -7 -14 -19 -14 -27 0 -10 7 -10 34
3 37 18 156 146 156 168 0 19 19 27 34 14 11 -8 23 0 57 40 24 28 51 50 61 50
29 0 16 24 -15 28 -20 2 -35 -5 -56 -28z m-34 -72 c-3 -8 -6 -5 -6 6 -1 11 2
17 5 13 3 -3 4 -12 1 -19z m-140 -110 c-3 -8 -6 -5 -6 6 -1 11 2 17 5 13 3 -3
4 -12 1 -19z"/>
<path d="M3260 3582 c0 -14 -8 -26 -22 -31 -30 -12 -82 -67 -103 -111 l-17
-35 39 37 c21 21 54 51 74 68 39 32 52 59 38 81 -6 10 -9 8 -9 -9z"/>
<path d="M3850 3585 c-7 -8 -19 -15 -26 -15 -7 0 -28 -20 -46 -45 -72 -100
-91 -121 -141 -158 -30 -22 -53 -34 -55 -27 -6 17 -32 -9 -32 -33 0 -19 1 -19
18 -4 10 10 22 17 25 17 13 0 7 -27 -8 -40 -16 -14 -20 -30 -7 -30 5 0 26 16
48 35 28 25 34 34 22 35 -29 0 -20 18 20 40 20 11 53 41 72 66 19 25 59 72 88
103 28 32 52 61 52 64 0 12 -17 7 -30 -8z"/>
<path d="M3367 3583 c-14 -13 -6 -20 18 -15 14 2 25 8 25 13 0 10 -34 12 -43
2z"/>
<path d="M3596 3546 c-34 -41 -45 -66 -28 -66 7 0 25 30 38 63 3 9 13 17 20
17 8 0 14 7 14 15 0 22 -5 19 -44 -29z"/>
<path d="M3418 3513 c-2 -38 0 -94 5 -125 9 -58 9 -58 27 -35 10 12 32 50 50
84 42 80 37 113 -20 131 -22 6 -44 12 -49 12 -5 0 -11 -30 -13 -67z"/>
<path d="M764 3515 c1 -35 9 -44 21 -24 8 13 -2 59 -13 59 -5 0 -8 -16 -8 -35z"/>
<path d="M1010 3531 c0 -14 -6 -21 -20 -21 -16 0 -20 -7 -20 -30 0 -32 26 -43
36 -15 4 8 13 15 21 15 10 0 13 9 11 32 -3 35 -28 52 -28 19z"/>
<path d="M1450 3535 c-7 -8 -22 -15 -34 -15 -20 0 -76 -58 -76 -79 0 -19 28
-12 35 8 3 11 13 25 22 33 12 9 15 9 9 1 -4 -8 -2 -13 6 -13 14 0 64 67 56 75
-3 3 -11 -1 -18 -10z"/>
<path d="M3657 3520 c-11 -16 -16 -18 -13 -7 10 33 -9 16 -36 -32 -29 -51 -36
-95 -17 -106 27 -17 92 85 87 138 l-3 31 -18 -24z"/>
<path d="M4126 3521 c-3 -5 1 -12 10 -15 9 -3 14 -12 11 -20 -8 -19 3 -28 19
-15 13 11 8 39 -10 51 -15 10 -24 10 -30 -1z"/>
<path d="M1160 3511 c0 -4 -13 -24 -30 -42 -29 -33 -38 -59 -21 -59 12 0 56
60 65 88 5 13 3 22 -3 22 -6 0 -11 -4 -11 -9z"/>
<path d="M3970 3509 c0 -5 5 -7 10 -4 6 3 10 8 10 11 0 2 -4 4 -10 4 -5 0 -10
-5 -10 -11z"/>
<path d="M4756 3483 c-8 -52 -8 -108 1 -99 10 9 21 136 12 136 -3 0 -9 -17
-13 -37z"/>
<path d="M712 3485 c0 -16 2 -22 5 -12 2 9 2 23 0 30 -3 6 -5 -1 -5 -18z"/>
<path d="M3254 3485 c-9 -14 -14 -28 -12 -31 8 -8 38 25 38 42 0 20 -7 17 -26
-11z"/>
<path d="M1947 3493 c-7 -11 10 -40 18 -31 4 4 3 14 -3 24 -5 9 -12 12 -15 7z"/>
<path d="M4088 3453 c-33 -43 -36 -87 -8 -123 15 -20 21 -22 31 -13 10 10 7
19 -14 41 -27 28 -35 56 -18 67 5 3 12 -4 16 -15 3 -11 11 -20 16 -20 5 0 9
-7 9 -16 0 -10 11 -4 33 19 17 19 39 36 47 39 8 3 12 9 8 13 -4 4 -23 -2 -43
-14 -51 -30 -58 -27 -50 19 4 22 5 40 3 40 -1 -1 -15 -17 -30 -37z"/>
<path d="M4270 3475 c0 -18 24 -30 40 -20 8 5 8 11 -1 21 -15 19 -39 18 -39
-1z"/>
<path d="M4720 3480 c0 -5 5 -10 10 -10 6 0 10 5 10 10 0 6 -4 10 -10 10 -5 0
-10 -4 -10 -10z"/>
<path d="M625 3470 c-3 -5 -2 -10 4 -10 5 0 13 5 16 10 3 6 2 10 -4 10 -5 0
-13 -4 -16 -10z"/>
<path d="M1308 3443 c-9 -10 -16 -33 -16 -51 1 -37 18 -23 18 15 0 12 5 23 12
25 6 2 9 10 7 17 -3 9 -9 7 -21 -6z"/>
<path d="M1764 3452 c-17 -12 -116 -132 -109 -132 26 0 144 123 127 134 -4 2
-12 2 -18 -2z"/>
<path d="M690 3434 c0 -8 5 -12 10 -9 6 4 8 11 5 16 -9 14 -15 11 -15 -7z"/>
<path d="M1390 3439 c0 -5 5 -7 10 -4 6 3 10 8 10 11 0 2 -4 4 -10 4 -5 0 -10
-5 -10 -11z"/>
<path d="M3887 3444 c-4 -4 -4 -17 -1 -29 3 -13 1 -26 -5 -29 -6 -4 -11 -19
-11 -34 0 -33 -77 -165 -121 -208 -18 -18 -29 -36 -24 -43 3 -7 1 -19 -6 -27
-6 -8 -9 -18 -4 -22 25 -25 194 264 180 308 -4 11 0 29 9 42 9 12 16 28 16 35
0 14 -22 18 -33 7z"/>
<path d="M3163 3409 c-37 -32 -40 -41 -18 -59 13 -11 15 -8 15 14 0 14 5 26
10 26 6 0 10 -10 10 -22 0 -16 3 -19 11 -11 6 6 9 26 7 46 l-3 36 -32 -30z"/>
<path d="M3273 3423 c-3 -10 -24 -37 -46 -60 -52 -54 -34 -56 26 -3 25 22 50
40 56 40 6 0 11 5 11 11 0 5 -5 7 -12 3 -8 -5 -9 -2 -5 9 4 11 1 17 -9 17 -8
0 -17 -8 -21 -17z"/>
<path d="M3953 3432 c-15 -2 -26 -15 -33 -38 -14 -40 -7 -56 10 -25 6 12 17
21 25 21 19 0 19 -14 0 -30 -17 -14 -21 -70 -5 -70 5 0 17 11 26 25 13 20 19
23 31 14 11 -10 11 -14 -2 -29 -19 -22 -19 -49 1 -71 13 -15 14 -24 5 -50 -6
-18 -11 -36 -11 -40 0 -18 17 -8 30 16 18 34 33 20 28 -26 -4 -42 15 -55 27
-19 6 20 16 25 28 13 4 -3 2 -12 -4 -19 -22 -27 -2 -44 48 -43 73 1 126 20
133 48 3 12 23 35 45 50 22 15 42 35 43 46 4 16 -2 15 -44 -10 -37 -22 -46
-24 -41 -11 4 10 7 19 7 22 0 2 22 15 49 28 28 15 51 34 54 46 11 44 -40 150
-72 150 -23 0 -74 -47 -66 -60 4 -6 -6 -10 -21 -10 -22 0 -104 -44 -104 -56 0
-7 136 9 145 17 18 17 26 9 23 -23 -3 -30 -6 -33 -38 -35 -28 -1 -67 -7 -88
-12 -2 -1 11 -13 28 -28 l32 -27 19 25 19 24 0 -31 c0 -40 -19 -96 -31 -88 -5
3 -6 17 -3 32 l6 27 -23 -22 c-20 -20 -21 -25 -10 -49 6 -15 9 -29 6 -33 -10
-10 -22 20 -29 70 -5 38 -13 54 -36 71 -16 12 -32 30 -36 40 -3 10 -13 18 -23
18 -22 0 -66 90 -63 131 2 28 -11 39 -23 19 -4 -6 -13 -7 -23 -2 -9 4 -27 6
-39 4z m358 -45 c-16 -16 -26 0 -10 19 9 11 15 12 17 4 2 -6 -1 -17 -7 -23z
m49 -31 c0 -3 -4 -8 -10 -11 -5 -3 -10 -1 -10 4 0 6 5 11 10 11 6 0 10 -2 10
-4z m-140 -26 c0 -5 -2 -10 -4 -10 -3 0 -8 5 -11 10 -3 6 -1 10 4 10 6 0 11
-4 11 -10z m-126 -149 l6 -33 -19 23 c-10 12 -16 31 -13 42 6 24 18 10 26 -32z"/>
<path d="M4721 3414 c0 -11 3 -14 6 -6 3 7 2 16 -1 19 -3 4 -6 -2 -5 -13z"/>
<path d="M3220 3405 c-8 -9 -8 -15 -2 -15 12 0 26 19 19 26 -2 2 -10 -2 -17
-11z"/>
<path d="M3834 3399 c-10 -11 -19 -31 -19 -45 -1 -15 -26 -49 -68 -93 -63 -65
-79 -91 -58 -91 6 0 13 5 16 11 4 5 17 14 30 19 28 11 110 131 95 140 -7 4 -1
17 15 34 25 27 32 46 17 46 -5 0 -17 -9 -28 -21z"/>
<path d="M1452 3399 c2 -9 -14 -33 -35 -53 -22 -21 -36 -41 -32 -44 4 -4 20 8
35 27 27 32 28 33 32 10 3 -23 3 -23 22 5 18 28 18 29 -4 50 -16 16 -21 17
-18 5z m28 -23 c0 -3 -4 -8 -10 -11 -5 -3 -10 -1 -10 4 0 6 5 11 10 11 6 0 10
-2 10 -4z"/>
<path d="M4223 3403 c-15 -5 -18 -33 -4 -33 8 0 25 30 19 35 -2 1 -9 0 -15 -2z"/>
<path d="M662 3388 c-17 -17 -15 -31 3 -24 8 3 19 -2 24 -12 9 -14 10 -15 11
-1 0 8 -6 23 -13 32 -10 14 -15 15 -25 5z"/>
<path d="M1060 3390 c0 -5 5 -10 10 -10 6 0 10 5 10 10 0 6 -4 10 -10 10 -5 0
-10 -4 -10 -10z"/>
<path d="M4856 3319 c-4 -47 -3 -96 2 -109 12 -33 25 124 14 165 -7 25 -10 14
-16 -56z"/>
<path d="M3335 3380 c-4 -6 -3 -16 3 -22 6 -6 12 -6 17 2 4 6 3 16 -3 22 -6 6
-12 6 -17 -2z"/>
<path d="M1240 3361 c-5 -11 -6 -22 -1 -25 4 -3 13 6 19 19 14 30 -2 34 -18 6z"/>
<path d="M1020 3318 c-6 -24 -13 -51 -16 -60 -3 -11 0 -18 8 -18 16 0 62 96
53 110 -14 23 -35 8 -45 -32z"/>
<path d="M1807 3322 c-43 -44 -50 -70 -14 -50 29 17 87 70 87 80 0 21 -40 4
-73 -30z"/>
<path d="M581 3306 c-24 -24 -43 -46 -43 -49 0 -3 -39 -47 -86 -97 -48 -51
-95 -105 -105 -121 -21 -32 -39 -39 -31 -11 3 9 -2 6 -10 -8 -8 -14 -15 -33
-16 -43 0 -24 104 63 189 157 34 39 69 75 77 79 8 4 14 15 14 24 0 9 11 26 24
38 22 20 46 56 46 69 0 15 -19 2 -59 -38z"/>
<path d="M660 3326 c0 -8 5 -18 10 -21 6 -3 10 1 10 9 0 8 -4 18 -10 21 -5 3
-10 -1 -10 -9z"/>
<path d="M1200 3320 c-8 -5 -12 -12 -9 -15 4 -3 12 1 19 10 14 17 11 19 -10 5z"/>
<path d="M1580 3320 c0 -5 5 -10 11 -10 5 0 7 5 4 10 -3 6 -8 10 -11 10 -2 0
-4 -4 -4 -10z"/>
<path d="M4987 3323 c-4 -3 -7 -11 -7 -17 0 -6 5 -5 12 2 6 6 9 14 7 17 -3 3
-9 2 -12 -2z"/>
<path d="M1460 3268 c0 -19 2 -20 10 -8 13 19 13 30 0 30 -5 0 -10 -10 -10
-22z"/>
<path d="M3177 3283 c-4 -3 -7 -13 -7 -22 1 -13 3 -13 11 2 11 19 8 33 -4 20z"/>
<path d="M3876 3233 c-14 -32 -33 -68 -42 -80 -23 -32 -1 -29 37 5 25 23 34
40 39 80 3 29 3 52 0 52 -4 0 -19 -26 -34 -57z"/>
<path d="M620 3265 c-7 -9 -11 -17 -9 -20 3 -2 10 5 17 15 14 24 10 26 -8 5z"/>
<path d="M4650 3259 c0 -25 70 -99 94 -99 28 0 17 24 -32 73 -53 53 -62 56
-62 26z"/>
<path d="M874 3245 c-20 -30 -10 -47 10 -19 21 28 30 11 12 -24 -11 -22 -12
-32 -3 -41 21 -21 35 -11 39 27 6 45 3 54 -22 70 -17 10 -22 8 -36 -13z"/>
<path d="M940 3261 c0 -6 5 -13 10 -16 6 -3 10 1 10 9 0 9 -4 16 -10 16 -5 0
-10 -4 -10 -9z"/>
<path d="M1156 3255 c-3 -8 -1 -15 4 -15 6 0 10 7 10 15 0 8 -2 15 -4 15 -2 0
-6 -7 -10 -15z"/>
<path d="M670 3235 c0 -14 4 -25 9 -25 5 0 11 11 13 25 4 17 1 25 -8 25 -8 0
-14 -11 -14 -25z"/>
<path d="M3931 3244 c0 -11 3 -14 6 -6 3 7 2 16 -1 19 -3 4 -6 -2 -5 -13z"/>
<path d="M750 3240 c0 -5 7 -10 15 -10 8 0 15 5 15 10 0 6 -7 10 -15 10 -8 0
-15 -4 -15 -10z"/>
<path d="M1272 3220 c0 -14 2 -19 5 -12 2 6 2 18 0 25 -3 6 -5 1 -5 -13z"/>
<path d="M3235 3228 c-11 -6 -27 -14 -35 -18 -8 -4 -16 -16 -18 -26 -2 -10 -8
-29 -14 -41 -6 -11 -8 -27 -5 -35 4 -12 26 27 33 60 6 32 15 42 38 42 13 0 26
7 30 15 6 17 -1 18 -29 3z"/>
<path d="M4415 3231 c-3 -5 -1 -13 5 -16 8 -5 7 -12 -2 -23 -10 -12 -6 -12 19
3 45 26 50 45 13 45 -16 0 -31 -4 -35 -9z"/>
<path d="M1036 3201 c-16 -16 -26 -35 -23 -43 3 -8 9 -3 16 15 6 15 15 27 20
27 5 0 11 7 15 15 8 21 4 19 -28 -14z"/>
<path d="M1494 3215 c-18 -13 -18 -14 4 -8 12 3 25 9 28 14 8 14 -10 11 -32
-6z"/>
<path d="M4930 3211 c0 -12 5 -21 10 -21 6 0 10 6 10 14 0 8 -4 18 -10 21 -5
3 -10 -3 -10 -14z"/>
<path d="M5002 3200 c0 -19 2 -27 5 -17 2 9 2 25 0 35 -3 9 -5 1 -5 -18z"/>
<path d="M1426 3195 c-9 -14 -12 -25 -7 -25 12 0 35 39 28 46 -2 3 -12 -7 -21
-21z"/>
<path d="M3137 3213 c-4 -3 -7 -11 -7 -17 0 -6 5 -5 12 2 6 6 9 14 7 17 -3 3
-9 2 -12 -2z"/>
<path d="M3320 3205 c-22 -12 -23 -14 -7 -20 17 -7 47 10 47 26 0 12 -11 11
-40 -6z"/>
<path d="M3597 3209 c-18 -11 -23 -44 -8 -53 8 -5 35 53 28 60 -1 1 -10 -2
-20 -7z"/>
<path d="M3950 3205 c-6 -8 -14 -33 -17 -55 -4 -31 -14 -47 -39 -67 -27 -20
-72 -83 -59 -83 1 0 30 26 62 58 54 52 60 62 66 110 7 56 6 59 -13 37z"/>
<path d="M1582 3180 c-26 -34 -18 -39 17 -9 16 13 21 23 15 29 -7 7 -18 -1
-32 -20z"/>
<path d="M1290 3190 c0 -12 28 -25 36 -17 3 3 -4 10 -15 17 -15 7 -21 7 -21 0z"/>
<path d="M1351 3159 c-7 -22 -10 -43 -7 -46 2 -3 10 14 16 37 15 55 7 63 -9 9z"/>
<path d="M3495 3123 c-24 -45 -25 -48 -9 -60 35 -26 44 -16 44 47 0 33 -2 60
-4 60 -2 0 -16 -21 -31 -47z"/>
<path d="M960 3150 c0 -5 5 -10 11 -10 5 0 7 5 4 10 -3 6 -8 10 -11 10 -2 0
-4 -4 -4 -10z"/>
<path d="M1492 3140 c-8 -13 -8 -20 -2 -20 6 0 13 7 17 15 9 24 -1 27 -15 5z"/>
<path d="M4355 3149 c-11 -17 1 -21 15 -4 8 9 8 15 2 15 -6 0 -14 -5 -17 -11z"/>
<path d="M1121 3134 c8 -9 19 -33 24 -52 15 -52 32 -51 31 1 -1 36 -4 43 -18
39 -10 -2 -20 3 -24 12 -3 9 -11 16 -16 16 -6 0 -4 -7 3 -16z"/>
<path d="M3266 3141 c-4 -7 -5 -15 -2 -18 9 -9 19 4 14 18 -4 11 -6 11 -12 0z"/>
<path d="M3310 3135 c0 -8 2 -15 4 -15 2 0 6 7 10 15 3 8 1 15 -4 15 -6 0 -10
-7 -10 -15z"/>
<path d="M3616 3119 c-10 -17 -16 -33 -13 -36 3 -3 13 9 22 27 9 18 15 34 13
36 -2 2 -12 -10 -22 -27z"/>
<path d="M3683 3137 c-22 -12 -77 -86 -70 -93 2 -3 25 20 51 51 26 30 46 55
44 55 -2 -1 -13 -6 -25 -13z"/>
<path d="M1297 3123 c-4 -3 -7 -16 -6 -27 0 -19 1 -19 10 3 10 24 8 36 -4 24z"/>
<path d="M4031 3130 c0 -3 -5 -21 -11 -40 -9 -31 -8 -33 6 -18 9 9 14 26 11
39 -2 13 -5 22 -6 19z"/>
<path d="M3110 3098 c-12 -22 -12 -22 6 -6 10 10 15 20 12 24 -4 3 -12 -5 -18
-18z"/>
<path d="M1200 3089 c0 -11 5 -17 10 -14 6 3 10 13 10 21 0 8 -4 14 -10 14 -5
0 -10 -9 -10 -21z"/>
<path d="M225 3090 c-3 -5 -1 -10 4 -10 6 0 11 5 11 10 0 6 -2 10 -4 10 -3 0
-8 -4 -11 -10z"/>
<path d="M1520 3090 c0 -5 7 -10 15 -10 8 0 15 5 15 10 0 6 -7 10 -15 10 -8 0
-15 -4 -15 -10z"/>
<path d="M3560 3075 c0 -8 2 -15 4 -15 2 0 6 7 10 15 3 8 1 15 -4 15 -6 0 -10
-7 -10 -15z"/>
<path d="M1435 3060 c-10 -11 -15 -20 -11 -20 4 0 16 9 28 20 12 11 17 20 11
20 -5 0 -18 -9 -28 -20z"/>
<path d="M3790 3050 c-27 -22 -32 -31 -23 -41 9 -9 19 -5 43 21 51 54 37 68
-20 20z"/>
<path d="M4056 3073 c-11 -11 -6 -23 9 -23 8 0 15 4 15 9 0 13 -16 22 -24 14z"/>
<path d="M3659 3051 c-13 -11 -20 -23 -16 -27 4 -4 17 2 29 14 28 28 18 38
-13 13z"/>
<path d="M184 3045 c-8 -21 6 -41 17 -24 12 19 11 39 -1 39 -6 0 -13 -7 -16
-15z"/>
<path d="M3929 3033 c-33 -40 -59 -83 -52 -83 16 0 53 31 53 44 0 20 29 41 40
30 7 -7 0 -24 -18 -50 -15 -21 -28 -43 -28 -49 -2 -43 -34 -111 -34 -74 0 7
-10 3 -23 -9 -13 -12 -28 -22 -34 -22 -14 0 -37 -29 -30 -37 4 -3 14 0 23 7
13 11 17 11 24 1 6 -10 10 -8 15 8 3 12 10 19 15 16 5 -3 26 9 46 27 21 18 45
32 54 30 21 -3 54 33 45 48 -4 7 -18 10 -32 7 -15 -3 -22 0 -20 7 2 6 13 10
23 9 17 -1 16 1 -4 17 -19 16 -21 22 -11 38 26 42 -21 73 -52 35z m81 -117 c0
-2 -7 -9 -15 -16 -13 -11 -14 -10 -9 4 5 14 24 23 24 12z"/>
<path d="M3847 2992 c-26 -26 -47 -54 -47 -61 0 -18 19 -2 71 60 52 63 37 63
-24 1z"/>
<path d="M4087 3033 c-4 -3 -7 -14 -7 -24 0 -10 -8 -22 -17 -28 -17 -9 -17
-11 -2 -27 16 -15 18 -13 27 32 11 50 10 59 -1 47z"/>
<path d="M1210 3011 c0 -11 5 -23 10 -26 6 -4 10 5 10 19 0 14 -4 26 -10 26
-5 0 -10 -9 -10 -19z"/>
<path d="M3540 3015 c-10 -12 -9 -15 4 -15 9 0 16 -4 16 -10 0 -15 17 -12 23
3 3 7 -3 19 -13 25 -14 9 -21 8 -30 -3z"/>
<path d="M126 3012 c-3 -5 5 -20 17 -33 19 -21 22 -21 25 -6 6 29 -29 60 -42
39z"/>
<path d="M3672 2988 c-12 -18 -29 -33 -39 -34 -10 0 -33 -1 -51 -2 -30 -2 -35
-7 -62 -64 -33 -69 -37 -98 -16 -98 22 0 38 24 25 37 -18 18 22 64 84 98 30
16 63 42 72 58 24 40 12 45 -13 5z"/>
<path d="M1487 3004 c-4 -4 -7 -17 -7 -28 1 -19 1 -20 11 -3 11 19 8 43 -4 31z"/>
<path d="M3710 2991 c-12 -23 -13 -41 -2 -41 4 0 13 14 19 30 12 33 0 41 -17
11z"/>
<path d="M1430 2974 c0 -8 5 -12 10 -9 6 3 10 10 10 16 0 5 -4 9 -10 9 -5 0
-10 -7 -10 -16z"/>
<path d="M3746 2965 c-3 -8 -2 -15 3 -15 5 0 14 7 21 15 10 12 10 15 -3 15 -8
0 -17 -7 -21 -15z"/>
<path d="M185 2960 c-3 -5 -1 -10 4 -10 6 0 11 5 11 10 0 6 -2 10 -4 10 -3 0
-8 -4 -11 -10z"/>
<path d="M232 2958 c3 -7 13 -15 22 -16 12 -3 17 1 14 10 -3 7 -13 15 -22 16
-12 3 -17 -1 -14 -10z"/>
<path d="M1207 2953 c6 -24 43 -63 43 -45 0 6 -11 24 -24 39 -22 25 -24 26
-19 6z"/>
<path d="M1160 2936 c0 -2 7 -9 15 -16 9 -7 15 -8 15 -2 0 5 -7 12 -15 16 -8
3 -15 4 -15 2z"/>
<path d="M4110 2921 c-10 -20 -14 -59 -5 -49 7 7 25 68 20 68 -3 0 -9 -9 -15
-19z"/>
<path d="M3756 2911 c-10 -11 -16 -26 -14 -33 3 -8 12 0 22 20 19 37 17 40 -8
13z"/>
<path d="M3851 2896 c-43 -30 -82 -76 -65 -76 12 1 119 98 114 103 -3 2 -25
-10 -49 -27z"/>
<path d="M4150 2910 c-8 -5 -11 -12 -7 -16 4 -4 13 -2 19 4 15 15 7 24 -12 12z"/>
<path d="M3593 2893 c-3 -10 -15 -28 -26 -40 -19 -22 -19 -22 2 -16 26 7 68
73 45 73 -8 0 -17 -8 -21 -17z"/>
<path d="M1288 2895 c-7 -7 5 -54 21 -82 8 -14 10 -15 11 -2 0 8 -4 19 -9 25
-5 5 -11 22 -13 37 -2 16 -6 26 -10 22z"/>
<path d="M3646 2862 c-5 -8 -4 -18 2 -24 7 -7 7 -20 0 -40 -13 -37 -3 -49 13
-15 14 31 0 103 -15 79z"/>
<path d="M3705 2830 c-3 -5 -2 -10 4 -10 5 0 13 5 16 10 3 6 2 10 -4 10 -5 0
-13 -4 -16 -10z"/>
<path d="M3983 2820 c2 -8 12 -16 23 -17 13 -2 15 -1 4 4 -8 3 -19 11 -23 17
-6 7 -7 6 -4 -4z"/>
<path d="M3585 2800 c-3 -5 -1 -10 4 -10 6 0 11 5 11 10 0 6 -2 10 -4 10 -3 0
-8 -4 -11 -10z"/>
<path d="M1476 2783 c-4 -9 -2 -21 4 -27 7 -7 10 -2 10 17 0 31 -5 34 -14 10z"/>
<path d="M3600 2740 c0 -16 4 -30 10 -30 5 0 8 13 7 30 -3 39 -17 39 -17 0z"/>
<path d="M3135 2718 c-28 -26 -36 -41 -29 -48 7 -7 20 2 43 30 43 54 36 64
-14 18z"/>
<path d="M3665 2741 c-3 -5 -1 -12 5 -16 5 -3 10 1 10 9 0 18 -6 21 -15 7z"/>
<path d="M1824 2715 c-9 -22 1 -29 15 -11 8 10 9 16 1 21 -5 3 -13 -1 -16 -10z"/>
<path d="M3226 2693 c-39 -41 -42 -48 -25 -58 5 -4 28 12 50 35 22 23 44 38
50 34 7 -4 10 -1 7 7 -9 29 -45 21 -82 -18z"/>
<path d="M3302 2673 c-42 -44 -43 -45 -15 -39 33 8 63 40 63 67 0 10 -1 19 -2
19 -2 -1 -22 -22 -46 -47z"/>
<path d="M3385 2710 c-3 -5 -1 -10 4 -10 6 0 11 5 11 10 0 6 -2 10 -4 10 -3 0
-8 -4 -11 -10z"/>
<path d="M1980 2690 c0 -19 3 -21 12 -12 9 9 9 15 0 24 -9 9 -12 7 -12 -12z"/>
<path d="M1871 2687 c-6 -8 -8 -17 -4 -20 11 -12 21 -7 26 13 6 23 -5 26 -22
7z"/>
<path d="M3177 2693 c-4 -3 -7 -11 -7 -17 0 -6 5 -5 12 2 6 6 9 14 7 17 -3 3
-9 2 -12 -2z"/>
<path d="M3594 2650 c-1 -22 2 -37 7 -34 11 6 11 45 1 61 -4 6 -8 -6 -8 -27z"/>
<path d="M2020 2670 c0 -6 -12 -28 -27 -47 -16 -20 -23 -34 -18 -32 52 24 65
34 65 55 0 13 -4 26 -10 29 -5 3 -10 1 -10 -5z"/>
<path d="M1370 2656 c0 -8 5 -18 10 -21 6 -3 10 3 10 14 0 12 -4 21 -10 21 -5
0 -10 -6 -10 -14z"/>
<path d="M1751 2654 c0 -11 3 -14 6 -6 3 7 2 16 -1 19 -3 4 -6 -2 -5 -13z"/>
<path d="M3655 2637 c-4 -10 -5 -21 -1 -24 10 -10 18 4 13 24 -4 17 -4 17 -12
0z"/>
<path d="M1338 2617 c-5 -10 -8 -40 -7 -65 l1 -47 9 34 c12 40 9 107 -3 78z"/>
<path d="M3140 2620 c0 -5 5 -10 11 -10 5 0 7 5 4 10 -3 6 -8 10 -11 10 -2 0
-4 -4 -4 -10z"/>
<path d="M1770 2595 c7 -9 15 -13 17 -11 7 7 -7 26 -19 26 -6 0 -6 -6 2 -15z"/>
<path d="M1855 2590 c3 -5 10 -10 16 -10 5 0 9 5 9 10 0 6 -7 10 -16 10 -8 0
-12 -4 -9 -10z"/>
<path d="M3592 2570 c0 -14 2 -19 5 -12 2 6 2 18 0 25 -3 6 -5 1 -5 -13z"/>
<path d="M3691 2541 c-11 -27 -21 -60 -21 -73 0 -13 -5 -29 -12 -36 -6 -6 -9
-14 -5 -18 10 -11 47 59 47 91 0 17 7 39 15 49 17 22 19 36 6 36 -5 0 -18 -22
-30 -49z"/>
<path d="M3642 2536 c-8 -21 -12 -40 -9 -43 9 -8 28 37 25 59 -2 17 -6 14 -16
-16z"/>
<path d="M3586 2521 c-4 -7 -5 -15 -2 -18 9 -9 19 4 14 18 -4 11 -6 11 -12 0z"/>
<path d="M3698 2414 c-5 -4 -8 -21 -8 -38 0 -21 3 -27 11 -19 6 6 9 23 7 38
-2 15 -6 23 -10 19z"/>
<path d="M1336 2381 c-4 -7 -5 -15 -2 -18 9 -9 19 4 14 18 -4 11 -6 11 -12 0z"/>
<path d="M1440 2368 c0 -13 5 -30 10 -38 7 -11 10 -7 10 17 0 17 -4 35 -10 38
-6 3 -10 -4 -10 -17z"/>
<path d="M3534 2355 c-9 -14 -14 -28 -10 -32 3 -3 6 -1 6 6 0 7 5 9 11 5 12
-7 29 12 29 34 0 20 -18 14 -36 -13z"/>
<path d="M3640 2360 c-6 -11 -8 -20 -6 -20 3 0 10 9 16 20 6 11 8 20 6 20 -3
0 -10 -9 -16 -20z"/>
<path d="M1370 2298 c0 -9 5 -20 10 -23 13 -8 13 5 0 25 -8 13 -10 13 -10 -2z"/>
<path d="M1520 2290 c0 -5 5 -10 11 -10 5 0 7 5 4 10 -3 6 -8 10 -11 10 -2 0
-4 -4 -4 -10z"/>
<path d="M3656 2278 c-18 -25 -22 -63 -5 -53 5 4 8 12 6 18 -3 7 5 22 16 35
11 12 15 22 9 22 -6 0 -18 -10 -26 -22z"/>
<path d="M3394 2249 c-22 -18 -34 -30 -29 -27 58 25 85 39 90 48 13 21 -24 8
-61 -21z"/>
<path d="M1574 2241 c11 -11 23 -21 28 -21 14 0 -1 19 -25 31 -22 12 -22 12
-3 -10z"/>
<path d="M1340 2188 c0 -9 5 -20 10 -23 13 -8 13 5 0 25 -8 13 -10 13 -10 -2z"/>
<path d="M1542 2100 c0 -14 2 -19 5 -12 2 6 2 18 0 25 -3 6 -5 1 -5 -13z"/>
<path d="M1670 2101 c0 -5 5 -13 10 -16 6 -3 10 -2 10 4 0 5 -4 13 -10 16 -5
3 -10 2 -10 -4z"/>
<path d="M1740 2081 c0 -6 4 -13 10 -16 6 -3 7 1 4 9 -7 18 -14 21 -14 7z"/>
<path d="M1520 2045 c0 -8 2 -15 4 -15 2 0 11 -3 20 -6 23 -9 20 13 -4 26 -16
9 -20 8 -20 -5z"/>
<path d="M1730 1968 c0 -9 5 -20 10 -23 13 -8 13 5 0 25 -8 13 -10 13 -10 -2z"/>
<path d="M3430 1965 c-20 -24 -6 -28 15 -5 10 11 13 20 8 20 -6 0 -16 -7 -23
-15z"/>
<path d="M1470 1940 c0 -8 5 -22 10 -30 9 -13 10 -13 10 0 0 8 -5 22 -10 30
-9 13 -10 13 -10 0z"/>
<path d="M3497 1913 c-4 -3 -7 -17 -7 -29 0 -13 -5 -26 -10 -29 -17 -10 -50
-83 -49 -107 0 -22 1 -22 9 -3 4 12 15 27 24 34 9 7 16 20 16 27 0 8 9 14 21
14 18 0 20 4 13 28 -4 15 -7 37 -7 50 1 24 0 25 -10 15z"/>
<path d="M1540 1871 c0 -6 5 -13 10 -16 6 -3 10 1 10 9 0 9 -4 16 -10 16 -5 0
-10 -4 -10 -9z"/>
<path d="M1580 1833 c0 -3 12 -27 27 -52 20 -33 28 -41 31 -28 4 19 -34 87
-49 87 -5 0 -9 -3 -9 -7z"/>
<path d="M3650 1824 c0 -8 5 -12 10 -9 6 4 8 11 5 16 -9 14 -15 11 -15 -7z"/>
<path d="M1556 1793 c8 -34 35 -83 46 -83 12 0 10 6 -17 60 -28 56 -39 64 -29
23z"/>
<path d="M3606 1795 c-10 -14 -16 -29 -13 -31 7 -8 39 35 35 47 -2 7 -12 0
-22 -16z"/>
<path d="M3035 1790 c-3 -5 -1 -10 4 -10 6 0 11 5 11 10 0 6 -2 10 -4 10 -3 0
-8 -4 -11 -10z"/>
<path d="M2650 1765 c0 -3 5 -14 12 -24 9 -16 16 -17 35 -8 13 5 23 14 23 19
0 12 -14 10 -28 -4 -9 -9 -13 -7 -18 5 -6 15 -24 24 -24 12z"/>
<path d="M3470 1736 c-15 -39 -12 -46 6 -13 9 16 13 31 10 34 -3 3 -10 -6 -16
-21z"/>
<path d="M2964 1728 c4 -13 9 -41 12 -63 5 -38 5 -39 -11 -20 -9 11 -20 26
-24 33 -4 7 -29 15 -57 18 -38 4 -58 1 -89 -15 -21 -12 -47 -21 -57 -21 -17 0
-34 -17 -25 -26 3 -3 44 -6 92 -7 l87 -2 -6 28 c-3 15 -4 27 -1 27 11 0 96
-151 101 -181 7 -39 30 -79 45 -79 6 0 1 12 -10 27 -36 45 -12 39 36 -10 49
-48 52 -69 8 -49 -35 16 -31 8 13 -33 l39 -34 -10 -68 c-5 -37 -13 -72 -17
-76 -4 -5 -16 5 -26 22 -10 17 -22 31 -26 31 -8 0 -12 -37 -9 -82 2 -22 -2
-28 -18 -28 -26 0 -28 31 -6 83 17 40 20 83 6 91 -4 3 -6 -5 -4 -17 2 -12 -16
-67 -40 -122 -25 -55 -43 -102 -41 -104 3 -3 17 8 32 22 16 15 31 27 35 27 15
0 6 -19 -19 -41 -14 -13 -44 -44 -67 -67 -23 -24 -51 -48 -62 -54 -17 -8 -17
-6 3 11 12 10 20 26 16 34 -3 9 3 16 17 20 13 4 21 9 17 12 -10 11 -39 -8 -53
-35 -8 -16 -22 -35 -30 -44 -14 -14 -11 -16 34 -22 51 -7 61 -24 15 -24 -20 0
-24 -5 -24 -29 0 -16 -7 -45 -15 -64 -28 -67 9 -52 51 21 10 17 22 32 27 32
12 0 -1 -59 -19 -87 -13 -21 -13 -23 7 -23 24 0 152 119 205 192 44 59 62 113
72 208 6 67 9 75 28 74 19 0 21 5 22 59 1 80 -23 141 -108 266 -38 57 -70 113
-70 124 0 15 -5 18 -25 15 -21 -4 -24 -2 -20 13 7 21 -10 59 -27 59 -6 0 -8
-9 -4 -22z m226 -422 c0 -16 -21 -56 -30 -56 -14 0 -13 33 2 48 12 12 28 16
28 8z"/>
<path d="M1681 1700 c0 -19 7 -51 15 -70 l14 -35 -4 53 c-6 64 -26 106 -25 52z"/>
<path d="M1630 1703 c0 -12 5 -25 10 -28 13 -8 13 15 0 35 -8 12 -10 11 -10
-7z"/>
<path d="M2583 1666 c-71 -15 -76 -26 -12 -26 75 0 103 9 88 26 -6 8 -14 13
-18 13 -3 -1 -29 -7 -58 -13z"/>
<path d="M2690 1669 c0 -5 5 -7 10 -4 6 3 10 8 10 11 0 2 -4 4 -10 4 -5 0 -10
-5 -10 -11z"/>
<path d="M3391 1664 c0 -11 3 -14 6 -6 3 7 2 16 -1 19 -3 4 -6 -2 -5 -13z"/>
<path d="M3321 1654 c0 -11 3 -14 6 -6 3 7 2 16 -1 19 -3 4 -6 -2 -5 -13z"/>
<path d="M1629 1642 c12 -23 41 -48 41 -35 0 10 -37 53 -46 53 -2 0 0 -8 5
-18z"/>
<path d="M2670 1610 c-13 -8 -12 -10 3 -10 9 0 17 5 17 10 0 12 -1 12 -20 0z"/>
<path d="M3381 1603 c-1 -6 -4 -20 -7 -30 -5 -17 -5 -17 6 0 6 10 9 23 6 30
-3 9 -5 9 -5 0z"/>
<path d="M2863 1563 c-21 -8 -15 -23 10 -23 16 -1 32 -17 62 -68 24 -40 48
-68 60 -70 18 -3 18 -3 4 10 -15 12 -46 56 -89 126 -17 28 -28 33 -47 25z"/>
<path d="M1710 1543 c0 -19 11 -43 21 -43 13 0 11 14 -6 36 -8 10 -15 14 -15
7z"/>
<path d="M2720 1538 c-25 -5 -66 -7 -92 -5 -53 5 -62 -7 -27 -39 19 -17 21
-18 30 -1 12 20 35 23 42 5 4 -8 6 -7 6 3 1 26 52 35 68 12 14 -20 15 -21 60
-63 18 -17 37 -30 43 -30 5 0 26 -32 45 -70 32 -64 34 -71 18 -76 -128 -39
-207 -83 -187 -104 8 -8 18 -5 36 10 38 29 117 61 146 58 19 -2 31 5 49 31 13
19 23 44 23 56 0 26 -47 102 -107 173 -49 57 -60 60 -153 40z"/>
<path d="M2448 1483 c-14 -21 -45 -65 -69 -98 -25 -35 -33 -52 -19 -40 25 22
123 165 117 171 -2 3 -15 -13 -29 -33z"/>
<path d="M2690 1473 c-14 -7 -18 -13 -10 -13 17 0 47 17 40 23 -3 2 -16 -2
-30 -10z"/>
<path d="M3392 1431 c-18 -34 -32 -70 -32 -80 1 -9 17 15 36 52 19 38 33 74
31 80 -2 7 -18 -17 -35 -52z"/>
<path d="M2587 1391 c-4 -17 -3 -21 5 -13 5 5 8 16 6 23 -3 8 -7 3 -11 -10z"/>
<path d="M3321 1362 c-13 -25 -14 -32 -2 -32 9 0 23 41 16 48 -2 2 -8 -5 -14
-16z"/>
<path d="M2995 1360 c3 -5 8 -10 11 -10 2 0 4 5 4 10 0 6 -5 10 -11 10 -5 0
-7 -4 -4 -10z"/>
<path d="M3027 1346 c-4 -15 -6 -31 -2 -34 10 -10 16 6 13 35 l-3 28 -8 -29z"/>
<path d="M3060 1304 c-9 -24 -8 -35 7 -64 l18 -35 3 54 c4 64 -12 89 -28 45z"/>
<path d="M2299 1283 c-13 -16 -12 -17 4 -4 9 7 17 15 17 17 0 8 -8 3 -21 -13z"/>
<path d="M2745 1271 c-3 -5 -1 -12 5 -16 5 -3 10 1 10 9 0 18 -6 21 -15 7z"/>
<path d="M1774 1069 c-3 -6 -1 -16 5 -22 8 -8 11 -5 11 11 0 24 -5 28 -16 11z"/>
<path d="M2627 1053 c-4 -3 -7 -11 -7 -17 0 -6 5 -5 12 2 6 6 9 14 7 17 -3 3
-9 2 -12 -2z"/>
<path d="M2217 1029 c7 -7 15 -10 18 -7 3 3 -2 9 -12 12 -14 6 -15 5 -6 -5z"/>
<path d="M2340 970 c23 -18 60 -27 60 -15 0 7 -57 35 -72 35 -7 0 -2 -9 12
-20z"/>
<path d="M2270 970 c0 -5 9 -15 19 -22 15 -9 17 -15 8 -30 -9 -13 -8 -20 2
-30 12 -11 13 -10 7 5 -4 14 0 20 14 24 25 7 25 12 3 30 -33 25 -53 34 -53 23z"/>
<path d="M2526 971 c-10 -16 7 -20 44 -11 22 5 27 8 13 9 -12 1 -28 4 -36 7
-8 3 -18 1 -21 -5z"/>
<path d="M2646 971 c-4 -7 -5 -15 -2 -18 9 -9 19 4 14 18 -4 11 -6 11 -12 0z"/>
<path d="M2780 960 c-13 -8 -12 -10 3 -10 9 0 17 5 17 10 0 12 -1 12 -20 0z"/>
<path d="M2640 920 l-45 -7 53 -1 c33 -1 51 2 47 8 -3 6 -7 9 -8 8 -1 0 -22
-4 -47 -8z"/>
<path d="M2415 910 c3 -5 18 -10 33 -10 21 0 24 2 12 10 -20 13 -53 13 -45 0z"/>
<path d="M2495 910 c-8 -13 15 -13 35 0 12 8 11 10 -7 10 -12 0 -25 -4 -28
-10z"/>
<path d="M2318 870 c-46 -40 -74 -88 -65 -112 2 -7 14 7 25 32 12 25 28 54 36
64 26 32 30 10 6 -29 -12 -20 -20 -38 -17 -41 8 -8 47 46 54 75 3 14 13 31 22
38 15 11 15 12 0 13 -9 0 -36 -18 -61 -40z"/>
<path d="M2570 892 c-6 -2 -8 -8 -5 -12 3 -5 -3 -14 -14 -20 -20 -10 -77 -97
-70 -105 11 -10 69 27 75 47 3 13 21 36 40 52 l34 28 -10 -28 c-6 -16 -21 -39
-32 -51 -17 -18 -18 -23 -6 -23 16 0 42 26 76 77 l22 31 -50 4 c-28 1 -55 1
-60 0z"/>
<path d="M2676 841 c-36 -49 -44 -66 -27 -59 13 4 81 88 81 99 0 21 -21 6 -54
-40z"/>
<path d="M2443 871 c-50 -6 -53 -8 -78 -54 -14 -26 -25 -55 -25 -63 0 -7 -8
-14 -17 -14 -12 0 -14 -3 -7 -10 23 -23 62 7 81 59 9 27 20 48 24 45 4 -2 12
4 18 13 5 10 13 14 17 10 4 -4 -4 -33 -20 -63 -15 -31 -25 -58 -23 -61 7 -6
67 79 67 96 0 8 7 23 17 33 9 10 12 17 7 16 -5 -1 -32 -4 -61 -7z"/>
<path d="M2757 873 c-3 -5 1 -14 9 -20 14 -14 30 0 19 17 -7 12 -22 13 -28 3z"/>
<path d="M3053 858 c-35 -40 -65 -88 -61 -99 3 -10 14 4 72 94 22 33 17 35
-11 5z"/>
<path d="M2785 809 c-15 -29 -23 -49 -16 -45 13 9 54 86 48 92 -2 2 -16 -19
-32 -47z"/>
<path d="M2700 810 c-6 -12 -9 -24 -7 -27 3 -2 11 5 17 17 6 12 9 24 7 27 -3
2 -11 -5 -17 -17z"/>
<path d="M2035 801 c3 -6 25 -21 47 -32 22 -11 37 -16 33 -10 -3 6 -25 21 -47
32 -22 11 -37 16 -33 10z"/>
<path d="M2670 760 c0 -12 28 -20 45 -14 24 10 17 19 -15 20 -17 1 -30 -2 -30
-6z"/>
<path d="M2030 704 c0 -13 39 -74 47 -74 4 0 2 5 -5 12 -7 7 -12 20 -12 29 0
9 -7 22 -15 29 -8 7 -15 9 -15 4z"/>
<path d="M2092 680 c14 -22 24 -19 15 5 -4 8 -11 15 -17 15 -6 0 -6 -7 2 -20z"/>
<path d="M2110 638 c0 -21 26 -48 48 -48 13 0 12 3 -5 15 -13 9 -27 23 -32 33
-10 16 -10 16 -11 0z"/>
<path d="M2948 643 c7 -3 16 -2 19 1 4 3 -2 6 -13 5 -11 0 -14 -3 -6 -6z"/>
<path d="M2260 610 c0 -21 80 -51 128 -48 47 3 47 3 -26 17 -43 8 -76 19 -79
27 -6 16 -23 19 -23 4z"/>
<path d="M2545 610 c-3 -5 -1 -10 4 -10 6 0 11 5 11 10 0 6 -2 10 -4 10 -3 0
-8 -4 -11 -10z"/>
<path d="M2458 580 c13 -6 31 -6 45 0 18 7 14 9 -23 9 -37 0 -41 -2 -22 -9z"/>
<path d="M2805 570 c-3 -5 3 -14 12 -20 14 -9 -1 -10 -64 -5 -96 6 -242 -5
-203 -16 14 -4 46 -7 72 -8 25 -1 48 -6 50 -12 4 -12 130 -14 186 -3 33 6 42
24 20 41 -26 19 -67 32 -73 23z"/>
<path d="M2241 561 c-24 -15 16 -41 62 -40 l42 1 -35 15 c-19 8 -40 19 -45 23
-6 5 -16 5 -24 1z"/>
<path d="M2915 560 c-3 -5 -2 -10 4 -10 5 0 13 5 16 10 3 6 2 10 -4 10 -5 0
-13 -4 -16 -10z"/>
<path d="M2408 523 c7 -3 16 -2 19 1 4 3 -2 6 -13 5 -11 0 -14 -3 -6 -6z"/>
<path d="M2477 510 c15 -17 98 -25 107 -11 5 7 -5 11 -31 11 -21 0 -49 3 -63
6 -20 5 -23 4 -13 -6z"/>
<path d="M2290 2735 c-7 -8 -8 -15 -2 -15 5 0 15 7 22 15 7 8 8 15 2 15 -5 0
-15 -7 -22 -15z"/>
<path d="M2337 2722 c-22 -24 -32 -76 -18 -99 10 -17 10 -16 11 5 0 13 9 35
20 49 20 26 27 63 12 63 -5 0 -16 -8 -25 -18z"/>
<path d="M2377 2663 c-4 -3 -7 -13 -7 -22 1 -13 3 -13 11 2 11 19 8 33 -4 20z"/>
<path d="M2400 2598 c0 -25 3 -29 10 -18 13 20 13 50 0 50 -5 0 -10 -15 -10
-32z"/>
<path d="M2335 2440 c-4 -6 -4 -23 0 -38 3 -18 -2 -44 -14 -72 -11 -25 -29
-70 -41 -100 -20 -54 -20 -54 0 -30 11 14 34 59 51 100 25 60 29 78 20 93 -7
10 -9 27 -6 38 7 20 0 26 -10 9z"/>
<path d="M2307 2393 c-4 -3 -7 -11 -7 -17 0 -6 5 -5 12 2 6 6 9 14 7 17 -3 3
-9 2 -12 -2z"/>
<path d="M2262 2283 c-23 -45 -92 -244 -92 -264 1 -25 18 13 71 156 49 136 59
183 21 108z"/>
</g>
</svg>
