<?xml version="1.0" encoding="utf-8"?>
<!-- Generator: Adobe Illustrator 16.0.4, SVG Export Plug-In . SVG Version: 6.00 Build 0)  -->
<!DOCTYPE svg PUBLIC "-//W3C//DTD SVG 1.1//EN" "http://www.w3.org/Graphics/SVG/1.1/DTD/svg11.dtd">
<svg version="1.1" id="Layer_1" xmlns="http://www.w3.org/2000/svg" xmlns:xlink="http://www.w3.org/1999/xlink" x="0px" y="0px"
	 width="1920px" height="1080px" viewBox="0 0 1920 1080" enable-background="new 0 0 1920 1080" xml:space="preserve">
<g id="Layer_2">
	<polygon fill="#F8991D" points="966.766,787.525 987.996,676.359 1258.779,260.713 1794.509,135.944 1035.125,787.525 	"/>
	<polygon fill="#F8991D" points="948.339,787.525 927.088,676.359 656.326,260.713 120.596,135.944 879.979,787.525 	"/>
	<polygon fill="#F8991D" points="1058.902,787.525 1653.333,384.8 1907.453,264.428 1797.453,550.051 1155.497,787.525 	"/>
	<polygon fill="#F8991D" points="1204.539,787.525 1807.453,642.309 1907.453,736.999 1263.98,787.525 	"/>
	<polygon fill="#F8991D" points="860.129,787.525 265.698,384.8 11.579,264.428 111.579,550.051 763.534,787.525 	"/>
	<polygon fill="#F8991D" points="714.493,787.525 111.579,642.309 11.579,736.999 655.05,787.525 	"/>
	<path fill="#F8991D" d="M1029,264.428"/>
	<polygon display="none" fill="#F8991D" points="956.617,492 881,245.428 881,116 966.766,28 1127,136.944 1004,245.428 	"/>
	<polygon fill="#F8991D" points="958,443 875,198.428 958,3 1036,198.428 	"/>
</g>
<g id="Layer_1_1_">
	<g>
		<path fill="#607D8B" d="M0,836.755h16.062l26.117,40.586l26.116-40.586h16.063v85.83H69.399v-61.553l-27.098,40.463h-0.49
			l-26.853-40.217v61.307H0V836.755z"/>
		<path fill="#607D8B" d="M171.044,836.755h14.959v85.83h-14.959V836.755z"/>
		<path fill="#607D8B" d="M312.785,924.056c-6.295,0-12.098-1.145-17.411-3.434c-5.314-2.288-9.924-5.414-13.831-9.379
			c-3.906-3.965-6.972-8.646-9.196-14.039c-2.225-5.396-3.335-11.159-3.335-17.29v-0.246c0-6.13,1.09-11.87,3.273-17.226
			c2.183-5.353,5.248-10.056,9.196-14.1c3.947-4.049,8.619-7.233,14.014-9.565c5.395-2.328,11.361-3.492,17.902-3.492
			c3.923,0,7.499,0.325,10.728,0.978c3.229,0.655,6.192,1.576,8.89,2.762c2.698,1.185,5.19,2.595,7.48,4.23
			c2.287,1.636,4.454,3.433,6.498,5.396l-9.687,11.154c-3.434-3.186-7.071-5.76-10.913-7.723c-3.843-1.963-8.215-2.944-13.119-2.944
			c-4.089,0-7.869,0.8-11.342,2.393c-3.476,1.593-6.479,3.763-9.012,6.499c-2.535,2.741-4.497,5.947-5.886,9.627
			c-1.392,3.678-2.085,7.6-2.085,11.771v0.242c0,4.172,0.693,8.115,2.085,11.835c1.389,3.72,3.351,6.969,5.886,9.746
			c2.532,2.78,5.536,4.965,9.012,6.562c3.474,1.593,7.253,2.389,11.342,2.389c5.229,0,9.726-0.998,13.487-3.004
			c3.758-2.003,7.479-4.72,11.157-8.151l9.687,9.809c-2.207,2.372-4.518,4.478-6.928,6.312c-2.412,1.839-5.008,3.437-7.787,4.782
			c-2.779,1.351-5.824,2.372-9.134,3.065C320.448,923.706,316.789,924.056,312.785,924.056z"/>
		<path fill="#607D8B" d="M427.059,836.755h14.959v35.68h41.198v-35.68h14.959v85.83h-14.959v-36.171h-41.198v36.171h-14.959
			V836.755L427.059,836.755z"/>
		<path fill="#607D8B" d="M614.412,836.144h13.978l37.767,86.441h-15.94l-8.706-20.721h-40.585l-8.828,20.721h-15.448
			L614.412,836.144z M635.992,888.5l-14.836-34.332L606.441,888.5H635.992z"/>
		<path fill="#607D8B" d="M744.627,836.755h63.514v13.61h-48.554v22.068h43.037v13.61h-43.037v22.93h49.167v13.61h-64.127V836.755z"
			/>
		<path fill="#607D8B" d="M890.536,836.755h14.959v72.22h45.122v13.61h-60.081V836.755z"/>
		<path fill="#607D8B" d="M1130.734,836.755h14.957v72.22h45.121v13.61h-60.078V836.755z"/>
		<path fill="#607D8B" d="M1271.245,836.755h14.962v85.83h-14.962V836.755z"/>
		<path fill="#607D8B" d="M1403.178,923.81c-6.621,0-12.958-1.125-19.005-3.369c-6.05-2.248-11.649-5.703-16.8-10.361l9.073-10.788
			c4.169,3.595,8.379,6.354,12.63,8.273c4.251,1.924,9.072,2.882,14.468,2.882c4.66,0,8.359-0.982,11.097-2.943
			c2.739-1.96,4.107-4.578,4.107-7.847v-0.246c0-1.55-0.266-2.92-0.798-4.104c-0.532-1.184-1.517-2.312-2.951-3.373
			c-1.433-1.061-3.401-2.042-5.9-2.942c-2.501-0.897-5.757-1.796-9.771-2.697c-4.591-1.062-8.667-2.269-12.232-3.616
			c-3.562-1.35-6.556-2.981-8.972-4.905c-2.417-1.92-4.265-4.271-5.535-7.052c-1.271-2.775-1.904-6.13-1.904-10.055v-0.243
			c0-3.678,0.729-7.052,2.189-10.118c1.458-3.062,3.464-5.678,6.019-7.847c2.555-2.165,5.624-3.86,9.216-5.088
			c3.589-1.225,7.509-1.84,11.76-1.84c6.294,0,11.954,0.922,16.981,2.762c5.025,1.838,9.747,4.517,14.162,8.028l-8.091,11.404
			c-3.926-2.859-7.809-5.045-11.65-6.562c-3.844-1.51-7.726-2.271-11.647-2.271c-4.413,0-7.848,0.981-10.299,2.944
			s-3.681,4.374-3.681,7.234v0.246c0,1.637,0.286,3.086,0.862,4.354c0.572,1.267,1.616,2.412,3.133,3.433
			c1.517,1.021,3.606,1.982,6.271,2.882c2.661,0.9,6.045,1.838,10.142,2.819c4.507,1.145,8.502,2.411,11.985,3.802
			s6.372,3.088,8.666,5.09c2.296,2.002,4.035,4.334,5.225,6.987c1.188,2.657,1.785,5.743,1.785,9.256v0.246
			c0,4.005-0.753,7.602-2.253,10.79s-3.59,5.885-6.263,8.093c-2.674,2.205-5.892,3.882-9.643,5.025
			C1411.796,923.237,1407.672,923.81,1403.178,923.81z"/>
		<path fill="#607D8B" d="M1515.245,836.755h38.43c9.872,0,17.339,2.535,22.398,7.604c3.834,3.842,5.752,8.581,5.752,14.224v0.242
			c0,2.617-0.345,4.926-1.036,6.928c-0.689,2.005-1.58,3.762-2.674,5.271c-1.096,1.514-2.393,2.844-3.893,3.988
			c-1.5,1.144-3.021,2.125-4.561,2.939c2.52,0.901,4.812,1.942,6.885,3.127c2.073,1.188,3.862,2.598,5.366,4.231
			c1.501,1.636,2.661,3.555,3.471,5.763c0.813,2.205,1.224,4.778,1.224,7.725v0.246c0,3.841-0.756,7.233-2.268,10.177
			c-1.508,2.941-3.65,5.396-6.426,7.354c-2.773,1.962-6.12,3.456-10.034,4.477c-3.918,1.025-8.246,1.533-12.978,1.533h-39.658
			L1515.245,836.755L1515.245,836.755z M1550.734,872.927c4.889,0,8.797-0.961,11.729-2.88c2.935-1.923,4.401-4.847,4.401-8.769
			v-0.246c0-3.434-1.284-6.11-3.853-8.033c-2.564-1.919-6.293-2.88-11.18-2.88h-21.63v22.808H1550.734z M1555.143,909.221
			c5.135,0,9.17-0.979,12.105-2.942c2.932-1.962,4.4-4.905,4.4-8.827v-0.246c0-3.68-1.449-6.521-4.343-8.521
			c-2.892-2.003-7.314-3.003-13.263-3.003h-23.839v23.541L1555.143,909.221L1555.143,909.221z"/>
		<path fill="#607D8B" d="M1708.48,924.056c-6.617,0-12.668-1.165-18.146-3.495c-5.478-2.328-10.177-5.494-14.101-9.5
			c-3.924-4.005-6.987-8.685-9.196-14.038c-2.207-5.356-3.312-11.058-3.312-17.107v-0.246c0-6.047,1.104-11.747,3.312-17.103
			c2.209-5.354,5.313-10.056,9.319-14.104c4.004-4.045,8.744-7.25,14.222-9.622c5.478-2.371,11.526-3.556,18.147-3.556
			s12.67,1.164,18.146,3.492c5.475,2.332,10.179,5.498,14.099,9.503c3.925,4.008,6.99,8.688,9.198,14.039
			c2.207,5.354,3.311,11.056,3.311,17.105v0.242c0,6.051-1.104,11.755-3.311,17.107c-2.208,5.354-5.316,10.054-9.318,14.099
			c-4.007,4.049-8.748,7.258-14.225,9.625C1721.152,922.871,1715.104,924.056,1708.48,924.056z M1708.729,910.199
			c4.231,0,8.119-0.796,11.66-2.39c3.539-1.597,6.569-3.758,9.094-6.499c2.523-2.737,4.498-5.946,5.921-9.626
			c1.428-3.678,2.14-7.604,2.14-11.771v-0.246c0-4.167-0.712-8.107-2.14-11.83c-1.423-3.719-3.419-6.948-5.98-9.687
			c-2.562-2.736-5.637-4.927-9.219-6.562c-3.583-1.633-7.485-2.452-11.722-2.452c-4.232,0-8.119,0.799-11.657,2.393
			c-3.543,1.593-6.574,3.763-9.099,6.499c-2.523,2.741-4.496,5.946-5.922,9.627c-1.425,3.678-2.138,7.6-2.138,11.771v0.242
			c0,4.172,0.713,8.115,2.138,11.835c1.426,3.719,3.422,6.947,5.984,9.687c2.562,2.74,5.635,4.927,9.218,6.56
			C1700.589,909.384,1704.493,910.199,1708.729,910.199z"/>
		<path fill="#607D8B" d="M1865.918,836.144h13.979l37.765,86.441h-15.938l-8.707-20.721h-40.584l-8.83,20.721h-15.446
			L1865.918,836.144z M1887.497,888.5l-14.836-34.332l-14.714,34.332H1887.497z"/>
	</g>
</g>
</svg>
