<svg xmlns="http://www.w3.org/2000/svg" width="130" height="120"><path fill="#303d42" d="M69.947 11.784c.42-.335.757-.57 1.008-.7a4.928 4.928 0 0 1 1.165-.411l-1.263-.163c-.32-.106-.644-.377-.97-.812l.196-2.428c.03-.39.167-.576.406-.557.28.022.515.33.708.924.153.478.228.9.223 1.27l.012.001a5.97 5.97 0 0 1 .412-1.231c.242-.518.513-.83.81-.934a1.467 1.467 0 0 1-.644-.678L71.7 5.16c-.41.793-.817 1.173-1.223 1.14s-.732-.472-.978-1.32c-.48.965-.978 1.426-1.496 1.384.472.32.685.762.64 1.328l-.108 1.352c-.018.215-.11.473-.28.772-.188.33-.373.496-.56.497.383.03.816.2 1.302.508s.8.63.95.962zm5.838 10.87l-.001.016-.21.21c.09.194.422.196.515.003a.497.497 0 0 0-.305-.228zm.46.527c-.1.215-.217.45-.438.535s-.533-.12-.446-.34a.397.397 0 0 0-.351.042 2.562 2.562 0 0 1-.152 1.709c-.062.134-.137.284-.086.422s.3.16.32.012a.473.473 0 0 0 .353.232.697.697 0 0 0-.277-.575 3.29 3.29 0 0 0 .349-1.261.56.56 0 0 0 .685-.088.561.561 0 0 0 .044-.689zM34.38 18.586l.712 1.484.745-1.467 1.63-.218-1.166-1.16.297-1.618-1.465.75-1.447-.782.26 1.625-1.2 1.134 1.624.254zm9.296-3.675l1.026-1.286 1.64.116-.907-1.373.617-1.525-1.586.438-1.26-1.058-.074 1.644-1.396.87 1.54.578.398 1.595zm15.69-6.854l.12 1.35c.284-.507.77-.79 1.454-.852s1.052.176 1.1.71l.096 1.076c.013.15-.044.233-.17.244-.19.017-.438-.1-.74-.32-.275-.208-.478-.403-.606-.585-.126.204-.357.405-.693.604s-.558.367-.666.505c-.2.267-.296.69-.285 1.266l.072-.006c.142-.486.408-.747.798-.782.406-.036.83.163 1.27.598.642-.917 1.624-1.434 2.946-1.55-.395-.198-.618-.583-.67-1.158L63.236 7.4c-.39.533-.867.824-1.436.875-.47.042-.8-.118-.986-.48-.107-.208-.186-.6-.235-1.148-.013-.144.045-.22.172-.232.255-.023.537.13.848.455a3.15 3.15 0 0 1 .58.828c.032-.356.163-.655.4-.896a1.29 1.29 0 0 1 .855-.407l.083-.008c-.773-.204-1.383-.652-1.83-1.343-.262.49-.703.902-1.324 1.238a4.57 4.57 0 0 1-1.759.542c.46.208.718.62.773 1.232zm-5.047.882c.282-.88.636-1.36 1.06-1.445.157-.03.307.015.45.137a.78.78 0 0 1 .265.443l.164.824c-.287-.17-.532-.237-.736-.197-.15.03-.348.18-.596.448s-.5.428-.726.474c-.196.04-.432.024-.706-.043.28.173.46.476.547.907.12.612-.01 1.02-.393 1.228.34.104.615.245.83.423.1.086.304.32.615.698.282-.88.64-1.362 1.07-1.448.424-.084.934.227 1.53.932.115-.405.228-.7.338-.885.134-.23.348-.468.642-.713-.314-.076-.532-.208-.652-.396-.095-.144-.176-.384-.243-.72l-.314-1.586a1.174 1.174 0 0 1 .059-.646c.08-.22.21-.392.384-.516-.38-.112-.677-.25-.89-.4-.175-.144-.387-.39-.636-.74-.235.952-.58 1.473-1.036 1.563-.463.092-.985-.257-1.565-1.048l-.27.918c-.107.24-.317.477-.63.71.354.1.63.237.827.41.107.092.31.32.61.682zm2.176 1.165c.122.617-.01.963-.394 1.04-.25.05-.44-.046-.57-.29-.066-.125-.132-.355-.198-.7-.14-.7-.034-1.1.32-1.17.274-.054.507.07.698.373l.146.737zm7.562-3.92l.816-.013.044 2.724c.006.376-.02.657-.082.842a1.02 1.02 0 0 1-.542.609c.436.225.7.393.824.502.163.15.355.4.577.783.187-.347.37-.6.552-.79.157-.146.422-.327.795-.54-.46-.208-.695-.685-.707-1.43L66.3 6.147c.305-.005.512.04.62.134s.166.285.17.573l.004.216.003.216.252-.004-.04-2.544-.264.004c.006.392-.018.625-.072.697-.08.105-.307.16-.682.167l-.02-1.26c-.02-1.24.31-1.97.985-2.188l.01-.156c-.395.062-.8.25-1.213.56-.542.41-.905.647-1.09.714a6.354 6.354 0 0 1-.819.193l-.012.012.377.294c.227.188.342.39.346.606l.02 1.248-.816.013.007.54zm57.923 25.61l-.015.01-.2-.21a.298.298 0 0 0-.237.148 1.5 1.5 0 0 0 .53.825.692.692 0 0 0-.068-.773zm-1.87-1.63c-.003-.172-.2-.32-.357-.25l-.017-.02c-.09.196.218.415.374.268zm-74.467 73c-.143.002-.214.226-.098.31.14.004.207-.224.087-.297l.01-.014zm83.238-58.8a1.087 1.087 0 0 0-.053-.527.524.524 0 0 0 .028.546l.025-.02zm-20.976-22.49h.017l.265-.157a.332.332 0 0 0-.154-.245.678.678 0 0 0-.607.57c.164.103.414.015.48-.168zm-31.978 2.51l-.188.373.065.044a.548.548 0 0 0-.073.582c.37-.154.48-.716.196-1zm18.9-5.798l.712 1.484.745-1.467 1.63-.218-1.165-1.16.297-1.618-1.465.75-1.447-.782.26 1.625-1.19 1.134 1.624.254zM73.592 11.24c.443.398.728.77.85 1.12.688-.826 1.7-1.13 3-.915-.393-.3-.53-.764-.417-1.394l.242-1.322c.134-.732.422-1.1.865-1.135-.343-.08-.743-.317-1.2-.713s-.74-.755-.853-1.077c-.32.38-.776.647-1.365.8a3.658 3.658 0 0 1-1.611.071c.374.312.502.792.384 1.437l-.24 1.322a1.965 1.965 0 0 1-.297.69c-.184.292-.37.424-.56.397.35.082.748.32 1.192.72zm1.49-4.45c.36.35.59.607.688.772.194.32.26.65.198.988l-.485 2.656c-.712-.512-1.02-1.028-.925-1.547l.524-2.87zm.12 21.632a3.35 3.35 0 0 0 .661-.805c.072-.097-.066-.228-.188-.22s-.23.083-.353.086c-.188.004-.332-.155-.503-.232s-.45.033-.387.208a1.457 1.457 0 0 1-.348-1.567 1.053 1.053 0 0 0-.391 1.152c.21.648.535 1.402 1.207 1.516a.546.546 0 0 1-.025-.567l.327.43zm9.504-14.816l1.01 1.3.418-1.59 1.55-.557-1.384-.9-.05-1.644-1.275 1.04-1.578-.46.597 1.534-.927 1.36 1.642-.092zm.764 79.1l-.045-.012a.72.72 0 0 0-.098.729 1.32 1.32 0 0 0 .602-1.463.79.79 0 0 0-.459.746zM72.968 51.505a5.914 5.914 0 0 0-.065-.481.428.428 0 0 0 .065.481zm-45.126-1.66a42.863 42.863 0 0 0-.44-.302c-.04.265.195.35.44.302zm19.178 53.612a5.294 5.294 0 0 1-.508-.341c-.075.303.567.806.508.34zm69.323-71.028c.02-.147.06-.294.115-.434-.248.035-.238.25-.115.434zm-37.738 77.048a.875.875 0 0 0-.607-.365c.1.278.335.474.607.365zm44.076-76.34a.665.665 0 0 0 .24-.434.792.792 0 0 0-.24.434zM63.38 28.512c.096-.001.148-.135.097-.215s-.164-.103-.255-.076a.297.297 0 0 0 .158.291zm-.16-.292h.002v-.01l-.002.01zm61.734 10.33l-.133-.354c-.014.163.04.28.133.354zM47.57 104.48a.861.861 0 0 0-.237-.625.936.936 0 0 0 .214.894.313.313 0 0 0 .044-.264l-.02-.005zm58.976-54.936l-.323.518c.217-.072.383-.33.323-.518zM97.72 55.78c.067.2.363.14.55.04l2.384-1.267c.11-.06.21-.247.09-.272a23.143 23.143 0 0 0-3.022 1.499zm-.417.196l-.037-.003a1.018 1.018 0 0 0-.687.219c.168.305.75.133.724-.216zm-30.24 59.02a.628.628 0 0 1-.437.28c-.216.027-.43-.058-.647-.085s-.484.05-.544.26c.537.115 1.144.218 1.6-.087.14-.094.194-.382.027-.368zm60.375-67.493l-.317-.02a3.645 3.645 0 0 0-1.776.392c.745.2 1.565.137 2.26-.202.07-.072-.068-.16-.167-.17zM49.07 108.04a13.588 13.588 0 0 0-.172-1.572c-.524.37-.42 1.324.172 1.572zm-1.25-2.19l-.006.007a.333.333 0 0 0 .229.282 1.265 1.265 0 0 0-.427-1.271 2.44 2.44 0 0 0 .204.982zm76.892-58.32l-.007.01-.985-.15c-.062.29.22.56.51.6s.58-.08.853-.196a.41.41 0 0 0-.372-.266zM99.03 54.233a.23.23 0 0 0-.077-.364l-.262.26-.02.005c.042.144.252.2.36.1zm3.453-1.157c.08.052.18.07.27.043v.004c.144.004.22-.224.104-.308-.17-.058-.37.084-.375.26zm-1.586 1.045a.58.58 0 0 0 .782-.266l.03.01c.113.014.18-.173.083-.233a2.78 2.78 0 0 0-.895.489zm5.77-15.266l-.008.016-.382.265c.173.14.388.233.608.26a.423.423 0 0 0-.218-.542zM43.062 67.42a.722.722 0 0 0-.639-.336l.002.03-.22.222c.24.185.587.218.857.085zm5.984 26.74c-.104.1-.214.212-.244.354s.058.32.204.33c.102.004.186-.07.26-.14l1.444-1.37c.316-.3.65-.783.376-1.12a98.681 98.681 0 0 0-2.039 1.948zm1.053 2.055a27.309 27.309 0 0 0 1.919-1.76c.17-.173.288-.544.048-.585a16.022 16.022 0 0 0-1.82 1.694c-.168.182-.33.483-.147.65zm-4.96-32.266c-.297-.205-.767.182-.62.513l.074-.017a.675.675 0 0 0 .547-.496zm-1.428 1.798c-.072.095-.14.204-.133.322s.116.237.23.208a.322.322 0 0 0 .115-.068l.984-.8c.145-.116.305-.273.27-.455a2.08 2.08 0 0 0-1.466.792zm5.193 27.476c.117-.02.187-.175.124-.274-.235.09-.48.187-.64.38s-.193.517-.001.68l.505-.784h.013zm2.73 5.83a.668.668 0 0 0-.15.215c-.104.285.19.57.18.875a13.71 13.71 0 0 1 2.235-2.766.337.337 0 0 0-.099-.422 25.519 25.519 0 0 0-2.165 2.098zm-1.292-7.915l-1.01 1.144.235.24c.405-.396.78-.824 1.12-1.275.036-.048.074-.102.065-.162-.025-.172-.295-.08-.4.053zM56.542 80.2a3.043 3.043 0 0 1-.805 1.393c-.122.118-.265.278-.197.433.074.17.317.153.492.095a3.556 3.556 0 0 0 1.166-.659l-.67-.104a1.27 1.27 0 0 0 .014-1.158zm-4.572 6.655a4.805 4.805 0 0 0 1.708-2.086l-1.504 1.413c-.19.18-.4.486-.204.673zM44.853 68.15a3.601 3.601 0 0 0 1.184-1.239c-.312.087-.634.177-.884.382s-.413.555-.3.857zM74.7 60.495c-.716.686-.662 1.838-.444 2.806.038.08.17.047.213-.03s.033-.17.054-.257c.048-.197.237-.324.42-.414s.382-.174.494-.343.067-.456-.13-.5c-.05-.094-.202-.104-.264-.02.055.184.04.413-.115.525s-.438-.03-.377-.214a3.438 3.438 0 0 0 .151-1.55zM54.9 98.7l-1.358 1.288c-.092.088-.188.18-.226.302-.274.863-1.136 1.44-1.42 2.3-.08.236-.108.506.008.726s.415.354.627.227a1.19 1.19 0 0 1 1.558.364c.043-.68-.713-1.278-1.366-1.08-.136.042-.268-.11-.263-.255s.098-.264.185-.377a25.027 25.027 0 0 0 2.256-3.494zm12.52-66.546c.086-.174-.23-.246-.413-.185l-5.033 1.677c-.076.172.075.376.256.427s.374-.004.554-.058l2.446-.81a17.767 17.767 0 0 0 2.075-.955c.046-.024.093-.052.115-.097zm-27.803 19.58c.195.01.335-.26.213-.414l-.001.015c-.19-.02-.335.25-.212.4zm-.428-3.68a.706.706 0 0 0-.095-.766l-.193.257.055.038a.34.34 0 0 0 .233.471zm21.22 33.566a9.08 9.08 0 0 0 2.211-.218 5.057 5.057 0 0 0-1.878-.124c-.2.024-.44.182-.333.342zm5.022-2.083c.142-.114.395-.206.467-.04a.598.598 0 0 0 .219-.684L64.23 80.07c-.264.182-.56.495-.396.77l1.605-1.293zm-16.69 7.492c.022-.013.036-.035.05-.057l1.217-1.845a3.923 3.923 0 0 0-1.387 1.603c-.062.13-.004.375.12.3zm-1.675-22.167c.115-.157.15-.36.18-.553.03-.185-.034-.464-.216-.417-.062.017-.105.07-.14.125-.2.298-.318.652-.335 1.012.174.09.397-.01.512-.167zm-.344 3.34c.133-.232.323-.427.5-.618l.627-.64a.246.246 0 0 0-.299-.09c-.192.262-.54.35-.79.552s-.35.682-.047.797zm1.716 2.13l-.068 1 .1.04c.428-.158.405-.908-.03-1.04zm-2.467-5.055l-1.262 1.038c-.202.165-.375.543-.126.623l1.38-1.368c.09-.1.136-.302.008-.293zm6.1-6.26a.411.411 0 0 0 .125-.417l-.223.215.008.001c-.08.08.001.267.1.2zm27.518.2c-.65.06-1.447.02-1.762-.55-.09-.164-.308-.38-.393-.214a1.72 1.72 0 0 0 1.05 1.231 1.722 1.722 0 0 0 1.602-.22c.01-.212-.286-.267-.497-.246zM35.15 35.39l-.003-.018.003.018zM77.68 36.59c.008-.105-.105-.22-.198-.168a.548.548 0 0 0-.604.244.548.548 0 0 0 .087.645l.544-.46c.078-.072.16-.154.17-.26zm-2.21 26.172c-.627.257-.3 1.396-.9 1.73-.567.32-.61 1.267-.078 1.64-.188-.184-.162-.505-.02-.724s.373-.364.59-.51c.51-.345 1.003-.758 1.27-1.313a1.953 1.953 0 0 0-.911.634c-.24-.125-.144-.488-.007-.72s.27-.57.057-.735zm12.035-20.015l-.42-.233a1.683 1.683 0 0 0-.285-.998.319.319 0 0 0-.109-.11c-.132-.067-.292.068-.308.213s.06.284.133.41c.22.38.562.815.99.717zM86.41 61.63a.513.513 0 0 0-.609.371l.375-.116.006-.035c.12.013.237-.1.228-.22zm.535-.188a.847.847 0 0 0 .932-.616.96.96 0 0 0-.932.616zm27.786-28.937c-.008-.136-.097-.253-.18-.36a.194.194 0 0 0-.242.028l.257.505-.075.092c.134.023.246-.127.24-.264zm14.107 13.46l.04-.017a2.757 2.757 0 0 0-.046-.85 1.34 1.34 0 0 0 .007.867zm-50.1-17.008a.664.664 0 0 1 .658.144 1.9 1.9 0 0 0 .023-1.049c-.51-.062-1.028.337-1.097.844.001.166.26.113.416.06zm39.146 8.544l-.427-.815a4.732 4.732 0 0 0-1.107-1.688c-.158.007-.13.252-.047.387l1.498 2.453c.14.037.152-.206.083-.337zm-38.59-12.92l.09-.428a.345.345 0 0 0-.281-.05l-.02-.023c.014.1-.11.143-.2.12s-.168-.083-.26-.085c-.25-.006-.268.425-.047.543s.49.02.72-.077zm6.816 44.52a.363.363 0 0 0-.392.238l-.025.02a.418.418 0 0 0 .417-.259zm-9.624-41.5l.187.326a4.952 4.952 0 0 0 1.35-1.875c.05-.123.095-.257.063-.385s-.177-.235-.297-.18c-.184.083-.192.445-.4.41-.098-.327-.025-.687-.12-1.013s-.51-.61-.77-.386l.05.254a.448.448 0 0 1 .581.197c-.152-.112-.368.082-.366.27s.127.348.216.514a1.47 1.47 0 0 1-.506 1.868zm-2.572 32.605a.696.696 0 0 0 .377-.273l-.008-.025c.275-.104.387-.498.207-.73-.44.08-.735.608-.576 1.027zm.77 6.125c.005.35.073.792.41.884a2.467 2.467 0 0 0 .016-1.774l-.463.872.036.018zm1.46-4.753c-.12-.035-.19.14-.15.257l-.014.024c.137.023.252-.172.165-.28zm5.753 9.192a9.077 9.077 0 0 0-.663 2.776c-.006.088-.01.183.04.255.124.178.42.028.508-.173s.083-.443.226-.607.516-.074.444.133a.939.939 0 0 0 .084.787l.326-1.81c.06-.324.113-.67-.02-.974-.335.178-.383.624-.484 1s-.474.763-.8.57c.245-.623.49-1.294.34-1.945zm-5.303-9.184a.882.882 0 0 0-.147-1.067c-.187.154-.17.44-.134.68l-.017.006a.751.751 0 0 0 .298.381zm3 8.58c-.294.712-.82 1.3-1.336 1.87.21.107.27.375.366.59s.355.424.548.285c.33-.237-.266-.82-.01-1.14a5.403 5.403 0 0 0 1.137-2.719c-.404.197-.533.698-.704 1.113zm-.13-1.62l-1.47 1.967.095-1.995c-.204.006-.3.252-.335.454a7.82 7.82 0 0 0 .021 2.725c.472-1.11 1.643-1.945 1.688-3.15zm2.506-.504a17.632 17.632 0 0 0-1.928 5.65c-.032.203-.046.445.114.574.33-.26.364-.742.405-1.164.18-1.877 1.054-3.608 1.938-5.275-.113-.204-.415.008-.53.215zm-26.713-3.2c.46-.465.96-1.1.726-1.7-.11.13-.265.27-.422.2l-.147-.562a5.727 5.727 0 0 0-.385 1.904c-.002.092.026.215.118.213.043-.001.08-.034.1-.065zm.2-1.233c.112-.02.164.186.055.218l.016.02a.14.14 0 0 1-.208-.067c-.026-.085.05-.18.137-.172zm21.998 3.467c-.037-.12-.218-.137-.315-.056s-.13.212-.158.334c-.05.226-.083.51.104.646.212.154.5-.018.703-.185s.402-.517.174-.648l-.437.3c-.15.007-.03-.246-.07-.39zm7.926 2.67c.14.082.346-.056.32-.215h.004c-.12-.107-.316.054-.325.215zm-7.658-45.347l.052.001a.294.294 0 0 0-.284-.294l-.026.35c.068.083.228.048.258-.056zM33.03 34.07v.845l.03.046c.296-.192.4-.63.22-.936a.292.292 0 0 0-.25.045zm39.984 53.912a.944.944 0 0 0-.149-.646l-.006-.033c-.247.17-.14.635.155.68zm7.368 1.588c.054-.232.07-.475.042-.712-.083-.073-.265.013-.197.1l.012.013c-.053.22-.067.52.143.598zm-50.92-52.338c-.03.184.123.406.305.363a.756.756 0 0 1 .108-.56l.026-.024-.125-.23c-.136.127-.282.267-.314.452zm1.34-5.703c.156-.26.16-.638-.074-.83l-.553.773c-.143.2-.265.52-.055.647.258-.16.526-.33.682-.59zm-4.9 7.67c-.122-.028-.318.04-.25.145.085.142.357-.026.268-.167l-.017.022zm54.304 51.786c.128.167-.186.298-.365.4-.27.166-.282.543-.266.86a.47.47 0 0 0 .056.24c.118.182.428.106.535-.08s.077-.42.045-.635l.03-.088c.175-.124.365-.276.38-.488s-.3-.4-.416-.22zM91.23 36.75a.704.704 0 0 0-.077.759.53.53 0 0 0 .112-.764l-.035.005zm4.087-4.698l-.006.014a.419.419 0 0 0 .423.004c.043-.21-.265-.286-.476-.266-.08.067-.044.225.06.248zM79.083 87.193a.954.954 0 0 0 .348.652l.094.057a.75.75 0 0 0-.442-.709zm15.172-53.45c.14.03.296-.058.342-.193l-.02-.006c-.118-.105-.316.04-.32.2zm-70.252-1.87a2.372 2.372 0 0 0-.427-1.221l.048.83c.012.23.21.547.38.392zm19.174.358c.072-.097.16-.188.192-.305s-.03-.27-.15-.28c-.426.797-.76 1.645-1 2.52-.057.215-.093.48.078.624.673-.62.324-1.822.87-2.558zM87.39 36.76l-.012-.048c-.036-.125-.217-.182-.317-.1.168.262.38.496.627.688a.4.4 0 0 0-.298-.54zm-44.564-6.334a.411.411 0 0 0-.327.058.673.673 0 0 0-.219.288 1.687 1.687 0 0 0 .186 1.678l.36-2.024zm-.757 10.547a.714.714 0 0 0-.047.144c.05-.036.06-.09.047-.144zm-4.445-6.713c-.115-.005-.16.192-.052.234l.002-.01c.13.07.197-.234.05-.224zm-.952 4.084l.473-.16a.283.283 0 0 0-.047-.253c-.158-.03-.388-.008-.39.152l.02.006a.17.17 0 0 0-.058.255zm-1.525-2.973l.407-.134c-.052-.22-.45-.077-.407.134zm3.513-3.223l.15-.792c.016-.08.028-.166-.014-.233s-.165-.08-.192-.006l.052.025a.758.758 0 0 0 .005 1.006zm-12.545-.284l.05-.01a.334.334 0 0 0-.048-.261.319.319 0 0 0-.266.049v.428c.124.066.297-.068.265-.205zm-1.492-.505l-.038-.034.216-.213c-.09-.158-.357-.102-.45.056s-.065.354-.034.536l.306-.345zm17.36 3.89c-.044-.1-.237-.006-.183.09l-.038.002c.024.147.3.028.22-.09zm-2.607-3.56c.13-.032.227-.143.302-.254a2.55 2.55 0 0 0 .449-1.393l-1.037 1.452c-.01.134.155.226.286.195zm2.188 3.22a1.294 1.294 0 0 0-.009-.701.582.582 0 0 0-.207.542h-.042c-.094.135.18.304.258.16zM93.77 71.793a1.834 1.834 0 0 0-.963-1.398 1.82 1.82 0 0 0 .963 1.398zM54.208 70.42c.19.01.324-.265.194-.407l.014-.048c-.22-.034-.378.308-.208.455zm67.703-24.736a.29.29 0 0 0-.163-.246c-.156-.065-.26.25-.097.29v.003c.1.02.188.002.262-.048zm-1.794-.842l.043.025a.477.477 0 0 0 .016-.498c-.175.077-.2.356-.06.473zm-7.926-7.948l.04.29.064.006c-.04.165.158.332.315.268.105-.262-.14-.6-.42-.565zM54.69 68.724c.17-.608.333-1.3.01-1.842a4.9 4.9 0 0 0-.305 2.312.511.511 0 0 0 .161-.146c.07-.095.103-.21.135-.324zm71.37-30.828c.368.582-.717.973-1.106.654l1.13 3.015a2.575 2.575 0 0 1-1.423-1.643L124.265 43l2.64 1.07c.317.573-.75.815-1.38.637-.458-.128-1.125.125-1.26.435-.834-2.73-.836-5.7.002-8.44a1.89 1.89 0 0 0 1.767.766c-.11-1.284-2.192-1.752-2.846-.642a2.814 2.814 0 0 1 .954-2.222c-.81.136-1.597-.757-1.46-1.466-.506.396-1.642-.002-2.258-.554l-7.7-6.903a.129.129 0 0 0-.044-.108.392.392 0 0 0-.084-.008l-4.117-3.7c-.42 4.316 7.865 5.88 6.96 10.122l1.584-.89c.213.502.394 1.164-.016 1.526-.22.195-.52.015-.664-.204-.095.658.143 1.364.64 1.807l1.257-2.46-.414 3.516 1.42-1.384a7.257 7.257 0 0 0-.404 4.267c.176.825 1.61 1.46 1.535.62a3.32 3.32 0 0 1-.854 2.713 60.336 60.336 0 0 1-7.866-13.744c-.73.363-.757 1.597-.044 1.99a3.016 3.016 0 0 1-2.137 1.225l1.45-1.5-1.656.147a2.332 2.332 0 0 1 1.382-1.448c-.694-1.73-2.418-3-4.275-3.15 1.034-.516 1.327-2.1.55-2.944a143.474 143.474 0 0 1-15.89 3.597 2.418 2.418 0 0 0-.378-1.693 12.626 12.626 0 0 0-4.292 4.782 2.586 2.586 0 0 0-1.996-.844 16.671 16.671 0 0 0-8.219-6.06 1.93 1.93 0 0 1 .393 2.214 4.2 4.2 0 0 1 3.224.058 3.72 3.72 0 0 1-.617 3.014l-.1-1.895-.827 2.746c.72-.723 1.98-.814 2.795-.204a32.693 32.693 0 0 0-2.686 2.683l-1.45-2.084-1.71.648 1.396 5.4a10.768 10.768 0 0 1 2.753-4.315 1.95 1.95 0 0 1-.346 2.467l1.436-.518c-.144.653-.373 1.41-1.002 1.636s-1.353-.784-.758-1.087c-.958.403-1.44 1.67-.992 2.607l1.487-.595a16.866 16.866 0 0 0-.894 7.232l1.007-2.43a13.312 13.312 0 0 1-2.275 6.405c2.916.32 5.9-.103 8.622-1.22a6.556 6.556 0 0 1 .027-3.642l4.47-4.527a7.29 7.29 0 0 0-1.215 5.835l-1.847-1.394c1.546 1.2 1.293 4.014-.44 4.92 2.698 2.045 1.827 7.108-1.4 8.134-.027-.713.616-1.372 1.322-1.397-2.343-.06-4.73-.1-6.965.592-2.282.707-4.424 2.323-5.113 4.6a2.78 2.78 0 0 1 1.246 2.412 7.703 7.703 0 0 0 1.495-3.593c1.068 2.198 4 3.022 6.324 2.24s4.02-2.814 5.07-5.02l.68 5.86.727-3.51c.997 5.633-6.66 9.092-7.943 14.667a30.88 30.88 0 0 1 6.943-4.066l-1.393 3.17c-.857 1.952-1.814 4.022-3.626 5.146l-.677-2.398a130.077 130.077 0 0 0-1.033 12.794 8730.996 8730.996 0 0 0-3.467-4.946l3.24 6.402c-2.627-1.486-4.026-4.852-3.23-7.764l-1.482.617.99-2.287-2.166.35 1.135-2.042-1.384.605c-1.996-3.375-1.068-8.175 2.045-10.56.55-.423-.78-.617-1.2-.058a4.976 4.976 0 0 0 .726-3.597 13.952 13.952 0 0 1-2.752 5.878l-.388 3.79a122.805 122.805 0 0 1-1.735-15.935 4.77 4.77 0 0 0 1.43 1.832 16.598 16.598 0 0 1 .765-6.29 8.014 8.014 0 0 1-.104 3.78c1.105-1.54 1.07-3.802-.087-5.305.01.625-.02 1.34-.5 1.736-.33.27-.892.137-1.128-.155a6.428 6.428 0 0 1-1.396 4.651 2.525 2.525 0 0 1 .796-2.558 2.606 2.606 0 0 1-1.319-1.889 25.814 25.814 0 0 0-.01 8.919 21.397 21.397 0 0 0-2.036-5.692 85.928 85.928 0 0 1 3.891 21.527l-.936 1.483c.45-.687 1.622-.392 2.02.324s.262 1.6.113 2.405a1.715 1.715 0 0 1-1.311-.991c-.058.955-1.35 1.407-2.22 1.013s-1.387-1.292-1.844-2.133l-.804-1.476a3.48 3.48 0 0 0-1.619 3.727 23.088 23.088 0 0 1-7.452 1.522c1.53-.932 2.324-2.928 1.85-4.654a4.821 4.821 0 0 0-3.437 2.229 3.435 3.435 0 0 1 3.246-.707l-1 .94a1.05 1.05 0 0 0-.96.461l.04.105a1.22 1.22 0 0 0 .461-.128l-8.13 7.738a15.19 15.19 0 0 1 7.795-10.958 4.39 4.39 0 0 0-3.763.696l2.38-3.777c-4.448 1.908-5.76 7.467-6.5 12.25l.396-3.673a28.007 28.007 0 0 1-3.39 8.228 10.284 10.284 0 0 1 5.041-3.058c-.146.728-.926 1.264-1.657 1.14a20.297 20.297 0 0 0 6.463 11.469l-.77 2.062-1.437 1.966c.1-.326-.035-.748-.368-.87-.467-.174-1.023.347-.88.824-2.96-.197-5.322-3.418-4.623-6.3l1.845 3.044 1.428-.984c-1.205.416-2.645-.75-2.49-2.015l2.59-3.068a8.776 8.776 0 0 0-2.792 2.804l-2.918-5.446a11.774 11.774 0 0 0 3.358-2.964 6.715 6.715 0 0 1-3.797 1.983l-2.116-16.89a7.46 7.46 0 0 1 1.746 3.677 13.471 13.471 0 0 0-1.109-4.882l1.644 1.237c-1.213-3.986-6.587-6.645-5.9-10.64l-.56 2.764a24.056 24.056 0 0 1-2.293-7.033 13.07 13.07 0 0 0 .035 4.936c-.918-.02-1.11-1.27-1.253-2.178s-1.305-1.893-1.79-1.114c.445-.682.944-1.33 1.5-1.936-.032.507.33 1.017.824 1.143a1.41 1.41 0 0 0-.576-.867l-.03-.02c.006-.13-.052-.3-.157-.323a16.057 16.057 0 0 1 6.76-4.414l-.716 3.513c.355 1.364 2.485 1.785 3.333.658 1.96 1.32 5.006.498 6.04-1.626l2.174 2.336c-.377-3.913-4.253-7.14-8.17-6.803-2.588.223-5.54 1.668-7.524-.01-1.364-1.153-1.41-3.34-.592-4.93s2.29-2.72 3.717-3.797l8.102-6.12.242-1.783a6.263 6.263 0 0 0 3.216-2.364 4.476 4.476 0 0 0-3.153 1.452l3.88-9.142.216-1.71.837 1.856c2.212-1.003 5.1-.083 6.337 2.012-.474-.634-1.7-.275-1.758.515l2.908-.06c-.02 1.167 1.066 2.143 2.222 2.304s2.315-.33 3.266-1.007a8.63 8.63 0 0 0 2.354-2.549c.18.065.422-.05.452-.25a.33.33 0 0 0-.277-.054c.436-.8.752-1.646.92-2.533l-3.65 4.608a13.518 13.518 0 0 1 5.233-6.606l-.754 3.942 1.675-2.13-.074-2.134c.702.214 1.535-.23 1.746-.934-4.148 1.544-8.738.83-13.146.448s-9.252-.275-12.697 2.502c-1.398 1.128-2.5 2.656-4.107 3.462s-4.038.447-4.545-1.276l-8.87-2.033c-3.72-.853-7.564-1.7-11.32-1.04s-7.445 3.268-8.167 7.017c-1.322 6.867-7 11.92-12.348 16.43 2.07 2.805 6.495 3.493 9.32 1.445 1.485-1.076 2.47-2.714 3.865-3.903s3.612-1.835 5.01-.647c1.66 1.412 4.032 1.94 6.133 1.364a6.51 6.51 0 0 0 1.871 3.329 9.106 9.106 0 0 1-1.154-2.672c.6-.182 1.1-.662 1.308-1.253.308.475.63 1.01.535 1.568s-.87.973-1.246.55c-.106.54.462.96.967 1.182s1.107.505 1.172 1.053c.034.28-.235.475-.493.524L33.5 53.73c-1.888 5.24-1.897 11.135-.026 16.38 1.52 1.812 1.458 4.75-.135 6.497a49.466 49.466 0 0 1 6.236 7.037c1.487 2.044 2.838 4.25 3.423 6.708.548 2.3.395 4.726.715 7.08.292 2.147 1.1 4.396 2.81 5.68.016-.065.062-.12.155-.156.533-.2.996.4 1.24.925 1.14 2.4 2.314 4.852 4.182 6.74 1.62 1.64 3.885 2.804 6.15 2.71l-2.698.346a44.8 44.8 0 0 0 16.091.695l-10.72-.263 12.108-1.05c.533-.047 1.09-.1 1.545-.38.86-.525 1.09-1.646 1.595-2.52.37-.64 1.192-1.15 1.838-1.056-.083-.214-.1-.477-.016-.684.194-.48.628-.885.634-1.403.005-.365-.452-.625-.736-.568a62.16 62.16 0 0 0 7.042-9.976c-1.15-.69-.942-2.405-.512-3.677a34.165 34.165 0 0 1 9.876-14.707l-1.812-2.854a1.8 1.8 0 0 0 .374-2.458l-.643 1.868c-.536-.697-.424-1.807.24-2.384l1.816.36c-1.24-.34-1.933-1.866-1.8-3.187.142-1.418.933-2.67 1.54-3.96a16.43 16.43 0 0 0 .801-11.804c.698 1.75 3.9 1.253 4.048-.626 2.754.648 5.782-.7 7.374-2.995a.375.375 0 0 1-.11.02.576.576 0 0 1 .326-.673l.013.01a.24.24 0 0 1 .095.126 6.28 6.28 0 0 0 .584-1.409c.272-.993 1.366-1.468 2.303-1.892a18.365 18.365 0 0 0 7.296-5.975c.113 3.598 2.943 6.93 6.474 7.624a7.903 7.903 0 0 1-4.587-3.965l3.787.68a8.07 8.07 0 0 1-1.548-3.558l.534-4.536c.03.2.104.387.24.545.277.326.862.225 1.105-.05l-.658 5.317c-.068.552-.098 1.206.33 1.56.176.146.422.133.625.04-.163 1.247 1.277 2.65 2.642 2.357 1.623-.35 2.53-2.228 2.377-3.88-.156-1.645-1.087-3.107-1.993-4.5zm-.817 4.89a.749.749 0 0 1-.479-.169l.15-1.08c.323.317.455.816.328 1.25zM110 23.618c.036-.13.233-.094.34-.01.253.2.405.522.403.845a1.12 1.12 0 0 1-.742-.835zm9.628 13.886a.43.43 0 0 1-.26-.373h.002a1.44 1.44 0 0 1 .404-.698 1.23 1.23 0 0 1-.146 1.071zm-.04-1.733a1.687 1.687 0 0 1 .234-1.244.254.254 0 0 1 .069.279l.022.012c-.113.178-.002.406.023.616s-.192.477-.348.337zM76.97 29.565l.026-.054c.234-.001.356.32.26.534s-.32.338-.528.447c.02-.32.103-.637.24-.927zm-.192 2.44c-.085-.15-.048-.34.027-.498.17-.353.523-.613.9-.67a8.04 8.04 0 0 1-.937 1.167zm1.92 2.327l-.006-.015c-.123.033-.09-.223.035-.21s.19.155.23.276c-.065.087-.228.056-.258-.05zm-.375 21.276l1.062-.84c.378-.298.783-.643.85-1.12a.75.75 0 0 1-.011.959L78.692 56.3a.636.636 0 0 1-.368-.702zm1.45 1.894c-.02.167-.303.157-.38.008s-.02-.332.04-.5a1.02 1.02 0 0 1 .357.486l-.016-.004zm.926-2.31a.473.473 0 0 1-.19.482l-.02.035a.508.508 0 0 1-.517.45 1.88 1.88 0 0 1 .727-.967zm-.4 2.343l.046-.02a.353.353 0 0 1 .378-.237c.053.213-.26.404-.424.257zm1.04-.59c-.14.1-.307.195-.472.146-.2-.057-.275-.294-.232-.49s.18-.353.308-.502l.823-.942c.2-.23.416-.47.705-.572a1.09 1.09 0 0 1 .396-.054c.237.01.486.09.63.28s.135.5-.06.635a1.422 1.422 0 0 0-.456-.538 4.876 4.876 0 0 1-1.643 2.036zm.83 1.253v-.013a.788.788 0 0 1-.48-.282l.69-.037c.104.125-.046.326-.2.332zm2.003-.22a.547.547 0 0 1-.474.179c.053-.135.117-.284.25-.342s.33.058.283.194l-.06-.03zm.513-2.8c-.09.604-.228 1.284-.75 1.6-.198.12-.432.17-.66.22l-1.167.25c.142-.58.945-.647 1.397-1.04.518-.45.602-1.374 1.26-1.57l-.08.536zm1.22-.19a.437.437 0 0 1-.146.474.717.717 0 0 1-.364-.266l.37-.578c.152-.02.176.215.133.364l.006.006zm-12.95 13.146l-.007-.067a.775.775 0 0 1 .138-.705c.23.21.155.65-.13.772zM53.15 80.134a.374.374 0 0 1 .47.062l-.27.27-.01-.014-.32.14a.373.373 0 0 1 .128-.457zM52.493 90.9l-.026.022c.033.174-.18.34-.34.26a1.21 1.21 0 0 1 .278-.695c.166.046.222.303.088.412zm3.915 7.528l-.324-.083.008-.05c-.237.058-.49-.2-.438-.43l.81.287a.401.401 0 0 1-.055.277zm-9.05-40.02a.89.89 0 0 1-.543-.122l-.02.024-.275-.167a.458.458 0 0 1 .547-.271.455.455 0 0 1 .292.536zm2.6-3.388l.46.478a.55.55 0 0 1-.533.531l.01-.1a.816.816 0 0 1 .064-.91zm-.29 2.724c.098.114.285-.025.316-.172s.007-.317.1-.427c.068-.072.17-.093.262-.13.48-.195.604-.806.66-1.322.3.415.46.93.445 1.443l-1.447.934c-.16.103-.367.207-.526.105l.18-.43zm-.56-1.565c-.066-.2-.09-.49.1-.555l.032.026a.572.572 0 0 1-.142.529zm-.21 1.066c-.086-.133-.028-.33.1-.404.214.03.105.42-.1.404zm.327-2.116l.018-.002a.525.525 0 0 1-.131.422.625.625 0 0 1-.354-.263c-.01-.222.343-.34.467-.157zm-.722 4.367a3.796 3.796 0 0 1 1.45-.329 1.295 1.295 0 0 1-1.513.541.16.16 0 0 1 .063-.212zm-.256-2.264l.168.91-.043.08c-.313-.21-.377-.71-.125-1zM47.02 55.7l-.01-.055c.265-.072.5-.244.65-.473.193.288.036.743-.294.85a.517.517 0 0 1 .2.387 3.827 3.827 0 0 0-.937-.319.483.483 0 0 1 .389-.389zm-1.08-.912c.208-.25.725-.16.734.165-.3.183-.55.444-.722.75-.16-.283-.22-.667-.012-.915zm-.83.27c.087-.006.15.105.115.187s-.135.118-.224.106c-.058-.103 0-.247.11-.293zm-.02 3.222a.759.759 0 0 1-.867-.555l-.022-.003.06-.236a.925.925 0 0 1 .829.794zm-1.242-2.4c.348.224.533.673.444 1.077a.599.599 0 0 1-.292-.646l-.04-.023c-.152-.06-.213-.28-.112-.408zm-5.52.066c.043-.1.237-.007.183.09l.038.003c-.023.146-.31.027-.22-.092zm-.394-1.332c.165.067.178.293.158.47l.003.001a.422.422 0 0 1-.16.267.506.506 0 0 1-.001-.738zm35.574-31.563c.172-.032.3.26.133.336l.008.022-.137.376-.26-.263c.042-.176.132-.34.257-.47zm-1.595.186c.104.2.106.43.012.625l-.045-.025a.4.4 0 0 1 .033-.6zm-2.194.05c.15-.02.275.107.37.226.105.137.2.298.19.47s-.24.315-.374.205a.716.716 0 0 0-.238-.567l-.004-.028c-.15-.02-.093-.29.058-.306zm-14.857 1.69c-.14-.104-.192-.288-.208-.46a1.518 1.518 0 0 1 .043-.528l.4.587-.005.004.212.315c-.064.16-.303.187-.442.083zm9.586 6.3c-.133-.045-.163-.26-.045-.34l-.022-.03c-.1-.128-.116-.422.04-.362.204.18.218.536.026.73zm1.514-.584l-.01.007a.58.58 0 0 1-.041-.588l.47.27c.08.217-.232.45-.42.312zm.042-1.017l.017.022c.122-.028.318.04.253.144-.087.143-.36-.025-.27-.166zm.327-.297c-.098-.148-.008-.422.164-.375l-.007.01c.188.038.033.344-.157.366zm2.767-4.23c.017.476.03.96-.09 1.42s-.404.9-.838 1.1l.077-.68a1.36 1.36 0 0 0 .505-1.357l-.583.607c-.178-.116-.072-.392.05-.567l.643-.926c.172 0 .23.23.238.404zm-2.392-2.22c.144-.01.293-.02.432.02.44.134.562.7.607 1.148a1.7 1.7 0 0 1 .605-.651l.493.42a1.46 1.46 0 0 0-1.065 1.411c.006.233-.18.418-.33.598a2.43 2.43 0 0 0-.542 1.808.794.794 0 0 1 .903.475.794.794 0 0 1-.364.954.78.78 0 0 1-.836-.747c.004-.35.226-.774-.04-1a.237.237 0 0 1-.34.027c.184-.425.238-.905.157-1.36-.1-.5.047-1.04.366-1.437a.71.71 0 0 1-.016.945c-.137.138.117.37.292.287s.233-.3.27-.49c.084-.426.17-.87.067-1.29s-.44-.82-.876-.84c-.2-.01-.396.06-.598.073s-.433-.06-.505-.25l1.32-.097zm1.16 4.064a.624.624 0 0 1-.421.322l-.03.005c-.064-.232.253-.462.452-.327zm-3.008-3.324l.23-.225c.194.273-.02.725-.353.75a.465.465 0 0 1 .136-.509l-.014-.016zm.222 2.98c.196-.187.396-.438.325-.7-.107-.392-.215-.81-.095-1.197s.56-.705.932-.537l-.135.437-.89 2.843c-.08.26-.53.094-.543-.176s.21-.485.405-.67zm-2.27-3.12l-.007-.013a2.8 2.8 0 0 0 .679-.581c.145-.02.097.225-.01.326l-.76.704a.29.29 0 0 1 .097-.436zm-.85 1.72a.98.98 0 0 1 .253-1.18c.27.083.346.43.317.7s-.11.578.012.83.584.312.642.036l.168-.815c.028-.135.064-.283.178-.362s.32-.007.303.13c-.097.01-.125.15-.074.234s.143.13.216.196c.2.18.223.5.166.752s-.178.5-.222.776c-.073.458.1.947.467 1.243s.872.387 1.307.23a.36.36 0 0 1 .449.229 1.693 1.693 0 0 1-.338.777 1.943 1.943 0 0 1-1.187-.122 2.465 2.465 0 0 0-1.492-.156.262.262 0 0 1-.114.34.26.26 0 0 1-.339-.114c.2-.053.295-.362.143-.515a.518.518 0 0 1 .407-.273.892.892 0 0 1-.139-.396c-.264.208-.634-.108-.758-.42a2.08 2.08 0 0 1-.114-1.131c-.348.02-.43.52-.292.84s.396.62.358.966a.79.79 0 0 1-.548-1.024 1.29 1.29 0 0 1-1.503-.602c-.05-.094-.07-.24.03-.28.523-.205.625-.887.645-1.45.302.123.33.53.318.856s.05.74.366.82c.397-.19.58-.735.375-1.128zm-.25-2.138a1.362 1.362 0 0 1-.106.47c-.08.19-.22.377-.42.435s-.456-.068-.472-.275l.998-.63zm-3.412.93c.21-.125.544-.063.606.172.276-.124.596-.042.888.04l.93.263c-.494.528-1.34.44-2.052.307a4.188 4.188 0 0 1-.788-.197c.1-.223.208-.46.417-.585zm-.358 1.06l.003-.008.316.316a.375.375 0 0 1-.155.255c-.185-.037-.392-.108-.46-.284s.16-.408.297-.28zm-.703-1.36l.036.028c.088.142-.203.295-.27.142l.235-.17zm-.35 1.666l.016.02c-.07.053-.185.014-.2-.068s.052-.177.14-.17c.11-.023.164.184.055.22zm-.054-.894c-.163.257-.46.46-.76.4s-.5-.467-.293-.69c.16-.174.438-.147.67-.106.217.037.502.21.384.397zm-.616-1.173a.21.21 0 0 1-.123.216.267.267 0 0 0-.382-.036.433.433 0 0 1-.042.483 2.909 2.909 0 0 1-.456-1.201c.38.07.735.26 1.003.538zm-1.095.136l-.04.025a.535.535 0 0 1-.7.226.5.5 0 0 1 .741-.251zM43.17 71.655a.23.23 0 0 1-.322-.215c.122-.104.315.054.322.215zm-.544 2.315c-.063.09-.237 0-.2-.104v-.001a.496.496 0 0 1-.159-.374.54.54 0 0 1 .359.479zm-.546-3.532l-.028.008a.816.816 0 0 1 .465.775.734.734 0 0 1-.569-.661c-.004-.08.085-.19.132-.122zm-.166 1.112c.033-.12.197-.182.302-.112a.957.957 0 0 1-.056.482.43.43 0 0 1-.264-.374l.018.004zm-.182 2.065l-.214-.32.012-.017a.326.326 0 0 1-.174-.286c.318-.104.617.393.376.624zm-.125 8.087c-.07.113-.246.032-.337-.066a2.202 2.202 0 0 1-.275-.355c-.194-.312-.22-.853.14-.922.177.44.334.89.473 1.343zm-.367-1.653c-.105.022-.193-.075-.254-.163a13.116 13.116 0 0 1-1.481-2.803 3.23 3.23 0 0 1 1.735 2.966zm-2.085-6.394c.163-.146.467.072.384.272l-.02-.002a.756.756 0 0 1-.365-.27zm1.337 1.097l-.02-.094a.867.867 0 0 1 0-.645c.325.077.34.644.02.74zm.072-7.058c-.078.125-.274.075-.402 0a2.584 2.584 0 0 1-1.09-1.298l1.307.925c.125.088.266.242.185.373zm-1.8-4.698a5.34 5.34 0 0 1 .321 2.61c-.286-.132-.35-.5-.38-.814l-.186-2.065c.127.016.2.15.245.27zm.12 6.992a1.31 1.31 0 0 1-.188 1.315.963.963 0 0 1 .01-.824l.05-.01a.354.354 0 0 1 .127-.482zm-.72-4.638a.874.874 0 0 1 .444.811l-.002.132c-.39-.092-.62-.587-.442-.943zm-2.063-2.772c.07-.086.253.01.19.1l.003.003a.553.553 0 0 1-.041.371.415.415 0 0 1-.151-.473zM35.35 45.57l-.002.012c.02.12-.04.31-.15.253-.02-.15-.04-.3.023-.45s.24-.235.372-.156a.547.547 0 0 1-.244.34zm1.37-12.12c.282.185.17.634-.056.882s-.544.437-.65.756c-.073.216-.07.512-.283.592-.262.1-.49-.267-.77-.27-.258-.003-.41.29-.46.545s-.08.55-.295.695a.432.432 0 0 1-.598-.151c-.098-.393.187-.768.453-1.073l.812-.93c.08-.1.193-.188.3-.14.298.137.66.04.923-.154s.446-.477.623-.752zm.062-.383l.007-.006c.07.132.02.375-.122.325-.075-.128-.024-.37.115-.32zm-1.1 3.852c-.043-.1.128-.193.188-.106-.027.2-.107.372-.228.52a.265.265 0 0 1 .053-.375l-.013-.04zm-.34-.642c-.08.177-.283.324-.462.25s-.14-.422.05-.397l.003-.054a.54.54 0 0 1 .408.2zM34.2 38.4a.467.467 0 0 0 .196.517l-.23.522-.157-.884c-.015-.082-.025-.178.035-.237s.195.012.15.082h.008zm-.097 4.366c.006-.11 0-.224.055-.317s.2-.144.272-.064l-.524 2.116c-.04.158-.16.36-.307.294-.122-.157-.076-.385-.007-.57.18-.487.484-.942.51-1.458zm.545 14.458c-.104.046-.173-.11-.18-.226l-.05-1.188a1.01 1.01 0 0 1 .228 1.414zm.437-18.21c.512.024.904-.646.632-1.08a1.17 1.17 0 0 1 .663.304.45.45 0 0 1 .343-.47l-.424-.426.282-.467c-.16.277.196.558.48.706s.58.53.335.736c-.288-.002-.4.353-.503.625s-.4.568-.62.38c.11-.342.122-.715.034-1.064-.233.46-.522.893-.857 1.286-.244.286-.6.573-.955.45l.6-.98zm1.653 1.29c.057-.153.277-.214.404-.112.018.428-.174.86-.502 1.133a1.011 1.011 0 0 1 .116-1.002l-.018-.02zm-1.342 2.892l.844-1.304a1.6 1.6 0 0 1-.004.836c-.104.373-.56.735-.84.468zm.438 2.972l-.003-.027.27.06a.49.49 0 0 1-.279.47c-.188-.093-.18-.42.013-.502zm.455 2.147l-.002.006c.02.19-.25.334-.396.2a1.056 1.056 0 0 1 .133-.813c.216.1.336.37.265.597zm.027-1.154l-.048.23c-.232-.018-.32-.394-.12-.513l.186.256-.018.026zm-.18-1.11a.435.435 0 0 1 .222-.31l-.001-.006c.16-.202.55-.1.59.156a1.68 1.68 0 0 1-.812.16zm1.292 7.874c-.067.105-.226.16-.318.075a.294.294 0 0 1-.074-.153 1.704 1.704 0 0 1 .135-1.164c.283.165.32.553.323.88.002.125.001.258-.066.36zm-.323-5.222l.08-.923c.02-.23.208-.546.392-.404.06.047.08.13.088.208a1.21 1.21 0 0 1-.56 1.119zm.82-1.4c-.153.067-.254-.25-.09-.284l-.006-.004c.14-.016.218.217.097.288zm-.068-3.11c-.19.263-.48.428-.763.586-.148-.2.016-.538.264-.545l-.007-.027.55-.914c.202.252.145.64-.044.9zm.012-1.893a.802.802 0 0 0-.731.431c-.132-.4.33-.857.73-.718a.736.736 0 0 1 .648-.382.65.65 0 0 1-.647.669zm.383 3.326a.286.286 0 0 1-.141-.355.282.282 0 0 1 .351-.151l.01-.002c.205-.025.508.052.456.25-.065.25-.516.058-.676.257zm1.258-1.693c-.14.068-.33-.038-.347-.192-.015-.135.083-.254.175-.354.36-.396.732-.786 1.11-1.165.165.214.29.46.36.72a2.313 2.313 0 0 0-1.3.991zm.153-5.09l.428.548c.075.097.155.216.116.33s-.26.118-.248-.003l-.027.018c-.324-.142-.46-.598-.27-.894zm1.02 2.357c-.083-.065-.046-.225.057-.248l-.015-.032.257-.167c.18.168-.063.508-.3.447zm.738 2.652c-.123-.001-.19-.167-.142-.28s.162-.184.27-.247a.502.502 0 0 1-.141.505l.014.023zm1.745-1.642c-.042-.243.147-.59.357-.463l.052-.067c.226.232-.13.7-.41.53zm3.337-2.542l-.636.583c-.226.207-.572.422-.81.225a.588.588 0 0 1-.611.493c-.147-.246-.03-.573.167-.78s.456-.343.666-.54c.35-.326.542-.8.915-1.1s1.086-.257 1.173.213c-.245.337-.556.622-.865.905zm.628-7.133a.52.52 0 0 1-.028.742 36.856 36.856 0 0 1-.045-.467l.015-.003a.326.326 0 0 1 .058-.272zm2.102 4.874a.43.43 0 0 1-.266-.376l-.02.002c-.01-.143.236-.164.3-.04s.026.28-.024.415zM49 35.528a.622.622 0 0 1 .168-.761l.557 1.046a.621.621 0 0 1-.725-.285zm3.343-6.38c-.143.384-.464.677-.64 1.045-.318.66-.257 1.625-.934 1.898-.57.23-.642.986-.944 1.52-.375.664-1.2 1.11-1.242 1.87a5.226 5.226 0 0 1-.75 2.417c-.162.076-.355-.08-.39-.255s.042-.35.115-.515l.592-1.312a1.539 1.539 0 0 0-.757.786c-.236-.756.283-1.526.8-2.126s1.1-1.284 1.012-2.072c-.02-.186.224-.263.396-.34.696-.316.553-1.356.947-2.012.167-.28.44-.49.573-.788.218-.482.058-1.15.472-1.482a.367.367 0 0 0 .324.398c.408.028.57.584.426.967zm-3.95 3.083a.76.76 0 0 1-.111-1.052c.16-.07.284.245.12.303l-.02.003.012.746zm-.12-4.107c.06-.086.18.028.216.127l.514 1.427a.592.592 0 0 1-.373-.636c-.15.14-.375-.106-.365-.312s.1-.427.008-.606zm.822 2.368a.56.56 0 0 1-.18-.702.538.538 0 0 0 .284.333c.013-.338.493-.4.827-.33a.52.52 0 0 1 .153-.5c.167-.01.28.194.245.357s-.162.288-.282.4c-.364.342-.73.687-1.157.945-.07.042-.15.084-.233.075-.175-.02-.238-.274-.134-.416s.3-.177.477-.162zm3.42-3.138c-.17.113-.378.236-.39.44-.212-.098-.263-.43-.09-.586l.01-.005c.065-.148.136-.304.268-.397s.347-.1.43.048c.103.175-.063.388-.232.5zm.35-3.646a2.17 2.17 0 0 1 .239.461 2.46 2.46 0 0 1 1.088-.701l-.21.293c-.308.426-.627.862-1.07 1.146l-.673-1.207c.208.028.42.03.627.008zm-1.752 1.013l.243.43a.39.39 0 0 0 .298-.412 4.17 4.17 0 0 1 1.154.698 2.132 2.132 0 0 0-1.064.996 1.673 1.673 0 0 1-.631-1.713zm-.822.294a1.24 1.24 0 0 1 .528.619c.035.086.056.188.006.266s-.198.075-.212-.016l-.025.038-.316-.248a.322.322 0 0 1-.391.163l.4-.822zm-1.04 1.026l-.004-.063c.25.075.358.43.194.634a.32.32 0 0 1-.441-.17c-.056-.17.073-.378.25-.4zm.9.81a.9.9 0 0 1 .544-.169 2.065 2.065 0 0 0-.407.967l1.284-1.025c-.038.858-1.272 1.342-1.203 2.198.01.117.037.257-.053.334-.12.048-.236-.093-.255-.222s.005-.27-.064-.38c-.12-.195-.412-.145-.637-.1s-.546-.005-.558-.235c.665-.014.81-.98 1.35-1.37zm-2.256.217c.146-.23.4-.367.64-.494a.225.225 0 0 1 .159.199c.006.087-.04.168-.085.24a4.423 4.423 0 0 1-.627.788c-.228-.153-.233-.504-.087-.734zm-.067 2.65a.78.78 0 0 1-.004-1.207c.008.493.333.967.79 1.155-.04.637-.62 1.08-1.114 1.485s-.994 1-.804 1.6a4.304 4.304 0 0 1-.387 3.409c-.346.594-.835 1.362-.377 1.876a1.46 1.46 0 0 1-1.104.6c-.426.27-.747.68-1.042 1.1a19.24 19.24 0 0 0-1.378 2.221c-.188-.24-.65-.12-.7.18-.046.124-.255.04-.275-.088s.06-.25.096-.377c.047-.16.023-.334.046-.5s.12-.346.284-.372c.106-.018.207.076.23.17a.833.833 0 0 1 .825-.483c-.3-.367.086-.887.447-1.192 1.084-.92 2.29-2.06 2.157-3.476l1.06-1.38c-.344-1.296-.604-2.898.4-3.786.325-.286.782-.508.85-.935zm-4.8 6.696c-.11-.01-.187-.14-.146-.242s.188-.14.273-.07l-.023.023c.073.097.014.262-.104.3zm1.074-.175c.122-.145.255-.297.438-.345s.42.07.416.26c-.001.106-.074.197-.143.277l-1.8 2.112c-.282.33-.633.692-1.066.662a.441.441 0 0 1-.183.382c-.196.076-.332-.245-.224-.425s.32-.27.458-.43l2.105-2.49zm.001-1.554l.1-.056a1.24 1.24 0 0 1-.236.848.563.563 0 0 1 .146-.792zm1.244.742a1.83 1.83 0 0 1 .418-.832.697.697 0 0 1-.353.859l-.065-.027zm.354-5.423c.272-.54.585-1.06.932-1.554-.023.66-.283 1.286-.54 1.896-.05.118-.122.253-.25.27-.256.03-.26-.38-.143-.61zm-5.28-2.12l-.022.004c.06.134.017.38-.114.314-.05-.082-.104-.176-.08-.27s.177-.138.215-.05zm-11.607-2.098a.41.41 0 0 1-.404-.159l-.001-.004a.873.873 0 0 1-.18-.675c.37.073.643.466.585.838zm-3.342-1.245l.034-.02c.127-.02.323.048.263.162a.511.511 0 0 1-.662-.225.306.306 0 0 1 .365.082zm-1.71 1.698c.85-.622 2.007-.548 3.057-.446l9.983.972 1.295 1.57a1.146 1.146 0 0 0-.526-1.302c1.223-.152 1.936 1.827 3.155 1.647.646-.095 1.03.98.472 1.316a1.574 1.574 0 0 0-1.051-1.002c.486.817.65 1.82.452 2.748l.59-.372.632 2.55c.515-.183.46-.936.234-1.434s-.518-1.11-.186-1.542a.954.954 0 0 0-.012-1.145 1.8 1.8 0 0 0 1.662.103c-.11.27-.224.574-.12.848s.54.404.686.15c-.172.277.162.644.488.63s.592-.252.828-.48a6.25 6.25 0 0 1-1.623 2.864l.415-2.152c-.67.676-.833 1.683-1.1 2.597s-.8 1.897-1.72 2.102c.235.284.136.775-.2.946a5.388 5.388 0 0 1-.092-1.83 3.618 3.618 0 0 0-1.783 2.69c-.335-1.295.178-2.77 1.248-3.574.375-.283-.167-.925-.612-.772s-.638.665-.77 1.115c-.565-.028-.465-.91-.152-1.38s.557-1.282.016-1.455a7.4 7.4 0 0 0-.802 3.397c.001.16.022.348.157.436.116.074.303-.042.288-.155.278.686-.7 1.506-1.32 1.062l.755-.552a2.917 2.917 0 0 1-.18-1.248l-.53.662a2.07 2.07 0 0 0-.874-.485c.08-.27.538-.294.646-.035l.49-2.39c.02-.104.04-.222-.022-.307-.153-.21-.683-.298-.464-.438l.544.13.152-1.947a3.65 3.65 0 0 0-.868 1.208c-.25.104-.45-.288-.333-.533s.38-.38.563-.58.247-.58.006-.702a.764.764 0 0 1 .736-.061c.153-.098.1-.355-.05-.455s-.35-.088-.53-.072l-2.286.2a2.081 2.081 0 0 1-1.518-1.146.57.57 0 0 0-.422.607l.78.23c-.134.556-.854.805-1.393.615s-.915-.682-1.193-1.182c-.33.37-.937.446-1.35.172a1.02 1.02 0 0 1-.21.776 1.68 1.68 0 0 1-.206-1.36 2.487 2.487 0 0 0-2.44-.119c-.224.114-.597.2-.64-.05-.128-.766-1.127-1.11-1.86-.848s-1.24.915-1.708 1.536a2.23 2.23 0 0 1 .809-2.334zm11.88 4.822c.117.164.244.398.102.54a.367.367 0 0 1-.298-.332l-.02.001-.588-.583c.082-.283.49-.252.77-.16-.173.103-.084.37.034.532zm-2.823-.645c.287.094.538.29.7.545a.562.562 0 0 0 .414-.533c.096-.02.2 0 .282.053-.096.05-.122.195-.05.275a.48.48 0 0 1 .396-.004 2.051 2.051 0 0 1-1.617 1.6 3.205 3.205 0 0 0-.124-1.936zm-1.817 4.055c-.06.054-.126.11-.206.12-.157.014-.263-.162-.28-.317s.015-.32-.048-.463c-.07-.156-.235-.248-.314-.397s.04-.406.193-.332a1.86 1.86 0 0 0 .331.514c.133-.3.787-.197.78-.534-.01-.713.345-1.375.69-2 .08-.145.29-.3.375-.158a2.146 2.146 0 0 1-.839 2c.27.552-.227 1.155-.682 1.568zm-2.772-1.99a3.305 3.305 0 0 0-1.461 1.551c-.2-.34.022-.774.294-1.06s.613-.55.696-.935a.933.933 0 0 1 1.013-.699c-.165.194-.416.3-.583.49s-.194.557.04.653zm-1.516 1.693a.371.371 0 0 1-.154.259c-.093-.02-.147-.145-.098-.228s.184-.094.248-.02l.004-.01zm1.7-5.593a.404.404 0 0 1-.155.262c-.208-.13-.208-.488-.001-.618.167-.05.277.245.125.33l.03.025zm.4-.155a.37.37 0 0 1 .176.108.683.683 0 0 1 .129.292c.11.46.137.937.11 1.4-.376-.54-.76-1.25-.416-1.8zm-3.704.062l.515-.16a.413.413 0 0 1 .243.302c.045.247.32.396.57.4s.48-.13.702-.25c.31.167.183.67-.098.88s-.654.3-.9.53c-.15.142-.41-.035-.446-.237s.047-.407.055-.613a.863.863 0 0 0-.631-.845zm.044 1.877c-.327-.01-.662-.125-.88-.367s-.292-.628-.12-.907c.13-.213.37-.33.6-.436l.114.482.287 1.228zm-1.848-.685c.27-.076.514.194.625.453s.192.564.44.7c.13-.185.41-.042.613.062s.568-.006.462-.207a.232.232 0 0 1-.19-.201c.388-.25.794.315 1.24.44.337.096.687-.078.994-.247.204-.112.428-.247.49-.472.026-.1.018-.21.067-.3s.2-.132.25-.042c.218.304.086.794-.255.947-.36.16-.522.57-.7.917s-.534.7-.917.604c.196.225-.01.595-.282.716.07-.158-.026-.35-.17-.442s-.323-.113-.495-.13c-.185-.018-.438.016-.456.202-.073.738-1.025.987-1.513 1.547l-2.018 2.315c-.128.147-.37.297-.5.142-.072-.09-.032-.223.012-.33l.45-1.13c.196.118.437-.2.31-.365l.45-.22a1.676 1.676 0 0 0-.527-1.756c.455-.29.73-.844.688-1.382.39.238.673.65.754 1.1a.699.699 0 0 1-.7.203c-.144-.04-.247.178-.17.306s.24.172.386.207c-.135.15-.076.424.108.504a.463.463 0 0 1 .271-.584c.342-.116.44-.563.372-.917s-.243-.692-.233-1.052c.01-.323-.4-.53-.708-.43s-.505.4-.628.7-.2.622-.38.9c-.15.22-.374.487-.228.71a3.24 3.24 0 0 1 .524 1.7l-.013-.013c-.05.156-.28.18-.408.08s-.182-.265-.227-.42l-.426-1.47c-.075-.258-.15-.53-.095-.792.14-.64.23-1.292.276-1.948.077.33.578.317.846.11s.46-.533.785-.635c.267-.084.56.006.83-.07zm1.212 12.308a.363.363 0 0 1-.156.367.85.85 0 0 1-.003-.629c.12-.026.195.146.15.262h.008zm-.266-3.327l-.032.04a.7.7 0 0 1-.049-1.01c.175.287.206.657.08.97zm-1.002-1.743l-.16.26c-.084.015-.17-.07-.158-.153l.008.001a.349.349 0 0 1 .048-.263.42.42 0 0 1 .262.156zm-.412 3.716c-.136.038-.256-.172-.153-.27.13-.11.307.19.146.25l.007.02zm-.392-1.384c-.144-.185.065-.507.292-.45l-.044.287-.01.014-.24.15zm-.512-1.345c-.137.053-.278-.16-.175-.266h.007c.133-.033.255.16.168.266zM20.2 41.55c.09-.01.17.09.146.175s-.148.124-.218.067l.02-.016c-.095-.05-.053-.223.053-.226zm-.007-5.42c-.094-.105-.065-.294.055-.368l.003-.005c-.032-.103.142-.2.205-.1l-.263.474zm.223-7.622a.392.392 0 0 1-.182-.467.394.394 0 0 1 .438-.243.405.405 0 0 1-.098.364l-.016-.003a.323.323 0 0 1-.142.349zm1.235-1.428c.264-.015.5.358.29.52-.097-.102-.28-.03-.355.086s-.093.266-.153.393a.61.61 0 0 1-.666.318c-.044-.302.114-.594.282-.85.146-.22.34-.452.603-.467zm-1.192-1.015c.268-.03.523.24.482.506l-.048.195-.075.042-.726-.15c-.095-.252.1-.566.367-.594zm-.423 5.28c-.144.45-.368.967-.107 1.36.15.228.306.464.363.73s0 .58-.214.75a3.249 3.249 0 0 0-.794-1.782c-.262-.297.338-.774.133-1.112a.883.883 0 0 1 .26-1.153c.46.108.505.755.36 1.205zm-1.262 2.262c-.03-.147.16-.265.306-.22s.237.184.3.32a2 2 0 0 1 .153 1.195.49.49 0 0 1-.669.335 1.43 1.43 0 0 0-.091-1.63zm-.162 3.58a.618.618 0 0 1 .191-.765c.097.062.077.238-.032.277l-.014.018a.43.43 0 0 1-.145.47zm-.75-10.457l.382.166a.4.4 0 0 1-.273.242l-.02.013a.262.262 0 0 1-.339.175c.05-.2.134-.412.25-.596zm-.486 4.124l.023.365c-.067.1-.245.01-.22-.1v-.007c-.03-.133.07-.325.186-.257zm.01 1.004c.038.102-.137.2-.198.1a.545.545 0 0 1 .043-.364c.12-.03.197.144.153.26l.002.004zm-2.405-.747a2.274 2.274 0 0 1 1.359-.473.415.415 0 0 1-.316.259c.16.162-.062.42-.276.497s-.49.162-.507.388a.36.36 0 0 1-.487-.387c.034-.118.13-.208.227-.284zm.4 6.732v.03a.378.378 0 0 1-.432.335.404.404 0 0 1 .432-.365zm-2.155-2.76a.3.3 0 0 1-.028.488l.03.04c-.103.1-.3-.043-.28-.192s.156-.253.28-.337zm-.395 5.483a.538.538 0 0 1-.364.389l-.017.03c-.03-.214.165-.43.38-.42zm-3.77 3.938c.065-.135.32-.138.33.01l-.037.004-.22.4c-.072-.13-.137-.29-.072-.424zm-3.376.544l-.14.312.003.012a.425.425 0 0 1-.168.484c-.097-.18-.196-.38-.154-.582s.3-.357.458-.226zM3.863 48.7a2.342 2.342 0 0 1-1.134-.994.51.51 0 0 1-.084-.238c-.005-.19.19-.344.383-.345s.367.114.5.25c.332.344.464.867.336 1.326zm.716.303l-.475-.26a.698.698 0 0 1 .266-.366c.134.035.303.13.26.262l.008-.006a.23.23 0 0 1-.06.37zm.056-1.857c-.082.104-.204.203-.333.174-.16-.036-.213-.237-.205-.4a1.27 1.27 0 0 1 .47-.91c.05-.04.11-.076.172-.07.116.01.166.15.176.265.03.334-.073.678-.28.94zm1.152 2.047l.001-.018a2.246 2.246 0 0 1-.634-.555 1.216 1.216 0 0 1 1.379.111.617.617 0 0 1-.746.462zm8.72-8.202c-.065-.148-.298-.14-.408-.02s-.128.294-.142.454L13.87 42.5l-.375-.312-2.532 2.86c-.443.502-.89 1.005-1.397 1.444-.856.743-1.888 1.304-2.583 2.2-.373-.197-.214-.768.034-1.11s.547-.793.306-1.14c.144-.087.335.075.34.243s-.102.316-.204.45c.01.162.236.226.376.147s.213-.236.285-.38c.828-1.654 2.642-2.594 3.647-4.146.276-.425.513-.917.96-1.158.193-.103.422-.156.572-.317s.134-.492-.08-.533a20.136 20.136 0 0 0 2.423-2.285 1.53 1.53 0 0 1-.401 1.573c-.3.288-.79.545-.733.966zm1.277 2.357c-.14.044-.304-.086-.292-.233s.197-.248.327-.18a.648.648 0 0 1-.041.374l.006.038zm-.62-1.637c-.315-.58.2-1.413.86-1.388a2.676 2.676 0 0 0-.86 1.388zM15.238 36a.98.98 0 0 1 .663-.862l.142.13a1.21 1.21 0 0 1-.805.731zm.82 2.1l.75-.958.47 1.247c.08.208.14.482-.033.62l-.47-.994a.375.375 0 0 1-.315.402.375.375 0 0 1-.4-.318zm.35.547l.383.67.142.024-.245.757a1.275 1.275 0 0 1-.28-1.45zm.67 2.822a.742.742 0 0 0 .109.703c-.054.194-.347.182-.506.06-.437-.336-.287-1.16.24-1.32.268-.082.65.132.545.39-.105-.137-.328.005-.39.167zm.3-4.648c-.172.074-.4-.166-.268-.308l-.013-.02-.133-.355c.188-.004.392.05.503.2s.085.408-.09.48zm.204-.87c-.035-.03-.046-.082-.052-.13a2.595 2.595 0 0 1-.017-.279l-.015-.54c-.003-.106-.003-.223.063-.305s.225-.1.263.008l.01.958c.001.16-.128.395-.25.287zm.415-5.076c-.17-.128-.19-.39-.103-.584s.257-.34.42-.477a.272.272 0 0 0 .369.03 1.056 1.056 0 0 1 .645-1.114l-.207 1.578a.996.996 0 0 0-1.124.567zm.374 3.1l-.006-.013c-.038-.102.137-.19.198-.102a.575.575 0 0 1-.043.368c-.122.007-.215-.152-.15-.253zm.195 7.73l-.008-.03c-.12-.413.498-.795.814-.505l-.012.56-.794-.026zm.994.8c-.065.13-.204.203-.334.267-.17-.155-.04-.5.2-.505v-.1c.144.01.208.208.144.34zm1.5 2.9c-.095.04-.203.006-.3-.034a2.061 2.061 0 0 1-1.143-1.229 5.52 5.52 0 0 1 1.225.543c.135.08.272.175.338.317s.025.345-.12.403zm2.295-3.275a2.56 2.56 0 0 0-.244 1.669c-.524-.065-1.167-.235-1.27-.753.547-.085.44-1.055.947-1.28a.528.528 0 0 0-.171-.41 1.47 1.47 0 0 0-.911 1.016c-.274.014-.338-.39-.247-.65.163-.457.498-.85.92-1.087.114.297.418.467.664.67s.46.542.31.824zm.118-3.034c.093-.005.2.033.228.123s-.097.2-.16.123l-.008.012c-.094-.043-.125-.18-.06-.258zm.07 1.746l-.027-.008.05-.275c.234-.038.426.224.413.46s-.16.44-.303.63a.969.969 0 0 1-.134-.805zm.323 3.04l-.02.017-.001-.345a.86.86 0 0 1 .734.36.49.49 0 0 1-.712-.032zM24.1 36.2c.384-.505-.185-1.43.335-1.792.126.18.4.236.586.122a.454.454 0 0 0 .156-.578c-.12-.225.227-.4.48-.422a1.82 1.82 0 0 1 .174 1.901c.015-.186-.267-.256-.417-.147s-.2.3-.308.456a1.03 1.03 0 0 1-1.007.46zm.87 1.313a2.57 2.57 0 0 1 .833-1.145c.625-.484 1.085-1.146 1.535-1.797.233-.34.468-.68.627-1.058.2-.476.462-.925.778-1.333a.606.606 0 0 0 .366.672 1.927 1.927 0 0 0-.298-1.326l1.06-.81c.084-.063.176-.142.18-.247.02-.46.572-.673 1.022-.77l.207 1.526a1.51 1.51 0 0 1-1.002 1.587c.105-.158-.214-.3-.348-.164s-.12.353-.163.538-.228.384-.396.292c-.146-.08-.3.063-.415.193-.22.273-.446.555-.556.89s-.082.74.163.992l.12-.3c.19-.48.43-1.012.913-1.19a5.07 5.07 0 0 1-.447 1.418c-.138.287-.326.58-.624.688l.09.563c-.232-.106-.456.14-.647.307s-.6.188-.597-.065c.005-.39.354-.67.596-.976s.328-.853-.03-1.01l-.9 1.395c-.1.152-.207.312-.366.402a3.16 3.16 0 0 0-1.119 1.061c-.088.14-.196.302-.36.3-.263-.002-.302-.388-.212-.634zm1.93.502a.46.46 0 0 1-.506-.134c.08-.28.252-.533.484-.7a.77.77 0 0 1-.01.844h.032zm.383.57a1.147 1.147 0 0 1-.368-.556l-.012-.014c.266.004.488.322.38.57zm-1.374 5.034c-.08-.076.01-.26.1-.195l.004-.024.262.054c-.07.128-.228.214-.366.165zm.193-1.053c-.286.09-.384.435-.464.723s-.262.625-.56.613c-.077-.88.764-1.52 1.4-2.144a.215.215 0 0 1 .218.125.87.87 0 0 1-.583.683zm.426-2.94c-.608.414-.462 1.453-1.056 1.888-.11.08-.27.13-.375.046-.1-.072-.095-.207-.086-.322.03-.386.137-.763.245-1.135l.46-1.604c.044-.153.184-.346.316-.255.24.165.488.34.624.596s.11.622-.13.786zm.323.832l.005-.025c-.088.006-.147-.11-.11-.188s.136-.114.223-.104c.07.13.02.37-.12.317zm1.624 4.498c-.117-.458-.38-.945-.84-1.05l.182-.332a2.2 2.2 0 0 1 .828 1.125c.256-.237.628-.342.97-.276-.397.493-.4 1.26-.01 1.756.12.15-.044.394-.236.404s-.36-.13-.47-.287c-.27-.388-.308-.883-.424-1.34zm.456-4.248c.312.065.54.4.487.714a.492.492 0 0 0-.456.079.302.302 0 0 1-.162-.252l.027.033a.407.407 0 0 0 .104-.574zm2.162-.343c.172.116.177.4.01.532l.014.033c-.04.123-.2.183-.317.1.01-.25.117-.497.294-.675zm-.132-1.915c.15-.326.463-.545.78-.715a.159.159 0 0 1 .03.075c.005.05-.012.1-.03.147l-.522 1.432c-.323-.158-.407-.613-.257-.94zm-.293 9.68a.553.553 0 0 1-.394-.26c-.218-.354-.032-.8.155-1.18.498.265.625 1.03.24 1.44zm-.773-4.07l-.047.035c-.034.12-.196.183-.302.116a.473.473 0 0 1 .169-.28l.18.13zm.078-4.57l.008-.027a.552.552 0 0 1 .717-.224 2.211 2.211 0 0 1-.774.693c-.2-.073-.15-.415.05-.442zm-.995 9.426l.71.64.01.008a.353.353 0 0 1 .233.407 1.237 1.237 0 0 1-.954-1.054zm1.462-4.356c.1.33.097.688-.007 1.016-.06.2-.3.396-.423.25a.275.275 0 0 1-.055-.156 1.23 1.23 0 0 1 .485-1.109zm.738 5.63a2.346 2.346 0 0 1-.665-.652c-.24-.355-.38-.77-.515-1.177.544.257.877.8 1.178 1.33.094.162.166.41.002.5zm.534-1.074a.279.279 0 0 1-.272-.268.28.28 0 0 1 .271-.267v.006a.627.627 0 0 1 .002.529zm.314-7.793c.162.432.08.946-.21 1.304a1.08 1.08 0 0 1 .211-1.304zm.1 6.102c-.093.006-.2-.033-.228-.122s.098-.2.162-.123l.01-.01c.09.04.124.18.057.256zm.64 5.075a3.707 3.707 0 0 1-.594-2.033c.002-.21.14-.494.328-.407a26.38 26.38 0 0 1 .197 1.634c.36.1.43.58.426.954-.105.107-.277-.023-.357-.148zm-.002-4.54c.1.142 0 .406-.168.363l.03-.026c-.147-.103-.028-.406.137-.337zm-.065-2.67c.044.246-.412.272-.5.04s.063-.482.21-.684l.037-.017c-.012-.277.35-.49.587-.347a1.136 1.136 0 0 0-.332 1.009zm.588-1.975c-.493.136-1.05-.317-1.018-.827l.786.38c.18.087.386.318.232.447zm-.758-3.288a.43.43 0 0 1 .136.653l-.018-.008a3.067 3.067 0 0 1-.118-.645zm.298-3.372c-.11-.037-.138.15-.107.263a2.064 2.064 0 0 1-.265 1.668.55.55 0 0 1 .062-.828c-.408-.386-.346-1.15.12-1.466.254-.174.444-.44.524-.736.11.22.218.46.182.704s-.28.473-.515.395zm.362-1.342l-.822-.607a5.658 5.658 0 0 1-2.006 2.978c-.36.275-.79.564-.846 1.015-.054.458-.554.707-.995.837s-.95.268-1.15.682c-.207.112-.304-.284-.173-.48s.316-.47.138-.62a.82.82 0 0 1 .629-.286 1.14 1.14 0 0 1 .277-1.041 1.43 1.43 0 0 1 .119 1.27c.266-.203.53-.42.69-.715s.194-.678-.002-.95l-.29.528-.63-.44c1.392-.505 2.176-2.26 1.622-3.633.562.398.785 1.2.506 1.84-.15.335-.422.72-.22 1.026a2.08 2.08 0 0 0 .942-1.738 2.49 2.49 0 0 0 1.592-1.717c.388.197.946.354 1.185-.01.326-.497.683-1.022 1.23-1.254s1.33-.002 1.446.582a.963.963 0 0 1-1.064.269l-1.196 1.495c-.29.362-.586.73-.984.968zm.654 21.656a18.122 18.122 0 0 1-.4 3.83l-.164-1.983a2.638 2.638 0 0 1 .564-1.847zm.02 6.786c.09.15-.113.353-.282.3s-.25-.26-.217-.435.143-.323.252-.462c.14.174.2.407.165.626l.082-.03zm-.844.932l-.02.003c-.01-.143.236-.164.3-.043s.025.28-.025.416a.43.43 0 0 1-.265-.376zm.5 2.933a.525.525 0 0 1-.292-.646l-.048-.02a.414.414 0 0 1-.001-.423 1.34 1.34 0 0 1 .341 1.088zm.414 1.44l-.013.001c-.37-.13-.51-.674-.25-.968l.506 1.032c-.07.078-.223.036-.244-.065zm.24-22.906c-.106.18-.422.025-.433-.185s.153-.383.305-.528l.09.024.06.448c.01.08.02.17-.022.24zm.232 21.91a.2.2 0 0 1 .289.113l.01-.008c-.045.167-.37.054-.3-.105zm.332-1.587a1.355 1.355 0 0 1-.384-1.248.97.97 0 0 1 .435.932l.056.017-.107.3zm-.08-24.963l-.026.025c-.055-.103.045-.235.162-.256s.23.03.338.08a28.86 28.86 0 0 0-.474.151zm.637 21.75c-.154.032-.206-.27-.05-.286l-.007.025c.094.044.124.183.057.26zM35.446 78l.033-.084c.35.1.66.323.84.634a.858.858 0 0 1-.874-.55zm1.132-12.942c-.143.044-.256-.126-.303-.268a3.51 3.51 0 0 1-.154-1.516c.177-.12.37.136.416.346a3.76 3.76 0 0 1 .041 1.438zm.846 10.66c-.04.094-.205.12-.236.023a2.872 2.872 0 0 1-.398-1.765l.597 1.444c.04.096.078.203.037.298zm.294-4.656c-.115.02-.206-.146-.128-.235l-.027-.024c.135-.093.3.184.155.26zm-.104-1.67c-.19-.145-.174-.48.026-.61l.008-.056a.44.44 0 0 1-.034.665zm.416 2.366c.598.03 1.144.51 1.247 1.103a2.377 2.377 0 0 1-.999-.469c-.194-.155-.375-.42-.248-.634zm.62 4.428c.206.108.42.228.545.424s.113.5-.084.624l-.3-.37.043-.083c-.26-.028-.4-.417-.194-.595zm1.643 4.585c-.138-.063-.243-.18-.34-.298a4.33 4.33 0 0 1-.959-2.815 14.658 14.658 0 0 1 1.529 3.079c-.04.076-.153.07-.23.034zm.162.9A3.2 3.2 0 0 1 42.13 83.9a7.905 7.905 0 0 1-1.676-2.249zm2.47 1.95a7.891 7.891 0 0 1-.768-3.432c.34.028.5.428.575.762.157.692.283 1.392.375 2.095.03.215.02.494-.182.575zm.272 2.117a2.323 2.323 0 0 1-.207-1.186c.48.388.745 1.028.676 1.643-.222-.043-.373-.252-.47-.457zm.62-10.823a2.043 2.043 0 0 1-.333-.92l-.006-.01c-.098-.054-.114-.2-.032-.283.414.22.6.797.37 1.212zm-.106-4.026c.354.288.588.72.636 1.176a1.732 1.732 0 0 1-.636-1.176zm1.234 28.393a.758.758 0 0 1-.392-.746l.037-.003a.597.597 0 0 1 .355.749zm.046-1.385a.284.284 0 0 1-.247-.063c-.09-.08-.12-.208-.13-.326a1.393 1.393 0 0 1 .207-.84 1.16 1.16 0 0 1 .169 1.229zm.666.658c-.21-.03-.354-.292-.26-.484.097-.124.283.05.31.205l.003.001-.054.278zm.3-8.97a.69.69 0 0 1-.347-.805l.028-.094c.283.2.42.574.32.9zm31.036-11.226l.03.008a.682.682 0 0 1-.145.631.248.248 0 0 1-.248-.04.508.508 0 0 1 .363-.599zm-2.526-.083c.134.03.298.127.258.258h-.002a.531.531 0 0 1-.261.568c-.278-.176-.275-.653.005-.826zm-4.816 3.11h-.036c.024.138-.134.27-.263.222l-.102-.71a.75.75 0 0 1 .401.487zm-2.517-2.343c.25-.074.52.27.353.47-.106.128.05.336.215.335s.3-.14.4-.27.193-.28.345-.352c.143.16.296.388.183.57a.43.43 0 0 1-.124.124 2.263 2.263 0 0 1-1.31.442c.215-.21.055-.65-.246-.676-.15-.2-.067-.57.183-.644zm7.958 9.303c-.29-.257-.49-.603-.68-.94l-1.246-2.2c-.09-.16-.305-.192-.488-.174s-.372.068-.543.007-.29-.307-.152-.432c.02-.02.046-.033.07-.048.42-.225 1.02-.302 1.303.082.192.262.148.63.27.93.215.528.894.76 1.088 1.294a3.544 3.544 0 0 0 1.455 1.788c-.376.106-.785-.05-1.077-.307zm.69 1.748l-.23-.787.027-.083a.474.474 0 0 1 .444.355.472.472 0 0 1-.24.515zm-.9-.787c.154.262.305.532.37.83.17.78-.267 1.548-.687 2.227-.145.233-.314.485-.58.557-.304.08-.61-.107-.925-.125-.246-.013-.484.08-.714.17-1.01.4-2.04.814-2.855 1.532-.126.11-.26.235-.428.245-.326.02-.503-.434-.358-.727s.47-.443.77-.573l1.533-.667c.9-.39 1.813-.787 2.786-.916.196-.026.16-.322.07-.5l-1.206-2.33c-.17-.33-.35-.67-.654-.884-.407-.285-1.042-.36-1.188-.836a1.01 1.01 0 0 0-1.285-.613 1.427 1.427 0 0 0-.55-1.531c-.385.3-.86.48-1.346.512.075.18.153.38.095.567s-.325.306-.456.16c.22-.094.187-.465-.025-.574s-.487-.002-.64.184-.214.427-.27.66a2.259 2.259 0 0 1-1.418-1.587 11.64 11.64 0 0 0 4.879-.208c.445-.115.924-.256 1.347-.076.21.1.38.25.542.41a19.913 19.913 0 0 1 3.192 4.093zm-1.272 6.7a.59.59 0 0 1-.423.621.687.687 0 0 1 .407-.711l.016.1zm-3.743 7.02c.108-.177.175-.38.19-.6a1.83 1.83 0 0 1-.668-.004c.063-.385.655-.54.9-.235s-.03.847-.422.83zm1.236-.574c.084.04.14.13.146.222.006.085-.03.166-.064.243-.366.804-.8 1.57-1.32 2.288-.156-.007-.15-.24-.1-.383.352-.837.8-1.635 1.33-2.37zm-1.552-3.956c.085-.076.284-.007.218.086l.014.008-.2 1c-.212.007-.25-.31-.16-.503s.24-.406.137-.592zm.255 2.48l-.048.035c-.03.12-.196.183-.3.114a.468.468 0 0 1 .168-.278l.18.13zm-.02-.68c.3-.356.797-.742 1.17-.465l-.28.287-.013-.015c-.243.2-.575.264-.876.193zm-1.75 4.773c.336.23.882-.07.866-.476.158.306-.052.71-.37.837s-.693.024-.974-.175c-.135-.1-.263-.285-.16-.42.156-.2.43.088.64.233zm-.127-.8c.118-.48.43-.915.847-1.183-.147.486-.327.963-.538 1.424-.02.046-.046.096-.1.12-.156.09-.262-.185-.22-.36zm-.27-.65c-.15.258-.225.565-.426.785s-.622.285-.768.024l1.63-2.17c.166-.224.342-.454.594-.572.118-.056.312-.04.314.1.02.78-.945 1.172-1.344 1.844zm-2.49-.3a.462.462 0 0 0-.462-.198c.183.894-.6 1.757-1.48 1.995a2.71 2.71 0 0 1-.781.094l1.185-2.102c.148-.26.313-.537.588-.657.176-.077.398-.1.517-.24s-.103-.446-.22-.293c.117-.243.41-.353.68-.35s.528.098.8.158c.56.13 1.157.1 1.708-.055a24.442 24.442 0 0 1-1.75 2.523c-.142.177-.295.362-.506.45s-.497.037-.6-.166a4.74 4.74 0 0 0 1.51-2.498 2.224 2.224 0 0 0-1.178 1.342zm-.782 5.39c.205-.054.433.237.264.365l-.033-.043c-.2.104-.41.152-.626.143.083-.195.19-.413.395-.465zm-.598-.943a.393.393 0 0 1 .539-.081.382.382 0 0 1-.539.081zm-2.215-5.064c-.152.182-.212.435-.4.6a.435.435 0 0 0-.308-.285 8.33 8.33 0 0 1-.471 1.693c-.137.347-.307.696-.595.934-.642.53-1.594.325-2.388.073a.716.716 0 0 0 .475-.724c.103-.04.207.094.184.203s-.118.187-.207.253l.167.293.7-.18c.144-.036.306-.09.366-.226.056-.128-.004-.272-.026-.41-.072-.455.275-.854.56-1.216s.537-.87.282-1.254a4.972 4.972 0 0 1 1.964-.288 3.294 3.294 0 0 0 1.538-.295c.1.25-.197.466-.44.578s-.53.354-.406.592c.16.306-.042.67-.237.954l-1.127 1.644c-.145.208-.456.43-.608.226l1.48-2.836c.053-.103.107-.22.073-.327-.075-.226-.43-.175-.585.007zm-.477-3.183a.318.318 0 0 1-.364-.192c0-.103.06-.2.146-.252.195-.01.333.263.2.415l.008.03zm-.176 1.398c.085-.062.203-.035.303-.005l1.35.397c-.498.41-1.332.3-1.717-.208a.174.174 0 0 1 .065-.184zm5.5-10.662c-.098.1-.3-.025-.26-.156.126-.017.313.044.26.156zm-.107-3.063l.024-.043a.449.449 0 0 1 .124.621c-.247-.04-.346-.424-.148-.578zm.246 10.047a.406.406 0 0 1-.028.513h.002a1.634 1.634 0 0 1-.502.575 1.154 1.154 0 0 1 .528-1.089zm-.31 3.614c.283.024.563.128.843.09.39-.053.873-.337 1.105-.02.04.077-.04.163-.118.2-.298.156-.652.148-.988.137l-1.544-.056c.08-.273.42-.375.702-.352zm3.4-8.41c-.14.14-.402-.047-.396-.247s.164-.357.31-.494l.172.323-.067.023c.042.13.08.296-.02.395zm-.743-4.062l-.04.01c.063-.198.355-.276.51-.137-.035.182-.293.177-.47.126zm.15 1.77l.08-.078c.154.245-.147.615-.42.514a.888.888 0 0 1 .341-.436zm-1.1-3.122l-.006-.005a.845.845 0 0 1-.85.151c.17-.214.473-.248.733-.325s.546-.286.498-.555a.654.654 0 0 1 .437.279 1.041 1.041 0 0 1-.812.455zm.74 13.303l.263.265c-.047.122-.23.163-.323.07s-.057-.276.064-.325l-.004-.01zm-.762-1.21c-.022.146-.31.027-.22-.092.044-.102.237-.006.183.09l.038.003zm-.683-10.68c.057-.048.12-.1.195-.095s.134.107.077.154l.02.013-.423.538c-.226-.105-.055-.446.132-.6zm.23 7.388l-.04-.044a.528.528 0 0 1 .064-.649.618.618 0 0 1-.025.693zm-.33 3.554a.32.32 0 0 1 .035.558l.05.114-.433.215c-.096-.18-.164-.392-.1-.587s.263-.36.457-.3zm-1.997-9.782c.07-.54.233-1.07.477-1.56a1.674 1.674 0 0 1-.477 1.561zm.162 10.093c.1.015.19.032.25.1s.05.203-.04.225a4.457 4.457 0 0 0-1.42.085c-.323.07-.586-.42-.348-.648l1.56.237zm-.895 1.286a1.8 1.8 0 0 1-1.809.317 2.715 2.715 0 0 1 1.809-.317zm-2.43 8.336c.16.033.292.15.45.195.426.114 1-.3 1.26.065a2.628 2.628 0 0 1-2.361-.062c.2-.122.423-.248.65-.198zm.7-1.377l.055-.03a.866.866 0 0 1 .966-.04.93.93 0 0 1-1.021.071zm8.214-16.36l-.266.048a.658.658 0 0 1 .265-.367c.124.045.12.258-.003.3l.004.02zm-.112-2.867l-.03.012a.15.15 0 0 1-.211.163l.148-.375a.12.12 0 0 1 .094.2zm.204 1.288c.028-.09.136-.127.23-.123.077.07.04.227-.062.254l-.007-.008c-.063.07-.19-.033-.16-.123zm-3.992-6.415a2.04 2.04 0 0 1 .844-.549l.002-.038.288.076a1.01 1.01 0 0 1-1.134.511zm1-1.67l.003-.003c-.1.067-.26.016-.3-.1a.61.61 0 0 1 .837-.234l-.54.337zm-4.373.274c.863-.554 2.148-.065 2.944-.713.43.07.808.395.938.8a24.114 24.114 0 0 1-4.045.248c-.074-.122.044-.27.163-.345zm-2.598 3.1l.004-.05a.2.2 0 0 1 .109.305c-.083.1-.27.072-.32-.047l.208-.21zm-1.53-1.636c.13.05.27.108.338.23s.008.316-.13.322l.002-.02a.745.745 0 0 1-.365-.269.394.394 0 0 1 .156-.261zm.134 5.857l2.716-3.842c.125-.117.343.05.327.222s-.167.29-.312.38-.307.174-.38.326a13.095 13.095 0 0 1-3.286 4.238l.936-1.324zm-.566 9.654a5.58 5.58 0 0 1 1.73 1.021c-.001.144-.205.173-.346.146a3.794 3.794 0 0 1-1.931-1.013c.01-.222.338-.23.547-.154zm-.517-8.232c-.01.324-.17.642-.425.846l-.024-.006a.449.449 0 0 1-.457.292c.233-.427.54-.812.906-1.132zM56.82 92.16a.233.233 0 0 1 .02-.293v-.022c.156.024.136.312-.02.315zm.35 7.122c.68.455 1.34.938 1.98 1.446l-1.134.526a.664.664 0 0 1 .109.769c-.392-.156-.527-.737-.245-1.052.076-.083.176-.15.225-.253s.016-.26-.097-.276c-.522-.084-.923-.635-.838-1.16zm-.542 5.797a4.983 4.983 0 0 1 2.729-3.534c.17-.08.273-.256.42-.372s.413-.14.488.032c.084.197-.16.366-.358.447s-.434.27-.327.455c.067.118.013.267-.044.39a9.289 9.289 0 0 1-1.501 2.281c-.2-.223-.053-.573.1-.83l.65-1.087c.138-.23.27-.55.083-.745-.58.58-1.18 1.197-1.38 1.988-.077.313-.112.677-.377.86a.754.754 0 0 0-.318.654c-.193-.072-.203-.34-.166-.542zm-1.892 3.46a3.355 3.355 0 0 1-.597-.232c.004-.153.246-.154.36-.055l.017.02a.21.21 0 0 1 .219.266zm-.27-1.688c.12.074.177.257.078.356l-.036-.07a.407.407 0 0 1-.451-.353c.14-.007.3-.01.41.066zm-3.426-3.087c.928.384 1.816.86 2.648 1.422-.388.188-.84-.045-1.208-.27l-1.29-.8c-.13-.08-.27-.26-.15-.352zm.435 3.666c-.16-.462-.25-.996-.633-1.3.507.254.927.683 1.17 1.195l-.338.25c.307.205.584.454.82.736-.485.074-.862-.42-1.02-.882zm2.31 4.205c-.32-.198-.574-.613-.385-.935l.05.078c.288.162.436.54.336.857zm.256-1.46c-.03-.17.23-.335.316-.184l-.054.03.262.265a.276.276 0 0 1-.159.236c-.158-.076-.333-.175-.365-.346zm.453.568a.821.821 0 0 1 .437.336l.03-.014.165.292c-.343.105-.726-.268-.632-.614zm.895-1.014c-.164.07-.348-.028-.494-.13s-.306-.222-.48-.194c-.47.07-.92-.27-1.136-.69s-.247-.9-.274-1.383a1.249 1.249 0 0 1-.764-.848c.32-.1.665.147.81.452s.163.657.262.98c.26.863 1.156 1.49 2.055 1.438.176-.01.184.305.02.375zm.14-2.5l-.007.007c.067-.187.39-.086.433.108a.302.302 0 0 1-.426-.115zm1.888 4.042c-.562-.103-1.132-.504-1.174-1.074.253-.13.56-.26.808-.12.138.078.222.22.336.33.48.46 1.44.277 1.74.873-.572-.01-1.148.097-1.7-.007zm.692-1.46a4.945 4.945 0 0 1-1.277-.849c-.086-.18.158-.37.35-.322s.32.227.43.39.247.34.443.376l2.933.497c.182.03.417.216.28.34-1.068.128-2.18.014-3.16-.432zm2.712 1.434c-.102-.018-.21-.063-.248-.16s.058-.23.153-.188l.018-.016a2.16 2.16 0 0 1 .831.06.797.797 0 0 1-.754.305zm4.21.608a4.266 4.266 0 0 1-2.602-.273c-.03-.013-.06-.026-.085-.05-.1-.094-.016-.277.114-.324s.272-.002.403.04a6.55 6.55 0 0 0 2.457.273c.1.143-.116.298-.287.335zm6.34-.06c-.173.146-.43.11-.653.08a8.7 8.7 0 0 0-2.396-.021c-.34.045-.812.02-.866-.315-.066-.396-.613-.435-1.014-.404a7.732 7.732 0 0 1-2.976-.347 31.805 31.805 0 0 1 7.559-.074c.202.023.458.022.55-.16a.607.607 0 0 0-.604-.186c-.232.063-.383-.3-.223-.487s.448-.163.67-.066.4.255.636.333a1.65 1.65 0 0 1 1.07 1.291 1.892 1.892 0 0 0-1.752.357zm2.16-1.262c-.198-.093-.135-.486.078-.44l.033-.037c.21-.2.496-.312.783-.31-.146.163-.213.38-.338.558s-.358.323-.556.23zm-.06-3.42c.03-.177.287-.17.46-.116l.01-.026c.148.037.083.295-.067.323s-.287-.08-.4-.18zm.336 4.806c-.108.05-.11-.213 0-.165a.746.746 0 0 1 .732-.42l-.702.604-.03-.02zm.906.38c-.032.12-.196.18-.302.114a.476.476 0 0 1 .17-.279l.18.128-.048.037zm.424-4.332c-.174.366-.823.317-.938-.07.338-.166.848-.28 1.007.06l-.07.01zm.786-2.933c-.085.132-.207.278-.36.25-.255-.05-.163-.44-.01-.65l1.303-1.803c.284-.394.6-.816 1.085-.92l-2.018 3.124zm5.042-11.315c.332-.185-.145-.732-.48-.55s-.385.635-.396 1.016c-.037 1.315-.09 2.65-.487 3.907-.723 2.283-2.494 4.056-4.205 5.73l-.823.807c-.58.567-1.365 1.18-2.112.87a4.052 4.052 0 0 0 .938-2.86c-1.065.6-1.114 2.633-2.34 2.63-.127-.61.288-1.183.56-1.743s.318-1.396-.248-1.657a7.215 7.215 0 0 0 2.12-.485l-3.03-.468c.687-.112 1-.898 1.308-1.52s1.09-1.23 1.637-.796l-1.21.476.354.688a1.739 1.739 0 0 0-1.129 1.048 8.137 8.137 0 0 0 2.718-2.636 2.959 2.959 0 0 0 1.68-1.824 1.77 1.77 0 0 0-1.525 1.437 60.091 60.091 0 0 1-.591-.228 43.4 43.4 0 0 0 2.165-5.032c.078-.22.155-.455.096-.68-.075-.277-.26-.708.025-.742.536.54.397 1.445.105 2.15s-.712 1.412-.618 2.17c.018.146.06.296.16.403.226.236.67.12.822-.172s.046-.66-.173-.906c.192-.668.332-1.352.42-2.04l1.396 2.115.614-4.022c.025-.162-.113-.304-.24-.4l-1.954-1.662a1.28 1.28 0 0 1 1.323.527l.68-.25a22.472 22.472 0 0 0-2.746-2.641 2.243 2.243 0 0 0 1.415 1.759c-.48.338-1.175-.06-1.427-.588s-.232-1.145-.372-1.713c-.157-.634-.506-1.2-.85-1.753l-1.388-2.235c-.116-.188-.242-.382-.436-.484l.418 1.99c-1.09-1.362-3.63.263-4.943-.886.326-.5 1.03-.683 1.56-.428.947-1.317 2.93-1.12 4.515-.782.142.563.455 1.08.887 1.466.793-.847-.905-2.42-.116-3.27.704.47.91 1.546.427 2.242.283-.148.59-.304.908-.265s.617.37.5.666c-.11.282.07.588.24.838l2 2.916c1.34 1.954 2.742 4.295 2.003 6.544.538.247.428 1.222-.154 1.34zm-4.564-3.5l.004.017.222-.975a1.6 1.6 0 0 1-.064 1.938c-.35-.167-.44-.7-.162-.98zm.676 1.61c-.002-.162.058-.317.116-.467l.385-.98c.333.044.432.47.452.806.05.858.1 1.722-.012 2.576a7.347 7.347 0 0 1-.838-1.531 1.147 1.147 0 0 1-.103-.405zm15.384-14.48c.186.01.303.233.247.41s-.234.3-.416.324l-.052-.295.058-.062c-.15-.107-.023-.387.163-.378zm19.295-47.02c.214-.325.308-.73.26-1.116a.291.291 0 0 1 .237-.037l.18.58a.445.445 0 0 0-.428.135c.22.226.247.586.15.886s-.297.554-.493.8c-.08.1-.167.203-.29.234s-.28-.06-.262-.187c-.123-.485.37-.878.647-1.295zm-4.15-3.797a.436.436 0 0 1-.302.444l-.034-.013a.394.394 0 0 1 .336-.431zm.42 1.85l1.126-.337c.09-.027.19-.054.275-.016a.83.83 0 0 1-1.166.521c-.185.373-.787.43-1.04.1.263-.106.535-.187.806-.27zm.818 1.17l-.163.266c-.2-.022-.315-.255-.288-.452s.154-.365.278-.522c.274.084.367.502.152.693l.02.015zm-.395.403a.678.678 0 0 1 .693.351.651.651 0 0 0-.448.499c-.042.238-.462.145-.502-.093s.14-.453.305-.628l-.048-.13zm-1.182-.578a.537.537 0 0 0 .437.004c.18-.08.386.153.318.337s-.313.258-.494.183-.3-.258-.354-.447l.093-.077zm-.866-.668a.894.894 0 0 1 .662.08.405.405 0 0 0-.147.549l-.252.257-.37-.346a6.417 6.417 0 0 0-.532 1.333c-.494-.612-.125-1.69.64-1.873zm.6 1.314h-.005a.17.17 0 0 1-.263-.059.344.344 0 0 1 .15-.255c.117.047.177.202.118.314zm-8.56-4.93a36.107 36.107 0 0 1 3.272-.664c1.694-.264 3.536-.464 4.797-1.628.113-.105.226-.22.375-.266s.338.01.383.158c.03.104-.018.214-.075.306-.29.478-.785.793-1.29 1.032-1.14.538-2.398.762-3.642.98l-2.738.484c-.265.046-.576.08-.768-.108a.679.679 0 0 1-.8.14c-.03-.237.256-.374.487-.433zm6.58 2.232c-.038.116-.195.175-.3.1-.005-.14.21-.216.3-.1zm-1.3 1.636l.263.264a.387.387 0 0 1-.158.258c-.244.005-.327-.42-.1-.506l-.006-.016zm-.12-.308c-.18.12-.46.118-.583-.06l.356-.3.04.05c.173-.1.372-.178.577-.198-.1.192-.207.392-.39.5zm-1.33-2.233a2.994 2.994 0 0 1 1.213-.832c.157-.058.335-.1.487-.032s.23.3.1.408a2.193 2.193 0 0 1-1.8.456zm-.156 2.63c-.11.108-.296.006-.384-.12-.29-.41-.146-1.06.293-1.308.322.395.36.996.09 1.427zm1.657-1.83a.606.606 0 0 1 .267-.358c.114.012.155.2.055.257l-.005-.01a.602.602 0 0 1-.317.112zm-3.274 1.58a.19.19 0 0 1 .315-.103l-.155.367c-.12.006-.21-.154-.143-.253l-.017-.01zm.05-.814c-.328.114-.705.225-1.012.062s-.34-.736.002-.797c.405-.074.697-.53.592-.93l.348.148a.6.6 0 0 0 .27.735c.2-.138.444.166.357.385s-.334.32-.557.396zm-1.522.168l-.001.016a.623.623 0 0 1-.542.686 2.19 2.19 0 0 1 .574-.973.16.16 0 0 1-.031.271zM97.76 27.01l.01-.007a.5.5 0 0 1 .351-.396.497.497 0 0 1-.078.485l.342.116a.347.347 0 0 1-.429.269.347.347 0 0 1-.197-.467zm.294 1.463a.885.885 0 0 1-.711.935c.12-.394.308-.85.71-.935zm-.54-.518l.015-.008a.383.383 0 0 1-.521.106c-.006-.243.418-.326.506-.098zm-.46-1.1c.097.098.064.286-.058.35l.007.064c-.123.006-.234-.116-.22-.237s.154-.212.27-.177zm2.22 2.4c.125-.08.253-.164.4-.188.504-.078.983.597 1.434.354.16-.086.28.21.16.343s-.323.146-.49.212c-.26.105-.445.35-.71.44s-.65-.148-.514-.393c.35.097.743-.23.713-.59-.667.2-1.29.56-1.818 1.018-.212.183-.525.19-.757.348s-.236.634.042.62l1.264-.75c.18-.107.477-.172.536.027l-.63.63c.16.198.007.524-.23.62s-.506.03-.75-.05-.496-.173-.748-.132c-.2.034-.273-.26-.23-.458s.087-.465-.097-.55a.687.687 0 0 0-.354.643c.056.75-.816 1.403-1.52 1.138-.407.326-.336 1.073.125 1.317a10.065 10.065 0 0 0-1.536 2.112c-.116.214-.355.47-.553.325a7.38 7.38 0 0 0 .713-4.241c.296-.03.45.337.51.63.082-.696.43-1.357.957-1.82.535.25.998-.526 1.58-.63a6.961 6.961 0 0 0 2.504-.97zm-7.062 5.76l.52-.988c.065-.124.186-.27.314-.215.1.042.118.177.115.286a5.407 5.407 0 0 1-1.545 3.663c-.2.202-.47.403-.745.33-.314-.085-.434-.47-.438-.797a2.793 2.793 0 0 1 1.013-2.189c.197-.16.2-.456.26-.7s.37-.48.552-.3a.686.686 0 0 0-.047.912zm.143-3.37a1.41 1.41 0 0 1 .566-1.049.605.605 0 0 1-.149.723l-.01.012c.087.214-.223.452-.408.314zm1.32-.8a.267.267 0 0 1 .2.32l-.025.012c.04.118-.14.233-.23.15a.975.975 0 0 1 .055-.481zm2.177-5.264a1.99 1.99 0 0 1-.982.832 1.63 1.63 0 0 1 .982-.832zm-1.026 1.347c-.115.017-.206-.148-.128-.236l-.03-.023c.137-.095.304.182.158.26zm-.255.28l.032-.037c.1.12.076.32-.047.417a.303.303 0 0 1-.414-.059l.43-.32zm-.348.752l.254.05a.433.433 0 0 1-.35.235l-.137.674 1.275-.72a4.364 4.364 0 0 1 .324-1.533l.1.588c.124-.14.39-.105.472.063l-.3.303c.105.133-.007.32-.066.48s.04.417.193.343c.09.195-.108.434-.322.435s-.398-.177-.467-.38a2.856 2.856 0 0 1-.929 1.474c-.117.096-.28.187-.41.11s-.128-.26-.1-.41l.087-.796c-.25-.14-.54-.36-.474-.637.078-.33.536-.342.868-.278zm-.986 5.606l-.042-.02a.832.832 0 0 1-.271-.688.48.48 0 0 1 .313.709zm-.428-6.31l.123.04c-.013-.114-.022-.237.035-.337s.216-.145.29-.056c.028.2.046.435-.104.568s-.47-.06-.343-.216zm-.91-.375c.05-.104.183-.125.296-.135.087.086-.034.264-.146.215l.02.053c-.05.104-.22-.03-.17-.133zm-.407.387l.164.027a2.134 2.134 0 0 1-.898 1.64c-.14.097-.315.177-.47.11s-.166-.354.001-.373a.164.164 0 0 0 .171.042c.056-.02.097-.068.134-.116a10.78 10.78 0 0 0 .897-1.329zm-1.38 3.614l.15-.147c.253.165.1.648-.2.65a.393.393 0 0 1 .093-.451l-.053-.05zm-1.016-2.293c.228-.41.513-.92.245-1.305-.095-.137.027-.33.18-.395s.326-.05.486-.087a.802.802 0 0 0 .604-.708l.3.43a2.026 2.026 0 0 0-.951 1.114l-.754 2.19c-.432-.184-.337-.828-.1-1.238zm.654 2.05c-.196-.16-.02-.55.227-.51l.038-.025a.485.485 0 0 1-.265.534zm-.993-.057l-.01-.002a.467.467 0 0 1-.631.222c0-.243.244-.456.484-.422.056-.118.186.077.158.202zm-.284-2.086c.2.42.027.917-.148 1.35-.068.17-.154.36-.322.436s-.424-.068-.37-.245a4.57 4.57 0 0 1 .839-1.54zm-.975-.02c-.017-.34.132-.685.388-.91a1.38 1.38 0 0 1-.339 1.174.31.31 0 0 1-.043-.263l-.006-.002zm.082 1.923c.144.41.184.858.1 1.288a.26.26 0 0 1-.342-.098.448.448 0 0 1-.042-.209 1.827 1.827 0 0 1 .274-.981zm-1.508 1.297l.015.057a.723.723 0 0 1-.806-.342l.91-.53a.893.893 0 0 1-.12.816zM84.9 29.168l.553-.056c.256.556-.07 1.298-.65 1.487a5.287 5.287 0 0 1-.245-2.138.758.758 0 0 1 .343.707zm-.23 9.46a.842.842 0 0 1-.544-.337 1.12 1.12 0 0 1 .253-.479l-.02-.01c.146-.164.448-.01.493.206s-.07.43-.18.62zm.282.382l-.15.396a23.395 23.395 0 0 0-.261-.037l.001-.02a.379.379 0 0 1 .411-.338zm-.406-5.47l-.213.212-.038.037c-.12-.135.117-.37.25-.25zm-.214.89l.042.1c-.24.19-.5.354-.775.485a.831.831 0 0 1 .733-.595zm-.687-2.1c.12.043.122.252 0 .294-.12-.043-.118-.25 0-.294zm-.13-1.712l-.025-.042.283-.275c.138.215.008.55-.24.617-.124-.04-.137-.246-.018-.3zm.138 5.923l-.38.166a.873.873 0 0 0 .17.471.864.864 0 0 0 .409-.31c.184.028.204.318.063.44s-.348.118-.534.1a23.732 23.732 0 0 1-2.121 1.783c-.246.184-.556.372-.843.262.35-.374.73-.72 1.107-1.066l1.104-1.01c0-.32.02-.672.232-.912s.692-.24.793.065zm-.9 6.07l-.04.078c-.243-.114-.25-.527-.013-.65l.052.57zm-1.548-1.943c.143.086-.024.357-.164.27l.02-.016c-.027-.123.04-.32.144-.253zm-.6-.55a2.21 2.21 0 0 1-.344 1.173c-.12.006-.212-.153-.146-.253l.02-.03a.64.64 0 0 1 .469-.89zm1.473-3.354l-.218.554.018.006a.685.685 0 0 1-.783.33c.208-.402.564-.723.983-.9zm-.3-.687a3.629 3.629 0 0 1 1.098-1.588.774.774 0 0 1 .061.509 1.351 1.351 0 0 1-1.159 1.079zm1.057-5.42l.01.06-.8.097a2.35 2.35 0 0 1 1.114-.884.627.627 0 0 1-.335.728zm-2.507-4.097c.19-.25-.14-.59-.11-.902.022-.287.354-.465.64-.432s.53.214.76.388c.368.28.74.565 1.01.94s.425.857.307 1.303l-.945-.76c-.117-.094-.24-.192-.32-.32-.12-.193-.208-.488-.438-.473a4.164 4.164 0 0 1-.55.731l-.35-.474zm1.352 2.01v.005c-.146-.12-.112-.392.06-.47.19.12.158.515-.06.465zm-.747-1.267l.038.007a.32.32 0 0 1 .507-.119l-.374.374a.369.369 0 0 1-.171-.262zm.377 1.668a1.261 1.261 0 0 1-.317 1.417 1.14 1.14 0 0 1 .317-1.417zm-.405 2.644c.11-.034.244-.042.306-.14.064-.103.004-.234-.025-.352s.02-.29.14-.274a.45.45 0 0 1 .198.621l.014.014a1.886 1.886 0 0 1-.777.381c-.075-.086.034-.217.143-.25zm.47.87c-.133.1-.303-.177-.157-.25.104-.063.167.127.14.245l.016.006zm-.3.633l-.027-.008c.048.096-.132.19-.184.096a.463.463 0 0 1 .019-.462c.186-.042.337.247.192.374zm-.735-4.198c.137.05.293.122.314.264.022.154-.128.274-.188.42-.088.21.03.446.104.663s.08.516-.127.614a1.953 1.953 0 0 1-.103-1.961zm-.257 5.982a7.885 7.885 0 0 1 1.796-1.593l.19.188c.24-.053.26-.387.235-.635s.04-.588.3-.592a1.39 1.39 0 0 1-.129 1.561c-.33.388-.883.606-1.037 1.1-.13.41-1.02.155-1.036.584-.023.6-.916.744-1.13 1.293-.045.116-.06.247-.127.35s-.235.157-.316.064c.254-.846.703-1.628 1.266-2.31zm-1.81 9.26c.104-.062.166.127.14.245l.016.007c-.13.098-.302-.177-.156-.252zm.832.803c-.163.378-.557.597-.922.787l.913-1.525c.105.23.11.505.01.738zm-.135-1.94c.001-.5.248-.995.65-1.297a1.435 1.435 0 0 1-.649 1.297zm.705-3.952a34.517 34.517 0 0 1-.339-.441c-.203-.263-.418-.57-.357-.896a2.568 2.568 0 0 0 1.622-1.305c.082-.163.242-.37.397-.272-.588.66.2 1.963-.504 2.495-.203.048-.306-.248-.254-.45s.156-.433.03-.598c-.3-.012-.457.332-.473.622s.037.605-.123.844zm1.37 3.36a1.427 1.427 0 0 0-.203 1.459c-.285-.01-.467.303-.542.58s-.145.6-.4.73c-.235-.6.048-1.356.62-1.655a.949.949 0 0 1-.132-1.047.952.952 0 0 1 .931-.495c.104.013.212.042.314.02.223-.045.33-.292.487-.458s.523-.183.534.044c.004.086-.053.162-.105.23-.2.25-.46.53-.78.49-.155-.02-.3-.115-.454-.086-.1.02-.198.1-.27.187zm.48.426c-.114.02-.204-.147-.128-.236l-.027-.024c.136-.093.302.183.155.26zm.438.77l-.064-.07a.458.458 0 0 1-.286.219c.02-.128.048-.275.163-.333s.283.1.187.185zm.722.957c-.183.107-.478.034-.505-.176l.137-.037a.405.405 0 0 1 .215-.489.4.4 0 0 1 .499.186c-.077.197-.165.408-.346.516zm.543-4.773c-.117-.035-.252-.086-.283-.204s.163-.233.207-.12l-.04.024a.21.21 0 0 1 .115.299zm.306.708l.01.034c.075.197.102.5-.106.546-.075-.206-.1-.505.097-.58zm.032 4.29c-.04-.25-.077-.508-.004-.75s.292-.46.544-.442a1.36 1.36 0 0 1-.54 1.192zm.902-1.985c-.18.202-.486.415-.688.234a72.946 72.946 0 0 0-.375-.438l.975-.526c.24-.13.6-.23.734.008l-.646.722zm.28-5.263l-.005-.026a1.15 1.15 0 0 1 .393-.469c.117.234-.132.553-.388.495zm.935 1.1c-.14 0-.165-.203-.14-.34l.172-1c.185.427.173.934-.032 1.35zm-.79-5.358a.98.98 0 0 1 .548-.796c.165-.077.362-.104.525-.024s.265.3.188.454c-.203.42-1.023-.035-1.26.366zm3.933 2.752c-.3.514-.837.913-.938 1.5-.05.284-.078.687-.367.7-.365.014-.51.474-.554.836l-.346-.047a12.022 12.022 0 0 0-.516-3.311l.425-.06-.186-1.57c-.035-.29-.068-.59.013-.873s.308-.542.6-.57c.538-.05.895.657 1.434.668.267.006.663-.08.692.186.098.862.184 1.794-.256 2.542zm-.05-3.538c-.12.117-.265.223-.43.25-.334.057-.666-.297-.59-.627a.354.354 0 0 1 .42-.009.91.91 0 0 1 1.226-.587 2.461 2.461 0 0 1-.626.972zm.922.103c.12-.127.302-.175.435-.288s.182-.365.023-.438a1.94 1.94 0 0 0 .974-.639c.12-.147.217-.31.312-.47l.537-.9a.687.687 0 0 1 .351.235.49.49 0 0 1 .675-.287c-.61.225-.823.957-1.2 1.48-.312.42-.757.72-1.136 1.083s-.703.846-.658 1.368a.504.504 0 0 1-.263.476c.17-.536-.423-1.2-.04-1.62zm.278 2.638c-.118-.215-.018-.5.14-.678s.367-.328.52-.522c.2-.252.282-.578.458-.848s.522-.487.813-.35c.045-.125-.067-.277-.198-.274l.262-.165a.841.841 0 0 1-.307 1.064 21.212 21.212 0 0 0-.215-.285c-.188-.004-.1.29-.07.474.055.327-.296.557-.568.746s-.515.6-.265.818c-.05.24-.45.234-.568.02zm.37 3.356a1.49 1.49 0 0 1 .274.583c1.465-.984 2.96-2.035 3.865-3.55a16.165 16.165 0 0 1 2.026-2.707c.162.183.477.1.657-.067s.3-.396.5-.54.544-.14.634.087l-1.573 1.543c-.385.377-.776.766-1.006 1.253a5.002 5.002 0 0 1-1.707 2.002c-.22.148-.456.486-.226.616-.39.32-.804.653-1.302.743-.445.08-.81.488-.838.94.27-.187.616-.255.936-.182-.24.703-.908 1.155-1.533 1.555l-.573.368c-.26-.09-.24-.487-.062-.696s.45-.325.62-.542.15-.624-.118-.68c-.135-.027-.27.05-.38.13a2.796 2.796 0 0 0-.861 1.036 2.25 2.25 0 0 1 .668-1.893zm2.934.83l-.024-.05-.166-.273.356-.464a.586.586 0 0 1-.166.787zm.38 4.278c.228.11.052.456-.136.627a14.192 14.192 0 0 0-2.019 2.284c-.192.07-.344-.218-.26-.404s.28-.293.422-.438c.345-.344.4-.907.758-1.233.376-.342 1.025-.376 1.235-.836zm-.826-.847a.4.4 0 0 1 .048.274.308.308 0 0 1-.263.044l-.002.005c-.104-.12.056-.316.217-.323zm5.52-5.814c-.22-.313-.188-.82.147-1.008s.84.21.656.546l-.96 1.75c.12-.11.333-.027.404.12s.044.322.01.48a6.627 6.627 0 0 1-1.506 2.962c-.116.13-.177.3-.237.465a10.061 10.061 0 0 1-2.767 3.995c-.07.064-.155.13-.25.122-.186-.016-.228-.29-.12-.442s.294-.224.435-.343.236-.348.11-.484c-.34-.367 0-.97.41-1.256s.937-.508 1.092-.985a6.156 6.156 0 0 1 1.021-1.916c.522-.66.844-1.45 1.16-2.228.03-.08.063-.17.022-.244s-.188-.064-.183.02c-.287-.52.896-1.062.558-1.553zm1.1 6.424a7.016 7.016 0 0 1 .755-1.664l.24.265-.326 1.452c-.062.28-.114.605.072.822.068.08.03.202-.017.294-.462.9-1.667 1.144-2.227 1.975l-.42.622c-.092.136-.19.277-.336.353s-.354.056-.438-.086c.36-.257.622-.65.718-1.083.036-.17.18-.292.315-.4l1.635-1.317c-.177-.382-.095-.83.028-1.232zm.01-2.72a.878.878 0 0 1 .26 1.07c-.12.067-.25-.076-.29-.206a1.225 1.225 0 0 1 .031-.864zm-3.42 8.185c.02-.113.184-.086.297-.087s.165-.224.06-.18l2.065-1.946c.132-.125.443-.16.402.015a.196.196 0 0 1-.051.085l-2.166 2.527c-.163.184-.508.345-.6.117a.372.372 0 0 0-.007-.532zm-1.923 2.825c.087-.022.224.003.203.1l-.02-.01-.527.527c-.155-.04-.18-.272-.082-.398s.27-.17.425-.208zm-.183-1.663l.264-.265a.31.31 0 0 1 .046.264h-.004c-.046.12-.258.123-.306.001zm-.115-.954c-.277-.292-.277-.77-.094-1.128s.513-.618.852-.835c.023.188-.056.373-.133.546l-.625 1.417zm-1.39 2.807c-.204.07-.408-.16-.4-.375s.15-.4.285-.565c.25.01.404.364.238.553.333.063.37.53.29.857a4.757 4.757 0 0 1-.62 1.446c-.323-.146-.272-.625-.104-.936s.413-.64.3-.98zm-.147-4.802c-.142.035-.32-.037-.348-.18-.023-.124.07-.236.16-.325a5.467 5.467 0 0 1 1.289-.962c-.03.486-.398.877-.743 1.22-.103.104-.214.212-.357.247zm.233 11.283a1.9 1.9 0 0 1-.684 2.247.366.366 0 0 1-.052-.146c-.014-.1.017-.198.044-.293.19-.62.42-1.224.692-1.808zm-.398-.818l.177-.4.024.003a1.34 1.34 0 0 1 .437-.774c.093.29.184.603.08.888s-.494.474-.72.273zm.494-3.26c-.034-.214.256-.437.398-.274.084.134.112.3.076.454l.018.005-.065.28c-.186-.113-.4-.25-.427-.464zm-.08-5.355c-.098.032-.198-.073-.203-.178s.056-.198.112-.285l.874-1.346c.094-.143.38-.235.364-.065a6.447 6.447 0 0 1-1.147 1.874zm2.192-.537l-.027-.023c.216-.294.58-.473.942-.467-.09.246-.185.5-.367.688s-.476.294-.712.182l.164-.38zm.372-1.133c-.068-.192.093-.383.24-.524l1.095-1.04c.202-.19.536-.382.722-.175a3.256 3.256 0 0 1-1.288 1.772c-.247.168-.67.247-.77-.032zm.742-1.554l.006-.007c-.046-.095.13-.188.183-.096-.002.08-.01.172-.077.212s-.175-.062-.112-.11zm2.73-1.69l.005-.003a.768.768 0 0 1 .268-.366c.115.2.073.477-.097.632a.351.351 0 0 1-.176-.263zm.653-.944l-.297.38a1.199 1.199 0 0 1 .345-1 .713.713 0 0 1-.089.591l.04.03zm-.265-1.284c.01.458-.252.875-.546 1.227a5.79 5.79 0 0 1-1.705 1.384c-.163-.674.614-1.17.906-1.8l1.23-2.642c.136-.065.275.12.25.268s-.135.266-.195.405c-.156.36.05.766.06 1.158zM97 38.208c-.26.1-.215.613-.494.63-.145.008-.25-.153-.24-.297s.097-.27.18-.386l.73-1.013c.17-.234.5-.488.702-.28a1.48 1.48 0 0 1-.879 1.346zm.03.477c.163.29-.006.652-.18.938a20.096 20.096 0 0 1-2.085 2.837c-.575-.05-1.15.39-1.254.96a.637.637 0 0 0-.408-.143c.02-.72.568-1.3 1.08-1.803L95.8 39.9l1.23-1.205zM91.927 44.4a6.038 6.038 0 0 1-.872 1.283c-.152-.22-.004-.517.142-.74l.787-1.21c.14.19.048.457-.057.667zm-1.38.542c-.028.112-.17.18-.273.133s-.15-.197-.086-.292l.004.008a.323.323 0 0 1 .355.151zm.096-3.5l-.152.563-.065.075c-.23-.183-.076-.632.217-.638zm-.447 3.862l.238.063a.6.6 0 0 1-.503.694l.204-.75.06-.006zm-.18 1.332a.43.43 0 0 1-.097.454 3.13 3.13 0 0 0 .75.289c.01.332-.125.667-.362.9a.962.962 0 0 1-.418-.6c-.062-.29-.72.143-.755-.152l.882-.9zm.61-4.005c.15-.354.537-.612.92-.56l-.38 1.232c-.067.222-.22.496-.445.44-.2-.335-.25-.757-.096-1.112zm-2.92 2.97c.354-.505.65-1.05.945-1.594.157-.3.316-.585.382-.9l.265.05a3.279 3.279 0 0 0-.077 1.616l.092 1.155c.014.146.008.326-.12.396a.355.355 0 0 1-.188.03 1.703 1.703 0 0 1-1.299-.742zm.06 8.27c-.222-.117-.086-.54.162-.507l-.017.036a.431.431 0 0 1-.145.471zm1.577-1.232c-.178.26-.516.35-.83.382-.108.01-.234.01-.302-.076-.05-.065-.047-.158-.038-.24.087-.795.437-1.533.78-2.253l.768-1.606 1.05.196c.074.013.168.016.2-.05a.689.689 0 0 1 .681-.378.69.69 0 0 1 .58.519 6.077 6.077 0 0 0-1.851 1.102c-.086.074-.2.156-.303.107a.08.08 0 0 1-.034-.034l-.957 1.236c-.1.115-.138.34.006.355.312.032.427.483.247.74zm.667-.56c-.14-.006-.196-.207-.128-.33s.207-.19.325-.266a1.42 1.42 0 0 0 .608-.931c.034-.192.038-.415.2-.536.096-.076.226-.1.348-.1l.688-.06a4.189 4.189 0 0 0-1.237 1.7c-.063.164-.28.184-.455.208s-.388.145-.34.314zm.65 6.597a.7.7 0 0 1 .426-.607 1.5 1.5 0 0 1-.301 1.198.557.557 0 0 1-.095-.581l-.03-.01zm.205-.94c-.232-.095-.226-.432-.123-.66s.268-.46.215-.705c-.036-.166-.164-.292-.247-.44s-.104-.364.033-.46c.325.31.543.74.554 1.187a1.51 1.51 0 0 1-.432 1.08zm.134-4.627l-.247.114c-.2-.04-.215-.346-.08-.5s.342-.22.505-.344a.871.871 0 0 1-.243.655l.066.075zm-.007 2.1c-.153-.378.302-.85.065-1.183-.138-.193-.04-.528.193-.558.087.045.173.093.258.14a.988.988 0 0 0 .229 1.229.72.72 0 0 1-.745.372zm-1.106 6.368a.445.445 0 0 1-.225.31l.016.028-.268.16c-.05-.263.21-.535.477-.497zm-3.487 5.362a5.07 5.07 0 0 0-1.312.819c-.05.067-.17.062-.214-.01-.072-.276.313-.54.543-.37a2.29 2.29 0 0 1 2.201-1.346c-.152.503-.736.7-1.218.907zm2.542-1.945a1.999 1.999 0 0 1 1.301-1.591c0 .394-.07.785-.204 1.155-.064.18-.247.387-.404.28.045-.22-.336-.355-.44-.156a.21.21 0 0 1 .045.296.21.21 0 0 1-.298.017zm-.93 4.988a3.987 3.987 0 0 1 .464-2.039c.323.05.357.516.225.814s-.35.613-.24.92c.225.623-.158 1.394-.788 1.594.237-.383.357-.838.34-1.29zm.82 3.424l-.048.004a.15.15 0 0 1-.223.15.455.455 0 0 1 .147-.472.24.24 0 0 1 .124.318zm-1.073 3.04l-.003.02c.13.194-.226.454-.37.27a.739.739 0 0 1 .373-.29zm-.773-2.432l-.015-.034a.79.79 0 0 0 .264-.377l.227.042a1.795 1.795 0 0 1-1.037 1.24.934.934 0 0 1 .561-.871zm-.337 3.654c-.045.096-.214.02-.217-.09s.086-.19.168-.26c.146.002.112.23.03.35h.02zm-.88 3.654a.283.283 0 0 1 .244.04l-.205.957-.002.006c.028.13-.064.326-.182.26a3.181 3.181 0 0 1 .145-1.263zm-.186 1.563c.297.618.09 1.437-.465 1.84l.465-1.84zm-1.628-1.358l.114-.015.065.535c.017.123.028.26-.04.36s-.257.12-.303.006l.165-.887zm-1.006-5.833a.82.82 0 0 1 .225-.55l.01-.007a.29.29 0 0 1 .259-.369c.045.213.09.438.015.645s-.3.366-.51.28zm.48 15.77c-.067-.17-.07-.45.116-.452l.007.017c.066.168.058.45-.123.435zm.8-1.406c-.084.264-.352.562-.585.412a4.388 4.388 0 0 1 .671-1.509c.052.365.024.743-.086 1.097zm.157-10.218c-.12-.078.02-.28.162-.265l-.01.003c.023.124-.04.32-.15.262zm.777 10.133c-.05.088-.117.187-.217.188a1.643 1.643 0 0 1 .392-1.479c.18-.2.263-.447.354-.692a8.059 8.059 0 0 1 1.152-2.084c-.198 1.463-.948 2.786-1.68 4.067zm1.537-8.357l-.087.052a.47.47 0 0 1 .444-.551.627.627 0 0 1-.357.499zm.71-.488a4.89 4.89 0 0 1 .485-1.564c.076-.15.244-.32.382-.223a3.35 3.35 0 0 1-.867 1.787zm1.246-2.294l-.008.007c.047.095-.13.188-.183.097.002-.08.012-.17.08-.213s.175.06.112.11zm.2-.783a.79.79 0 0 0-1.026.013c.23-.001.3.34.185.535s-.356.288-.537.433c-.425.343-.545.93-.64 1.467a1.551 1.551 0 0 1 .01-1.688c.118-.176.275-.326.36-.52.138-.305.09-.7.304-.948.136-.162.35-.236.524-.36s.312-.36.2-.544c-.273-.453.153-1.138.682-1.092-.44.214-.374.86-.187 1.312s.42 1 .124 1.39zm.24-11.57l.208-.205.013.01a.913.913 0 0 1 .523-.253c.03.358-.442.64-.744.447zm.672 6.493l-.003-.006.216-.312a.516.516 0 0 1-.09.635.241.241 0 0 1-.123-.317zm.548 1.27a.34.34 0 0 1-.4-.343c.02-.203.268-.348.454-.264l-.013.026a1.44 1.44 0 0 1-.041.581zm.63-14.7a.652.652 0 0 1-.034.846l.04.07-.476.12c.058-.38.222-.742.47-1.035zm.774 19.112c-.203.312-.53.516-.847.71-.075.047-.17.096-.25.058l1.088-1.805c.25.276.21.725.008 1.036zm.122-14.282l.207-.315.04.003c.034-.33.208-.642.47-.847a6.51 6.51 0 0 1-.521 1.453l-.197-.294zm1.205 1.656l-.63.55c-.07.06-.004.167.04.247.11.205.035.453-.04.67-.058.162-.208.36-.352.27-.072-.045-.09-.14-.093-.226a2.41 2.41 0 0 1 1.092-2.139c.142-.038.266.137.238.28s-.143.25-.253.347zm.63-.65c-.323-.136-.335-.687-.018-.837a1.21 1.21 0 0 1-.046.704l.064.133zm.01-1.272c-.054.172-.2.378-.368.294-.094-.05-.115-.174-.118-.28a3.105 3.105 0 0 1 .539-1.861 3.5 3.5 0 0 1-.053 1.847zm-.064-4.162a3.923 3.923 0 0 1-.778 2.463c-.144.19-.31.375-.52.486-.328-.428.68-.944.45-1.433-.093-.198-.022-.432.048-.637l.416-1.213c.21-.612.45-1.267.987-1.628.314.636-.627 1.253-.603 1.962zm.7-6.688c-.088-.068-.06-.234.047-.268l.024-.006a.341.341 0 0 1 .399-.229.772.772 0 0 1-.47.503zm.526 8.103c.08.072.044.23-.06.26l.01.026c-.155.007-.106-.29.05-.287zm-.252-10.108a1.9 1.9 0 0 1 1.25-2.075 28.314 28.314 0 0 1-1.25 2.075zm1.04 1.012c.024-.56.402-1.048.84-1.4a4.05 4.05 0 0 1 1.175-.66c.233-.086.367-.323.53-.51s.45-.336.65-.19l-.94 1.113a3.215 3.215 0 0 0-1.432 1.107c-.206.287-.49.66-.822.538zm5 .327a.716.716 0 0 1 .098-.736h.01c.167-.006.27.208.22.367s-.194.27-.33.37zm.242.086c.165-.153.383-.25.607-.268v-.012a.41.41 0 0 1 .272.169.886.886 0 0 1-.879.111zm1.03-2.6l-.43.476c-.15.168-.315.344-.533.403s-.5-.058-.528-.284l-1.536 1.423c-.16.147-.336.303-.553.314-.2.01-.39-.164-.37-.337l-.264.903c-.082.277-.366.623-.578.425.23-.226.362-.548.357-.87l-1.275.904c-.245-.416.17-.92.607-1.13s.962-.333 1.204-.75c.115-.198.286-.494.477-.367-.073.176-.103.37-.084.56.257.04.446-.247.48-.503s-.02-.53.083-.767c.09-.207.286-.354.375-.562s-.047-.532-.266-.48l1.252-1.674c.155-.208.316-.485.188-.71-.157-.27-.6-.184-.794.062s-.238.573-.366.86a1.608 1.608 0 0 1-1.592.919 4.86 4.86 0 0 0 1.001-1.207c.19-.323.343-.67.58-.958s.585-.52.958-.5a.68.68 0 0 1 .461.2.742.742 0 0 1 .159.293 1.198 1.198 0 0 1-.564 1.375c-.106.057-.055.237.055.3s.238.03.36.04c.372.027.676.415.614.784a.63.63 0 0 0-.807-.1.63.63 0 0 0-.188.792c.06-.283.36-.463.65-.48s.57.1.84.196c.05.02.1.04.133.08.09.11-.01.272-.106.38zm-.04-2.89c-.12.128-.057.332-.06.507s-.207.375-.324.245a3.23 3.23 0 0 0 .071-1.345c.287-.036.503.378.31.594l.002-.001zm-.42-.972l.27-1.124c.094-.395.212-.824.544-1.056-.02.422.01.846.088 1.263l-.902.917zm1.145.813l.05.05a.533.533 0 0 1-.427.479.43.43 0 0 1 .377-.529zm.364-1.434l.365.434.033-.01c.003.343-.505.547-.74.3s-.001-.745.34-.722zm.007 4.485c-.227-.126-.16-.542.096-.592l.012.066a.403.403 0 0 1-.108.526zm-.417-1.352c-.093-.097-.192-.22-.16-.35.058-.227.395-.18.604-.288.28-.146.274-.54.268-.858s.13-.732.445-.72a13.713 13.713 0 0 1-.581 2.821l-.577-.604zm1.508 2.888c-.05.192-.394.13-.415-.067s.216-.35.408-.303l.032.37h-.025zm-.004-.588a1.533 1.533 0 0 0-.522-.153l.5-1.422c.07-.19.278-.424.427-.284a12.631 12.631 0 0 0-.415 1.859zm.895-.417a.648.648 0 0 1-.335-.501l.798-.426a.54.54 0 0 1 .345.239l-.808.688zm.836-2.906a.24.24 0 0 1-.247-.259c.02-.135.18-.23.308-.183l-.11.328.05.114zm.362 1.394c-.07.188-.45.067-.346-.106l-.055-.02.057-.257c.202-.001.416.193.344.382zm3.706-4.993c.196-.234.44-.427.715-.564l.002-.02.26.06c.04.468-.612.818-.978.524zm1.346-3.14c-.386.474-1.032.625-1.587.884s-1.104.796-.96 1.4l1.81-1.08c.082-.05.173-.1.268-.09.238.03.254.382.138.592-.285.515-.886.748-1.403 1.028s-1.045.762-.97 1.346c.04.297-.3.5-.584.583a9.391 9.391 0 0 1-4.013.382.75.75 0 0 1 .313-1.158.886.886 0 0 0-.764-.642c.207.577-.342 1.277-.95 1.214.263-.8.472-1.825-.172-2.37l-.938 1.52c-.31-.427-.075-1.017.107-1.512s.237-1.184-.234-1.424c-.377-.19-.485-.71-.35-1.1s.45-.712.753-1.008l-.66-.744-.737 1.367c-.04.073-.086.15-.163.18-.136.052-.273-.074-.347-.2-.39-.66-.08-1.63.622-1.938.265-.117.092-.58-.197-.604s-.528.213-.69.453-.304.517-.562.648a6.19 6.19 0 0 1 .573-2.194c.404.153.894.058 1.2-.237a.576.576 0 0 0 .604.5.577.577 0 0 0 .5-.604c.205-.03.374.186.395.393s-.058.407-.094.612c-.2 1.23 1.075 2.226 1.256 3.46l1.127-.4c-.33.336-.133.922.204 1.25s.79.53 1.077.902c.697.9.168 2.402.97 3.213.065.134.243-.065.223-.213-.056-.417-.36-.764-.442-1.176s.293-.956.665-.758a1.298 1.298 0 0 1 .102-.657c.346.364.294 1.028-.105 1.334l.556.37a8.324 8.324 0 0 0 .689-3.223l-1.232 1.466-1.02-1.368c-.03.174-.342.143-.38-.03s.15-.333.326-.333.336.112.463.234a1.831 1.831 0 0 1 1.966-.311c.334.156.63-.326.582-.69s-.242-.74-.108-1.084c-.293-.207-.555.282-.83.51-.38.313-.94.098-1.428.016s-1.168.244-.99.705l-.28-.86a.69.69 0 0 1-.842.319l2.033-1.468-.15-.97.777-.26c-.14.48-.333.945-.57 1.384l1.49-.166-.457-.3a2.933 2.933 0 0 1 2.249-1.579c.36.58.696 1.177 1 1.79.427.863.77 1.976.162 2.723zm-11.204-5.462l.016.018c.05-.092.223-.05.227.054.01.09-.1.17-.175.146s-.125-.15-.068-.218zm.767-.835l.04.056c.002.143-.224.216-.308.102a.858.858 0 0 1 .156-.693.32.32 0 0 1 .112.535zm.258 1.2l.01.026-.157.255c-.155-.073-.001-.364.147-.28zm4.48-1.024c.083.125.2.235.227.385.032.255-.255.424-.503.49-.118.033-.25.057-.36 0s-.16-.228-.063-.304c.212-.165.148-.53-.056-.705s-.488-.216-.756-.25c.357-.468 1.166-.48 1.537-.02-.134.073-.1.277-.026.403zm-1.306-.073c.23.365.105.84-.025 1.25l-.248.78c.032.318.484.417.768.27s.472-.428.728-.62a1.36 1.36 0 0 1 1.193-.208c-.045.348-.452.495-.77.644a2.512 2.512 0 0 0-1.369 1.73 1.105 1.105 0 0 1-.284-1.2l-.604.312a1.003 1.003 0 0 0-.296-1.139c-.374.435-.33 1.15.056 1.576.222.244.53.403.723.67s.175.735-.138.838c-.246.082-.5-.12-.632-.34s-.21-.486-.396-.666c-.214-.21-.25-.54-.233-.838.04-.77.366-1.533.948-2.037a1.77 1.77 0 0 0 .58-1.024zm3.95.315c.113-.187.457-.217.52-.007.08.272.345.478.63.487a.837.837 0 0 1-.754.571.404.404 0 0 1-.201-.037c-.13-.07-.175-.23-.21-.374-.052-.214-.098-.452.016-.64zm5.114 7.012a11.11 11.11 0 0 0-1.582 1.002c-.174-.273.422-.542.32-.85-.06-.172-.317-.243-.318-.425 0-.112.106-.194.206-.247a1.826 1.826 0 0 1 1.511-.08.465.465 0 0 0-.137.599zm-1.182-2.12l.16-.16a.277.277 0 0 1 .063.285c-.06.092-.24.004-.2-.1l-.023-.024zm4.014.542l-1.2-.627a.84.84 0 0 1-.24 1.293 3.13 3.13 0 0 0-1.567-2.708.715.715 0 0 1-.489.695c.31-.262.06-.777-.27-1.015s-.755-.43-.85-.824c-.282-1.18-1.45-1.888-2.516-2.467-.456-.246-.928-.5-1.443-.528s-1.087.232-1.243.725c-.102-1.222-1.75-1.99-2.75-1.28l.243.507a2.24 2.24 0 0 1-2.548-.038 1.55 1.55 0 0 1 1.928-.06 1.649 1.649 0 0 1-.413-1.27 28.238 28.238 0 0 1-3.789.602.567.567 0 0 0 .297.737c.02.285.035.594-.12.834s-.55.338-.723.108c-.147-.197-.043-.473-.026-.72s-.23-.555-.424-.4a2.09 2.09 0 0 1-.902 2.212c-.7.434-1.028 1.258-1.412 1.986a9.484 9.484 0 0 1-3.228 3.522l2.88-4.323c.903-1.355 1.812-2.717 2.9-3.917a15.878 15.878 0 0 1 5.161-3.731.9.9 0 0 1-.225 1.124.9.9 0 0 1-1.144-.079c.05.706 1.155.732 1.688.265s.864-1.192 1.522-1.453c.142.25-.056.543-.172.805s-.023.696.26.65a3.75 3.75 0 0 1 3.112.945 2.007 2.007 0 0 1 1.144-.238c-.348.29-.367.893-.037 1.205.227-.308.493-.64.87-.7s.78.416.532.707a1.069 1.069 0 0 0-.103 1.207l1.087-1.428c.143-.186.348-.396.57-.327.13.04.212.16.287.27 1.117 1.71 2.27 3.524 2.392 5.564l.312-.894a2.968 2.968 0 0 1 .628 3.053zm4.105 3.054c-1.174-.406-2.213-1.346-2.49-2.558-.03-.146-.053-.303.008-.44s.23-.235.36-.17c.083.04.13.124.177.202.65 1.067 2.2 1.57 2.377 2.808.027.184-.258.216-.434.156zm.432-5.674l-.344.06c-.083-1.245.02-2.504.306-3.72l.352.07a29.165 29.165 0 0 0-.314 3.59zm2.657 4.806l-.3-.047c-.2-1.25-.168-2.53.063-3.772.02-.104.04-.21.02-.315-.012-.058-.036-.112-.056-.17a1.054 1.054 0 0 1 .371-1.168 28.744 28.744 0 0 1-.108 5.471zm3.275 2.993a.67.67 0 0 1-.64.024.69.69 0 0 1 .372-.3l.014.02c.04-.094.18-.124.257-.056l-.003.313zm-.166-5.864a.56.56 0 0 1-.388-.045c.08-.28.256-.533.49-.705l.024.016a.758.758 0 0 1-.125.734zm.582 2.506c-.05.282-.16.59-.02.838-.025.106-.164.166-.26.114s-.125-.182-.135-.294a4.18 4.18 0 0 1 .099-1.356c.283.04.365.417.317.698zm-5.244-4.184l-.32.695-.006-.006a.368.368 0 0 0 .129.44c.452-.136.576-.85.196-1.13zm-.192 1.58a.232.232 0 0 0 .124.313c.073-.127.016-.365-.12-.3l-.003-.003zm-57.43 17.497c.134-.167.206-.416.086-.592s-.47-.14-.484.073a.452.452 0 0 1-.485.402.452.452 0 0 1-.378-.504c.38-.035.67-.36.836-.704s.254-.724.457-1.048c.038-.16-.188-.273-.34-.212s-.246.212-.352.337-.27.24-.426.183c.132.188.013.452-.146.62s-.363.3-.43.53c-.038.124-.025.254-.014.382l.23 2.5c.1.984-.605 1.915-.523 2.9.01.106.034.224.117.29.16.128.4-.036.46-.233s-.014-.405-.032-.61c-.056-.575.264-1.1.532-1.62s.498-1.123.268-1.653c-.085-.197.016-.427.16-.586s.33-.278.463-.445zm-10.062 18.35a350.734 350.734 0 0 0 6.96-12.894.903.903 0 0 0-1.049-.205c.408-2.472 2.29-4.714 1.908-7.2-.076-.488.423-.863.884-1.04s1-.326 1.223-.765c-1.576-.123-3.056 1.436-2.854 3.003-.87-.766-.44-2.177.052-3.227l-1.754-.603a1.213 1.213 0 0 1-.492 1.361 7.228 7.228 0 0 1 .491-2.717 2.218 2.218 0 0 0-.85 2.077c-.632-.083-1.23.4-1.488.982s-.258 1.243-.25 1.88l.007.797c.004.418-.006.88-.28 1.194a4.504 4.504 0 0 0-.941 4.035c-.1-2.004 1.78-3.878 3.784-3.77.21.01.445.056.555.233s-.06.483-.253.398c.035-.32-.507-.164-.7.1l-1.018 1.458a1.434 1.434 0 0 1 .684-1.562 1.46 1.46 0 0 0-1.441 1.402l-.44-.543-.952 2.677 3.393-1.968c.2.09.19.398.043.558s-.373.222-.576.302c-.963.384-1.565 1.326-2.103 2.212l-.583.963c-.395.647-.788 1.298-1.1 1.985.6.496.44 1.437.23 2.183-.72 2.54-1.448 5.1-2.665 7.44.4.213.782-.328.86-.773s.192-1.022.64-1.085a.956.956 0 0 0 .078 1.102zm6.563-18.5c.113-.145.38-.175.46-.01.033.065.027.144.02.216a3.745 3.745 0 0 1-.574 1.625l-.02-1.304c-.003-.182 0-.382.112-.528zm-2.258-3.18c.14.115.12.352.001.492s-.298.207-.47.27l-.005.053c-.127.138-.4.104-.48-.06.25-.324.58-.584.953-.754zm-.453 4.08a.351.351 0 0 1-.459.084l.337-.582.06.035c.133.1.162.325.06.463zm.132-1.99c-.248-.003-.448-.283-.375-.52.015-.17.313-.195.408-.037.098.166.034.377-.033.558zm.7 1.09c.023.235.1.56-.134.636a2.807 2.807 0 0 1 .018-2.588c.236-.436.607-.816 1.077-.973.36.414.1 1.063-.24 1.495s-.773.884-.72 1.43zm1.127.763l-.008-.014c-.044.1-.214.025-.217-.08s.083-.192.166-.26c.152.03.193.276.06.356zm.127-.644c-.103.095-.3.077-.344-.058a.287.287 0 0 1 .009-.136 2.24 2.24 0 0 1 .621-1.091l-.135.903c-.02.14-.047.29-.15.382zm-.936 6.147a1.55 1.55 0 0 1 .073-1.853c.13.217.084.49.018.735s-.15.496-.083.74.358.442.572.31c-.666 2.06-1.44 4.134-2.83 5.8l1.328-3.425c.21-.543.424-1.092.752-1.574.15-.217.325-.506.17-.72zm-.7-.49c.286.32.047.934-.382.976l-.014-.08a1.103 1.103 0 0 1 .396-.895zm-1.595 3.65c.25-.65.526-1.332 1.066-1.773.09.143.034.327-.024.484l-2.813 7.63c-.07.188-.253.42-.418.306.5-2.282 1.345-4.47 2.19-6.648zm15.167-17.05a.562.562 0 0 0 .243-.744l.002-.01a.55.55 0 0 0-.245.753zm-1.82.467a.343.343 0 0 0-.05-.265l-.266.477c.136.085.343-.055.316-.212zm2.138.915c.02-.116-.033-.23-.084-.337-.183.03-.18.292-.127.47l-.04.04c.108.05.233-.055.252-.172zm-1.133-2.586l-.7.826a.303.303 0 0 0 .269.048l-.004-.005a.773.773 0 0 0 .425-.869zm40.437-13.012c.168.344.407.72.277 1.08.012.087.15.098.207.03s.055-.166.048-.252a7.57 7.57 0 0 0-.403-1.882c-.343.17-.296.68-.13 1.024zm-2.926 2.653c-.107.064.11.163.214.093.373-.25.608-.693.604-1.143-.47.105-.83.57-.818 1.05zm-5.553 3.613c.074.247-.067.5-.165.74s-.13.562.08.708c.093.064.22.08.297.16.108.117.075.303.122.455s.315.232.335.073a3.754 3.754 0 0 1-.341-1.345c-.02-.3-.05-.675-.33-.79zm-2.082 8.332l-.27.777a1.47 1.47 0 0 0 .646-.932c-.135-.087-.344-.001-.375.155zm-10.913.478l.106-.137c-.06-.074-.142.063-.106.137zM109.94 37.37a.895.895 0 0 0-.372.815l.02.038a.788.788 0 0 0 .352-.853zm-6.76-4.824c-.154-.033-.297.168-.216.3a.83.83 0 0 0 .695-.129c-.066-.172-.298-.2-.48-.172zm7.08 5.686l-.49.485.117.188.046-.06c.285.008.49-.378.326-.612zm.065 2.693l-.02.006a.606.606 0 0 0 .436-.223c-.14-.165-.47.01-.415.217zm-94.278 21.89l1.072-2.223-2.418.5-1.78-1.706-.272 2.453-2.17 1.168 2.25 1.015.438 2.427 1.66-1.824 2.447.332-1.224-2.143zM21.16 80.77l-2.063 1.354-2.283-.93.65 2.38-1.59 1.883 2.465.117 1.3 2.096.87-2.308 2.398-.592-1.928-1.54.18-2.46zm13.4 19.043L33.46 97.61l-1.076 2.223-2.438.37 1.78 1.71-.4 2.432 2.177-1.162 2.19 1.13-.436-2.428 1.755-1.738-2.445-.336zm82.65-40.358l-1.62 1.862-2.45-.276 1.27 2.115-1.023 2.245 2.404-.556 1.822 1.666.215-2.46 2.146-1.217-2.273-.963-.492-2.417zm-3.93 22.3l-2.355.73-1.94-1.526-.033 2.468-2.05 1.37 2.334.794.673 2.376 1.477-1.978 2.466.097-1.424-2.016.852-2.314zm-16.1 18.38l-1.27-2.116-.91 2.296-2.404.55 1.9 1.572-.217 2.46 2.083-1.323 2.27.968-.613-2.39 1.62-1.86-2.46-.157z"/></svg>